<svg xmlns="http://www.w3.org/2000/svg" width="805" height="600"><rect width="805" height="600" x="0" y="0" fill="#FFFFFF" id="backgorund"/><g transform="translate(30,31)" id="visualization"><g><rect x="0" y="0" height="66.26086956521739" width="2" fill="black"><title>internet of things: 127</title></rect><rect x="730" y="35.00000000000006" height="66.26086956521739" width="2" fill="black"><title>127: 127</title></rect><rect x="0" y="71.26086956521739" height="55.826086956521735" width="2" fill="black"><title>digital twin: 107</title></rect><rect x="730" y="106.26086956521745" height="55.826086956521735" width="2" fill="black"><title>107: 107</title></rect><rect x="0" y="132.08695652173913" height="43.82608695652175" width="2" fill="black"><title>cyber security: 84</title></rect><rect x="730" y="167.08695652173918" height="43.82608695652175" width="2" fill="black"><title>84: 84</title></rect><rect x="730" y="215.91304347826093" height="29.217391304347814" width="2" fill="black"><title>8: 56</title></rect><rect x="0" y="180.91304347826087" height="24" width="2" fill="black"><title>blockchain: 46</title></rect><rect x="730" y="250.13043478260875" height="24" width="2" fill="black"><title>46: 46</title></rect><rect x="0" y="209.91304347826087" height="17.217391304347814" width="2" fill="black"><title>industry 4.0: 33</title></rect><rect x="730" y="279.13043478260875" height="17.217391304347814" width="2" fill="black"><title>33: 33</title></rect><rect x="0" y="232.1304347826087" height="16.17391304347825" width="2" fill="black"><title>industrial internet of thing: 31</title></rect><rect x="730" y="301.34782608695656" height="16.17391304347825" width="2" fill="black"><title>31: 31</title></rect><rect x="730" y="322.5217391304348" height="15.652173913043498" width="2" fill="black"><title>10: 30</title></rect><rect x="730" y="343.1739130434783" height="14.608695652173878" width="2" fill="black"><title>7: 28</title></rect><rect x="730" y="362.7826086956522" height="13.565217391304373" width="2" fill="black"><title>13: 26</title></rect><rect x="730" y="381.34782608695656" height="12.52173913043481" width="2" fill="black"><title>12: 24</title></rect><rect x="0" y="253.30434782608694" height="11.47826086956519" width="2" fill="black"><title>cloud computing: 22</title></rect><rect x="730" y="398.86956521739137" height="11.47826086956519" width="2" fill="black"><title>22: 22</title></rect><rect x="0" y="269.78260869565213" height="10.956521739130437" width="2" fill="black"><title>embedded systems: 21</title></rect><rect x="730" y="415.34782608695656" height="10.956521739130437" width="2" fill="black"><title>21: 21</title></rect><rect x="0" y="285.73913043478257" height="9.913043478260875" width="2" fill="black"><title>manufacturing: 19</title></rect><rect x="730" y="431.304347826087" height="9.913043478260875" width="2" fill="black"><title>19: 19</title></rect><rect x="0" y="300.65217391304344" height="9.391304347826065" width="2" fill="black"><title>big data: 18</title></rect><rect x="730" y="446.21739130434787" height="9.391304347826065" width="2" fill="black"><title>18: 18</title></rect><rect x="730" y="460.60869565217394" height="9.391304347826065" width="2" fill="black"><title>9: 18</title></rect><rect x="0" y="315.0434782608695" height="7.826086956521749" width="2" fill="black"><title>machine learning: 15</title></rect><rect x="730" y="475" height="7.826086956521749" width="2" fill="black"><title>15: 15</title></rect><rect x="0" y="327.86956521739125" height="7.304347826086939" width="2" fill="black"><title>artificial intelligence: 14</title></rect><rect x="730" y="487.82608695652175" height="7.304347826086939" width="2" fill="black"><title>14: 14</title></rect><rect x="0" y="340.1739130434782" height="6.782608695652186" width="2" fill="black"><title>cyber-physical systems: 13</title></rect><rect x="0" y="351.9565217391304" height="6.782608695652186" width="2" fill="black"><title>data models: 13</title></rect><rect x="0" y="363.73913043478257" height="6.2608695652173765" width="2" fill="black"><title>computational modeling: 12</title></rect><rect x="0" y="374.99999999999994" height="6.2608695652173765" width="2" fill="black"><title>computer architecture: 12</title></rect><rect x="0" y="386.2608695652173" height="5.7391304347826235" width="2" fill="black"><title>virtual reality: 11</title></rect><rect x="730" y="500.1304347826087" height="5.7391304347826235" width="2" fill="black"><title>11: 11</title></rect><rect x="0" y="396.99999999999994" height="5.217391304347814" width="2" fill="black"><title>cyber physical system: 10</title></rect><rect x="0" y="407.21739130434776" height="5.217391304347814" width="2" fill="black"><title>edge computing: 10</title></rect><rect x="0" y="417.43478260869557" height="5.217391304347814" width="2" fill="black"><title>privacy: 10</title></rect><rect x="0" y="427.6521739130434" height="4.695652173913061" width="2" fill="black"><title>life cycle: 9</title></rect><rect x="0" y="437.34782608695645" height="4.695652173913061" width="2" fill="black"><title>real-time systems: 9</title></rect><rect x="0" y="447.0434782608695" height="4.173913043478251" width="2" fill="black"><title>cryptography: 8</title></rect><rect x="0" y="456.21739130434776" height="4.173913043478251" width="2" fill="black"><title>data privacy: 8</title></rect><rect x="0" y="465.391304347826" height="4.173913043478251" width="2" fill="black"><title>data visualization: 8</title></rect><rect x="0" y="474.56521739130426" height="4.173913043478251" width="2" fill="black"><title>e-learning: 8</title></rect><rect x="0" y="483.7391304347825" height="4.173913043478251" width="2" fill="black"><title>monitoring: 8</title></rect><rect x="0" y="492.91304347826076" height="4.173913043478251" width="2" fill="black"><title>optimization: 8</title></rect><rect x="0" y="502.086956521739" height="4.173913043478251" width="2" fill="black"><title>smart cities: 8</title></rect><rect x="0" y="511.26086956521726" height="3.652173913043498" width="2" fill="black"><title>accident prevention: 7</title></rect><rect x="0" y="519.9130434782608" height="3.652173913043498" width="2" fill="black"><title>information management: 7</title></rect><rect x="0" y="528.5652173913043" height="3.652173913043498" width="2" fill="black"><title>protocols: 7</title></rect><rect x="0" y="537.2173913043478" height="3.652173913043498" width="2" fill="black"><title>wireless sensor networks: 7</title></rect><rect x="0" y="545.8695652173913" height="3.130434782608745" width="2" fill="black"><title>authentication: 6</title></rect><rect x="730" y="510.8695652173913" height="3.1304347826086882" width="2" fill="black"><title>6: 6</title></rect></g><g fill="none" stroke-opacity="0.9"><g style="mix-blend-mode: multiply;"><path d="M2,33.130434782608695C366,33.130434782608695,366,68.13043478260875,730,68.13043478260875" stroke="#dae0e0" stroke-width="66.26086956521739"/><title>internet of things → 127: 127</title></g><g style="mix-blend-mode: multiply;"><path d="M2,99.17391304347825C366,99.17391304347825,366,134.1739130434783,730,134.1739130434783" stroke="#cccccc" stroke-width="55.826086956521735"/><title>digital twin → 107: 107</title></g><g style="mix-blend-mode: multiply;"><path d="M2,154C366,154,366,189.00000000000006,730,189.00000000000006" stroke="#cccccc" stroke-width="43.826086956521735"/><title>cyber security → 84: 84</title></g><g style="mix-blend-mode: multiply;"><path d="M2,192.91304347826087C366,192.91304347826087,366,262.13043478260875,730,262.13043478260875" stroke="#9467bd" stroke-width="24"/><title>blockchain → 46: 46</title></g><g style="mix-blend-mode: multiply;"><path d="M2,218.52173913043478C366,218.52173913043478,366,287.7391304347827,730,287.7391304347827" stroke="#cccccc" stroke-width="17.217391304347824"/><title>industry 4.0 → 33: 33</title></g><g style="mix-blend-mode: multiply;"><path d="M2,240.2173913043478C366,240.2173913043478,366,309.4347826086957,730,309.4347826086957" stroke="#cccccc" stroke-width="16.17391304347826"/><title>industrial internet of thing → 31: 31</title></g><g style="mix-blend-mode: multiply;"><path d="M2,259.04347826086956C366,259.04347826086956,366,404.608695652174,730,404.608695652174" stroke="#8c564b" stroke-width="11.478260869565217"/><title>cloud computing → 22: 22</title></g><g style="mix-blend-mode: multiply;"><path d="M2,275.2608695652173C366,275.2608695652173,366,420.82608695652175,730,420.82608695652175" stroke="#cccccc" stroke-width="10.956521739130434"/><title>embedded systems → 21: 21</title></g><g style="mix-blend-mode: multiply;"><path d="M2,290.695652173913C366,290.695652173913,366,436.26086956521743,730,436.26086956521743" stroke="#cccccc" stroke-width="9.91304347826087"/><title>manufacturing → 19: 19</title></g><g style="mix-blend-mode: multiply;"><path d="M2,305.3478260869565C366,305.3478260869565,366,450.91304347826093,730,450.91304347826093" stroke="#d62728" stroke-width="9.391304347826086"/><title>big data → 18: 18</title></g><g style="mix-blend-mode: multiply;"><path d="M2,318.9565217391304C366,318.9565217391304,366,478.9130434782609,730,478.9130434782609" stroke="#cccccc" stroke-width="7.826086956521739"/><title>machine learning → 15: 15</title></g><g style="mix-blend-mode: multiply;"><path d="M2,331.52173913043475C366,331.52173913043475,366,491.47826086956525,730,491.47826086956525" stroke="#ff7f0e" stroke-width="7.304347826086956"/><title>artificial intelligence → 14: 14</title></g><g style="mix-blend-mode: multiply;"><path d="M2,343.56521739130426C366,343.56521739130426,366,366.17391304347825,730,366.17391304347825" stroke="#cccccc" stroke-width="6.782608695652174"/><title>cyber-physical systems → 13: 13</title></g><g style="mix-blend-mode: multiply;"><path d="M2,355.34782608695645C366,355.34782608695645,366,372.95652173913044,730,372.95652173913044" stroke="#cccccc" stroke-width="6.782608695652174"/><title>data models → 13: 13</title></g><g style="mix-blend-mode: multiply;"><path d="M2,366.86956521739125C366,366.86956521739125,366,384.47826086956525,730,384.47826086956525" stroke="#e377c2" stroke-width="6.260869565217391"/><title>computational modeling → 12: 12</title></g><g style="mix-blend-mode: multiply;"><path d="M2,378.13043478260863C366,378.13043478260863,366,390.7391304347826,730,390.7391304347826" stroke="#7f7f7f" stroke-width="6.260869565217391"/><title>computer architecture → 12: 12</title></g><g style="mix-blend-mode: multiply;"><path d="M2,389.13043478260863C366,389.13043478260863,366,503,730,503" stroke="#cccccc" stroke-width="5.739130434782608"/><title>virtual reality → 11: 11</title></g><g style="mix-blend-mode: multiply;"><path d="M2,399.6086956521739C366,399.6086956521739,366,325.13043478260875,730,325.13043478260875" stroke="#17becf" stroke-width="5.217391304347826"/><title>cyber physical system → 10: 10</title></g><g style="mix-blend-mode: multiply;"><path d="M2,409.8260869565217C366,409.8260869565217,366,330.34782608695656,730,330.34782608695656" stroke="#cccccc" stroke-width="5.217391304347826"/><title>edge computing → 10: 10</title></g><g style="mix-blend-mode: multiply;"><path d="M2,420.0434782608695C366,420.0434782608695,366,335.5652173913044,730,335.5652173913044" stroke="#cccccc" stroke-width="5.217391304347826"/><title>privacy → 10: 10</title></g><g style="mix-blend-mode: multiply;"><path d="M2,429.9999999999999C366,429.9999999999999,366,462.95652173913044,730,462.95652173913044" stroke="#cccccc" stroke-width="4.695652173913043"/><title>life cycle → 9: 9</title></g><g style="mix-blend-mode: multiply;"><path d="M2,439.69565217391295C366,439.69565217391295,366,467.6521739130435,730,467.6521739130435" stroke="#cccccc" stroke-width="4.695652173913043"/><title>real-time systems → 9: 9</title></g><g style="mix-blend-mode: multiply;"><path d="M2,449.13043478260863C366,449.13043478260863,366,218.00000000000006,730,218.00000000000006" stroke="#bcbd22" stroke-width="4.173913043478261"/><title>cryptography → 8: 8</title></g><g style="mix-blend-mode: multiply;"><path d="M2,458.3043478260869C366,458.3043478260869,366,222.1739130434783,730,222.1739130434783" stroke="#cccccc" stroke-width="4.173913043478261"/><title>data privacy → 8: 8</title></g><g style="mix-blend-mode: multiply;"><path d="M2,467.47826086956513C366,467.47826086956513,366,226.34782608695656,730,226.34782608695656" stroke="#cccccc" stroke-width="4.173913043478261"/><title>data visualization → 8: 8</title></g><g style="mix-blend-mode: multiply;"><path d="M2,476.6521739130434C366,476.6521739130434,366,230.5217391304348,730,230.5217391304348" stroke="#cccccc" stroke-width="4.173913043478261"/><title>e-learning → 8: 8</title></g><g style="mix-blend-mode: multiply;"><path d="M2,485.82608695652164C366,485.82608695652164,366,234.69565217391306,730,234.69565217391306" stroke="#cccccc" stroke-width="4.173913043478261"/><title>monitoring → 8: 8</title></g><g style="mix-blend-mode: multiply;"><path d="M2,494.9999999999999C366,494.9999999999999,366,238.8695652173913,730,238.8695652173913" stroke="#cccccc" stroke-width="4.173913043478261"/><title>optimization → 8: 8</title></g><g style="mix-blend-mode: multiply;"><path d="M2,504.17391304347814C366,504.17391304347814,366,243.04347826086956,730,243.04347826086956" stroke="#cccccc" stroke-width="4.173913043478261"/><title>smart cities → 8: 8</title></g><g style="mix-blend-mode: multiply;"><path d="M2,513.086956521739C366,513.086956521739,366,345.00000000000006,730,345.00000000000006" stroke="#1f77b4" stroke-width="3.652173913043478"/><title>accident prevention → 7: 7</title></g><g style="mix-blend-mode: multiply;"><path d="M2,521.7391304347825C366,521.7391304347825,366,348.65217391304355,730,348.65217391304355" stroke="#cccccc" stroke-width="3.652173913043478"/><title>information management → 7: 7</title></g><g style="mix-blend-mode: multiply;"><path d="M2,530.391304347826C366,530.391304347826,366,352.30434782608705,730,352.30434782608705" stroke="#cccccc" stroke-width="3.652173913043478"/><title>protocols → 7: 7</title></g><g style="mix-blend-mode: multiply;"><path d="M2,539.0434782608695C366,539.0434782608695,366,355.95652173913055,730,355.95652173913055" stroke="#cccccc" stroke-width="3.652173913043478"/><title>wireless sensor networks → 7: 7</title></g><g style="mix-blend-mode: multiply;"><path d="M2,547.4347826086956C366,547.4347826086956,366,512.4347826086956,730,512.4347826086956" stroke="#2ca02c" stroke-width="3.1304347826086953"/><title>authentication → 6: 6</title></g></g><g><text x="6" y="33.130434782608695" text-anchor="start"><tspan alignment-baseline="middle" x="6" style="font-family: Arial, sans-serif; font-size: 10px; fill: black; font-weight: bold;">internet of things</tspan></text><text x="726" y="68.13043478260875" text-anchor="end"><tspan alignment-baseline="middle" x="726" style="font-family: Arial, sans-serif; font-size: 10px; fill: black; font-weight: bold;">127</tspan></text><text x="6" y="99.17391304347825" text-anchor="start"><tspan alignment-baseline="middle" x="6" style="font-family: Arial, sans-serif; font-size: 10px; fill: black; font-weight: bold;">digital twin</tspan></text><text x="726" y="134.1739130434783" text-anchor="end"><tspan alignment-baseline="middle" x="726" style="font-family: Arial, sans-serif; font-size: 10px; fill: black; font-weight: bold;">107</tspan></text><text x="6" y="154" text-anchor="start"><tspan alignment-baseline="middle" x="6" style="font-family: Arial, sans-serif; font-size: 10px; fill: black; font-weight: bold;">cyber security</tspan></text><text x="726" y="189.00000000000006" text-anchor="end"><tspan alignment-baseline="middle" x="726" style="font-family: Arial, sans-serif; font-size: 10px; fill: black; font-weight: bold;">84</tspan></text><text x="726" y="230.52173913043484" text-anchor="end"><tspan alignment-baseline="middle" x="726" style="font-family: Arial, sans-serif; font-size: 10px; fill: black; font-weight: bold;">8</tspan></text><text x="6" y="192.91304347826087" text-anchor="start"><tspan alignment-baseline="middle" x="6" style="font-family: Arial, sans-serif; font-size: 10px; fill: black; font-weight: bold;">blockchain</tspan></text><text x="726" y="262.13043478260875" text-anchor="end"><tspan alignment-baseline="middle" x="726" style="font-family: Arial, sans-serif; font-size: 10px; fill: black; font-weight: bold;">46</tspan></text><text x="6" y="218.52173913043478" text-anchor="start"><tspan alignment-baseline="middle" x="6" style="font-family: Arial, sans-serif; font-size: 10px; fill: black; font-weight: bold;">industry 4.0</tspan></text><text x="726" y="287.7391304347826" text-anchor="end"><tspan alignment-baseline="middle" x="726" style="font-family: Arial, sans-serif; font-size: 10px; fill: black; font-weight: bold;">33</tspan></text><text x="6" y="240.2173913043478" text-anchor="start"><tspan alignment-baseline="middle" x="6" style="font-family: Arial, sans-serif; font-size: 10px; fill: black; font-weight: bold;">industrial internet of thing</tspan></text><text x="726" y="309.4347826086957" text-anchor="end"><tspan alignment-baseline="middle" x="726" style="font-family: Arial, sans-serif; font-size: 10px; fill: black; font-weight: bold;">31</tspan></text><text x="726" y="330.34782608695656" text-anchor="end"><tspan alignment-baseline="middle" x="726" style="font-family: Arial, sans-serif; font-size: 10px; fill: black; font-weight: bold;">10</tspan></text><text x="726" y="350.47826086956525" text-anchor="end"><tspan alignment-baseline="middle" x="726" style="font-family: Arial, sans-serif; font-size: 10px; fill: black; font-weight: bold;">7</tspan></text><text x="726" y="369.5652173913044" text-anchor="end"><tspan alignment-baseline="middle" x="726" style="font-family: Arial, sans-serif; font-size: 10px; fill: black; font-weight: bold;">13</tspan></text><text x="726" y="387.608695652174" text-anchor="end"><tspan alignment-baseline="middle" x="726" style="font-family: Arial, sans-serif; font-size: 10px; fill: black; font-weight: bold;">12</tspan></text><text x="6" y="259.0434782608695" text-anchor="start"><tspan alignment-baseline="middle" x="6" style="font-family: Arial, sans-serif; font-size: 10px; fill: black; font-weight: bold;">cloud computing</tspan></text><text x="726" y="404.608695652174" text-anchor="end"><tspan alignment-baseline="middle" x="726" style="font-family: Arial, sans-serif; font-size: 10px; fill: black; font-weight: bold;">22</tspan></text><text x="6" y="275.2608695652174" text-anchor="start"><tspan alignment-baseline="middle" x="6" style="font-family: Arial, sans-serif; font-size: 10px; fill: black; font-weight: bold;">embedded systems</tspan></text><text x="726" y="420.82608695652175" text-anchor="end"><tspan alignment-baseline="middle" x="726" style="font-family: Arial, sans-serif; font-size: 10px; fill: black; font-weight: bold;">21</tspan></text><text x="6" y="290.695652173913" text-anchor="start"><tspan alignment-baseline="middle" x="6" style="font-family: Arial, sans-serif; font-size: 10px; fill: black; font-weight: bold;">manufacturing</tspan></text><text x="726" y="436.26086956521743" text-anchor="end"><tspan alignment-baseline="middle" x="726" style="font-family: Arial, sans-serif; font-size: 10px; fill: black; font-weight: bold;">19</tspan></text><text x="6" y="305.3478260869565" text-anchor="start"><tspan alignment-baseline="middle" x="6" style="font-family: Arial, sans-serif; font-size: 10px; fill: black; font-weight: bold;">big data</tspan></text><text x="726" y="450.9130434782609" text-anchor="end"><tspan alignment-baseline="middle" x="726" style="font-family: Arial, sans-serif; font-size: 10px; fill: black; font-weight: bold;">18</tspan></text><text x="726" y="465.304347826087" text-anchor="end"><tspan alignment-baseline="middle" x="726" style="font-family: Arial, sans-serif; font-size: 10px; fill: black; font-weight: bold;">9</tspan></text><text x="6" y="318.9565217391304" text-anchor="start"><tspan alignment-baseline="middle" x="6" style="font-family: Arial, sans-serif; font-size: 10px; fill: black; font-weight: bold;">machine learning</tspan></text><text x="726" y="478.9130434782609" text-anchor="end"><tspan alignment-baseline="middle" x="726" style="font-family: Arial, sans-serif; font-size: 10px; fill: black; font-weight: bold;">15</tspan></text><text x="6" y="331.52173913043475" text-anchor="start"><tspan alignment-baseline="middle" x="6" style="font-family: Arial, sans-serif; font-size: 10px; fill: black; font-weight: bold;">artificial intelligence</tspan></text><text x="726" y="491.47826086956525" text-anchor="end"><tspan alignment-baseline="middle" x="726" style="font-family: Arial, sans-serif; font-size: 10px; fill: black; font-weight: bold;">14</tspan></text><text x="6" y="343.56521739130426" text-anchor="start"><tspan alignment-baseline="middle" x="6" style="font-family: Arial, sans-serif; font-size: 10px; fill: black; font-weight: bold;">cyber-physical systems</tspan></text><text x="6" y="355.3478260869565" text-anchor="start"><tspan alignment-baseline="middle" x="6" style="font-family: Arial, sans-serif; font-size: 10px; fill: black; font-weight: bold;">data models</tspan></text><text x="6" y="366.86956521739125" text-anchor="start"><tspan alignment-baseline="middle" x="6" style="font-family: Arial, sans-serif; font-size: 10px; fill: black; font-weight: bold;">computational modeling</tspan></text><text x="6" y="378.13043478260863" text-anchor="start"><tspan alignment-baseline="middle" x="6" style="font-family: Arial, sans-serif; font-size: 10px; fill: black; font-weight: bold;">computer architecture</tspan></text><text x="6" y="389.13043478260863" text-anchor="start"><tspan alignment-baseline="middle" x="6" style="font-family: Arial, sans-serif; font-size: 10px; fill: black; font-weight: bold;">virtual reality</tspan></text><text x="726" y="503" text-anchor="end"><tspan alignment-baseline="middle" x="726" style="font-family: Arial, sans-serif; font-size: 10px; fill: black; font-weight: bold;">11</tspan></text><text x="6" y="399.6086956521739" text-anchor="start"><tspan alignment-baseline="middle" x="6" style="font-family: Arial, sans-serif; font-size: 10px; fill: black; font-weight: bold;">cyber physical system</tspan></text><text x="6" y="409.82608695652164" text-anchor="start"><tspan alignment-baseline="middle" x="6" style="font-family: Arial, sans-serif; font-size: 10px; fill: black; font-weight: bold;">edge computing</tspan></text><text x="6" y="420.0434782608695" text-anchor="start"><tspan alignment-baseline="middle" x="6" style="font-family: Arial, sans-serif; font-size: 10px; fill: black; font-weight: bold;">privacy</tspan></text><text x="6" y="429.9999999999999" text-anchor="start"><tspan alignment-baseline="middle" x="6" style="font-family: Arial, sans-serif; font-size: 10px; fill: black; font-weight: bold;">life cycle</tspan></text><text x="6" y="439.695652173913" text-anchor="start"><tspan alignment-baseline="middle" x="6" style="font-family: Arial, sans-serif; font-size: 10px; fill: black; font-weight: bold;">real-time systems</tspan></text><text x="6" y="449.13043478260863" text-anchor="start"><tspan alignment-baseline="middle" x="6" style="font-family: Arial, sans-serif; font-size: 10px; fill: black; font-weight: bold;">cryptography</tspan></text><text x="6" y="458.3043478260869" text-anchor="start"><tspan alignment-baseline="middle" x="6" style="font-family: Arial, sans-serif; font-size: 10px; fill: black; font-weight: bold;">data privacy</tspan></text><text x="6" y="467.47826086956513" text-anchor="start"><tspan alignment-baseline="middle" x="6" style="font-family: Arial, sans-serif; font-size: 10px; fill: black; font-weight: bold;">data visualization</tspan></text><text x="6" y="476.6521739130434" text-anchor="start"><tspan alignment-baseline="middle" x="6" style="font-family: Arial, sans-serif; font-size: 10px; fill: black; font-weight: bold;">e-learning</tspan></text><text x="6" y="485.82608695652164" text-anchor="start"><tspan alignment-baseline="middle" x="6" style="font-family: Arial, sans-serif; font-size: 10px; fill: black; font-weight: bold;">monitoring</tspan></text><text x="6" y="494.9999999999999" text-anchor="start"><tspan alignment-baseline="middle" x="6" style="font-family: Arial, sans-serif; font-size: 10px; fill: black; font-weight: bold;">optimization</tspan></text><text x="6" y="504.17391304347814" text-anchor="start"><tspan alignment-baseline="middle" x="6" style="font-family: Arial, sans-serif; font-size: 10px; fill: black; font-weight: bold;">smart cities</tspan></text><text x="6" y="513.086956521739" text-anchor="start"><tspan alignment-baseline="middle" x="6" style="font-family: Arial, sans-serif; font-size: 10px; fill: black; font-weight: bold;">accident prevention</tspan></text><text x="6" y="521.7391304347825" text-anchor="start"><tspan alignment-baseline="middle" x="6" style="font-family: Arial, sans-serif; font-size: 10px; fill: black; font-weight: bold;">information management</tspan></text><text x="6" y="530.391304347826" text-anchor="start"><tspan alignment-baseline="middle" x="6" style="font-family: Arial, sans-serif; font-size: 10px; fill: black; font-weight: bold;">protocols</tspan></text><text x="6" y="539.0434782608695" text-anchor="start"><tspan alignment-baseline="middle" x="6" style="font-family: Arial, sans-serif; font-size: 10px; fill: black; font-weight: bold;">wireless sensor networks</tspan></text><text x="6" y="547.4347826086956" text-anchor="start"><tspan alignment-baseline="middle" x="6" style="font-family: Arial, sans-serif; font-size: 10px; fill: black; font-weight: bold;">authentication</tspan></text><text x="726" y="512.4347826086956" text-anchor="end"><tspan alignment-baseline="middle" x="726" style="font-family: Arial, sans-serif; font-size: 10px; fill: black; font-weight: bold;">6</tspan></text></g><g><text x="1" y="-4" text-anchor="middle" style="font-family: Arial, sans-serif; font-size: 12px; fill: rgb(123, 123, 123); font-weight: bold;">keyword</text><text x="731" y="31.000000000000057" text-anchor="middle" style="font-family: Arial, sans-serif; font-size: 12px; fill: rgb(123, 123, 123); font-weight: bold;">occurrences</text></g></g></svg>