<svg width="1657" height="993" xmlns="http://www.w3.org/2000/svg" xmlns:xlink="http://www.w3.org/1999/xlink" xml:space="preserve" overflow="hidden"><defs><clipPath id="clip0"><rect x="2388" y="55" width="1657" height="993"/></clipPath><clipPath id="clip1"><rect x="2388" y="56" width="1654" height="990"/></clipPath><clipPath id="clip2"><rect x="2693" y="106" width="1302" height="597"/></clipPath><clipPath id="clip3"><rect x="2693" y="106" width="1302" height="597"/></clipPath><clipPath id="clip4"><rect x="2388" y="56" width="1654" height="990"/></clipPath><clipPath id="clip5"><rect x="2388" y="56" width="1654" height="990"/></clipPath><clipPath id="clip6"><rect x="2388" y="56" width="1654" height="990"/></clipPath><clipPath id="clip7"><rect x="2388" y="56" width="1654" height="990"/></clipPath><clipPath id="clip8"><rect x="2388" y="56" width="1654" height="990"/></clipPath><clipPath id="clip9"><rect x="2388" y="56" width="1654" height="990"/></clipPath><clipPath id="clip10"><rect x="2388" y="56" width="1654" height="990"/></clipPath><clipPath id="clip11"><rect x="2388" y="56" width="1654" height="990"/></clipPath><clipPath id="clip12"><rect x="2388" y="56" width="1654" height="990"/></clipPath><clipPath id="clip13"><rect x="2388" y="56" width="1654" height="990"/></clipPath><clipPath id="clip14"><rect x="2388" y="56" width="1654" height="990"/></clipPath><clipPath id="clip15"><rect x="2388" y="56" width="1654" height="990"/></clipPath><clipPath id="clip16"><rect x="2388" y="56" width="1654" height="990"/></clipPath><clipPath id="clip17"><rect x="2388" y="56" width="1654" height="990"/></clipPath><clipPath id="clip18"><rect x="2388" y="56" width="1654" height="990"/></clipPath><clipPath id="clip19"><rect x="2388" y="56" width="1654" height="990"/></clipPath><clipPath id="clip20"><rect x="2388" y="56" width="1654" height="990"/></clipPath><clipPath id="clip21"><rect x="2388" y="56" width="1654" height="990"/></clipPath><clipPath id="clip22"><rect x="2388" y="56" width="1654" height="990"/></clipPath><clipPath id="clip23"><rect x="2388" y="56" width="1654" height="990"/></clipPath><clipPath id="clip24"><rect x="2388" y="56" width="1654" height="990"/></clipPath><clipPath id="clip25"><rect x="2388" y="56" width="1654" height="990"/></clipPath><clipPath id="clip26"><rect x="2388" y="56" width="1654" height="990"/></clipPath><clipPath id="clip27"><rect x="2388" y="56" width="1654" height="990"/></clipPath><clipPath id="clip28"><rect x="2388" y="56" width="1654" height="990"/></clipPath><clipPath id="clip29"><rect x="2388" y="56" width="1654" height="990"/></clipPath><clipPath id="clip30"><rect x="2388" y="56" width="1654" height="990"/></clipPath><clipPath id="clip31"><rect x="2388" y="56" width="1654" height="990"/></clipPath><clipPath id="clip32"><rect x="2388" y="56" width="1654" height="990"/></clipPath><clipPath id="clip33"><rect x="2388" y="56" width="1654" height="990"/></clipPath><clipPath id="clip34"><rect x="2388" y="56" width="1654" height="990"/></clipPath><clipPath id="clip35"><rect x="2388" y="56" width="1654" height="990"/></clipPath><clipPath id="clip36"><rect x="2388" y="56" width="1654" height="990"/></clipPath><clipPath id="clip37"><rect x="2388" y="56" width="1654" height="990"/></clipPath><clipPath id="clip38"><rect x="2388" y="56" width="1654" height="990"/></clipPath><clipPath id="clip39"><rect x="2388" y="56" width="1654" height="990"/></clipPath><clipPath id="clip40"><rect x="2388" y="56" width="1654" height="990"/></clipPath><clipPath id="clip41"><rect x="2388" y="56" width="1654" height="990"/></clipPath><clipPath id="clip42"><rect x="2388" y="56" width="1654" height="990"/></clipPath><clipPath id="clip43"><rect x="2388" y="56" width="1654" height="990"/></clipPath><clipPath id="clip44"><rect x="2388" y="56" width="1654" height="990"/></clipPath></defs><g clip-path="url(#clip0)" transform="translate(-2388 -55)"><rect x="2389" y="56" width="1654" height="990" fill="#FFFFFF"/><g clip-path="url(#clip1)"><path d="M2693.5 626.521 3992.5 626.521M2693.5 551.518 3992.5 551.518M2693.5 477.516 3992.5 477.516M2693.5 403.513 3992.5 403.513M2693.5 329.511 3992.5 329.511M2693.5 254.509 3992.5 254.509M2693.5 180.506 3992.5 180.506M2693.5 106.5 3992.5 106.5" stroke="#D9D9D9" stroke-width="3.4375" stroke-linejoin="round" stroke-miterlimit="10" fill="none"/></g><g clip-path="url(#clip2)"><path d="M2735.09 359.012 2793.09 359.012 2793.09 700 2735.09 700ZM2951.1 147.005 3010.1 147.005 3010.1 700 2951.1 700ZM3168.1 607.02 3226.11 607.02 3226.11 700 3168.1 700ZM3384.11 196.006 3443.11 196.006 3443.11 700 3384.11 700ZM3601.12 322.011 3659.12 322.011 3659.12 700 3601.12 700ZM3817.13 630.021 3875.13 630.021 3875.13 700 3817.13 700Z" fill="#4285F4"/></g><g clip-path="url(#clip3)"><path d="M2811.09 671.022 2869.09 671.022 2869.09 700 2811.09 700ZM3027.1 637.021 3086.1 637.021 3086.1 700 3027.1 700ZM3244.11 693.023 3302.11 693.023 3302.11 700 3244.11 700ZM3460.11 589.019 3519.12 589.019 3519.12 700 3460.11 700ZM3677.12 659.022 3735.12 659.022 3735.12 700 3677.12 700ZM3893.13 682.022 3951.13 682.022 3951.13 700 3893.13 700Z" fill="#FBBC04"/></g><g clip-path="url(#clip4)"><path d="M2693.5 700.5 3992.5 700.5" stroke="#D9D9D9" stroke-width="3.4375" stroke-linejoin="round" stroke-miterlimit="10" fill="none" fill-rule="evenodd"/></g><g clip-path="url(#clip5)"><path d="M2693.5 700.5 3992.5 700.5" stroke="#D9D9D9" stroke-width="3.4375" stroke-linejoin="round" stroke-miterlimit="10" fill="none" fill-rule="evenodd"/></g><g clip-path="url(#clip6)"><path d="M2693.5 700.5 2693.5 806.5M2910.6 700.5 2910.6 806.5M3126.6 700.5 3126.6 806.5M3343.61 700.5 3343.61 806.5M3559.62 700.5 3559.62 806.5M3775.62 700.5 3775.62 806.5M3992.5 700.5 3992.5 806.5" stroke="#D9D9D9" stroke-width="3.4375" stroke-linejoin="round" stroke-miterlimit="10" fill="none"/></g><g clip-path="url(#clip7)"><text fill="#595959" font-family="Arial,Arial_MSFontService,sans-serif" font-weight="400" font-size="41" transform="matrix(1 0 0 1 2724.21 742)">Springer</text></g><g clip-path="url(#clip8)"><text fill="#595959" font-family="Arial,Arial_MSFontService,sans-serif" font-weight="400" font-size="41" transform="matrix(1 0 0 1 2764.33 790)">Link</text></g><g clip-path="url(#clip9)"><text fill="#595959" font-family="Arial,Arial_MSFontService,sans-serif" font-weight="400" font-size="41" transform="matrix(1 0 0 1 2949.8 766)">Scopus</text></g><g clip-path="url(#clip10)"><text fill="#595959" font-family="Arial,Arial_MSFontService,sans-serif" font-weight="400" font-size="41" transform="matrix(1 0 0 1 3146.75 742)">ScienceD</text></g><g clip-path="url(#clip11)"><text fill="#595959" font-family="Arial,Arial_MSFontService,sans-serif" font-weight="400" font-size="41" transform="matrix(1 0 0 1 3196.07 790)">irect</text></g><g clip-path="url(#clip12)"><text fill="#595959" font-family="Arial,Arial_MSFontService,sans-serif" font-weight="400" font-size="41" transform="matrix(1 0 0 1 3363.2 742)">WeofScie</text></g><g clip-path="url(#clip13)"><text fill="#595959" font-family="Arial,Arial_MSFontService,sans-serif" font-weight="400" font-size="41" transform="matrix(1 0 0 1 3418.21 790)">nce</text></g><g clip-path="url(#clip14)"><text fill="#595959" font-family="Arial,Arial_MSFontService,sans-serif" font-weight="400" font-size="41" transform="matrix(1 0 0 1 3578.47 766)">IEExplore</text></g><g clip-path="url(#clip15)"><text fill="#595959" font-family="Arial,Arial_MSFontService,sans-serif" font-weight="400" font-size="41" transform="matrix(1 0 0 1 3838.49 766)">ACM</text></g><g clip-path="url(#clip16)"><path d="M2466.5 806.5 3992.5 806.5M2466.5 806.5 2466.5 867.5M2693.59 806.5 2693.59 867.5M2693.59 806.5 2693.59 867.5M2910.6 806.5 2910.6 867.5M2910.6 806.5 2910.6 867.5M3126.6 806.5 3126.6 867.5M3126.6 806.5 3126.6 867.5M3343.61 806.5 3343.61 867.5M3343.61 806.5 3343.61 867.5M3559.62 806.5 3559.62 867.5M3559.62 806.5 3559.62 867.5M3775.62 806.5 3775.62 867.5M3775.62 806.5 3775.62 867.5M3992.5 806.5 3992.5 867.5M3992.5 806.5 3992.5 867.5" stroke="#D9D9D9" stroke-width="3.4375" stroke-linejoin="round" stroke-miterlimit="10" fill="none"/></g><g clip-path="url(#clip17)"><rect x="2481" y="826" width="20.0002" height="19.9999" fill="#4285F4"/></g><g clip-path="url(#clip18)"><text fill="#595959" font-family="Arial,Arial_MSFontService,sans-serif" font-weight="400" font-size="41" transform="matrix(1 0 0 1 2509.92 849)">Selected</text></g><g clip-path="url(#clip19)"><text fill="#595959" font-family="Arial,Arial_MSFontService,sans-serif" font-weight="400" font-size="41" transform="matrix(1 0 0 1 2779.22 850)">92</text></g><g clip-path="url(#clip20)"><text fill="#595959" font-family="Arial,Arial_MSFontService,sans-serif" font-weight="400" font-size="41" transform="matrix(1 0 0 1 2984.19 850)">149</text></g><g clip-path="url(#clip21)"><text fill="#595959" font-family="Arial,Arial_MSFontService,sans-serif" font-weight="400" font-size="41" transform="matrix(1 0 0 1 3212.09 850)">25</text></g><g clip-path="url(#clip22)"><text fill="#595959" font-family="Arial,Arial_MSFontService,sans-serif" font-weight="400" font-size="41" transform="matrix(1 0 0 1 3417.05 850)">136</text></g><g clip-path="url(#clip23)"><text fill="#595959" font-family="Arial,Arial_MSFontService,sans-serif" font-weight="400" font-size="41" transform="matrix(1 0 0 1 3633.48 850)">102</text></g><g clip-path="url(#clip24)"><text fill="#595959" font-family="Arial,Arial_MSFontService,sans-serif" font-weight="400" font-size="41" transform="matrix(1 0 0 1 3861.39 850)">19</text></g><g clip-path="url(#clip25)"><path d="M2466.5 867.5 3992.5 867.5M2466.5 867.5 2466.5 929.5M2466.5 929.5 3992.5 929.5M2693.59 867.5 2693.59 929.5M2693.59 867.5 2693.59 929.5M2910.6 867.5 2910.6 929.5M2910.6 867.5 2910.6 929.5M3126.6 867.5 3126.6 929.5M3126.6 867.5 3126.6 929.5M3343.61 867.5 3343.61 929.5M3343.61 867.5 3343.61 929.5M3559.62 867.5 3559.62 929.5M3559.62 867.5 3559.62 929.5M3775.62 867.5 3775.62 929.5M3775.62 867.5 3775.62 929.5M3992.5 867.5 3992.5 929.5M3992.5 867.5 3992.5 929.5" stroke="#D9D9D9" stroke-width="3.4375" stroke-linejoin="round" stroke-miterlimit="10" fill="none"/></g><g clip-path="url(#clip26)"><rect x="2481" y="887" width="20.0002" height="20.9999" fill="#FBBC04"/></g><g clip-path="url(#clip27)"><text fill="#595959" font-family="Arial,Arial_MSFontService,sans-serif" font-weight="400" font-size="41" transform="matrix(1 0 0 1 2509.92 910)">Accepted</text></g><g clip-path="url(#clip28)"><text fill="#595959" font-family="Arial,Arial_MSFontService,sans-serif" font-weight="400" font-size="41" transform="matrix(1 0 0 1 2790.69 911)">8</text></g><g clip-path="url(#clip29)"><text fill="#595959" font-family="Arial,Arial_MSFontService,sans-serif" font-weight="400" font-size="41" transform="matrix(1 0 0 1 2995.66 911)">17</text></g><g clip-path="url(#clip30)"><text fill="#595959" font-family="Arial,Arial_MSFontService,sans-serif" font-weight="400" font-size="41" transform="matrix(1 0 0 1 3223.56 911)">2</text></g><g clip-path="url(#clip31)"><text fill="#595959" font-family="Arial,Arial_MSFontService,sans-serif" font-weight="400" font-size="41" transform="matrix(1 0 0 1 3428.52 911)">30</text></g><g clip-path="url(#clip32)"><text fill="#595959" font-family="Arial,Arial_MSFontService,sans-serif" font-weight="400" font-size="41" transform="matrix(1 0 0 1 3644.95 911)">11</text></g><g clip-path="url(#clip33)"><text fill="#595959" font-family="Arial,Arial_MSFontService,sans-serif" font-weight="400" font-size="41" transform="matrix(1 0 0 1 3872.86 911)">5</text></g><g clip-path="url(#clip34)"><text fill="#595959" font-family="Arial,Arial_MSFontService,sans-serif" font-weight="400" font-size="41" transform="matrix(1 0 0 1 2635.53 713)">0</text></g><g clip-path="url(#clip35)"><text fill="#595959" font-family="Arial,Arial_MSFontService,sans-serif" font-weight="400" font-size="41" transform="matrix(1 0 0 1 2612.59 639)">20</text></g><g clip-path="url(#clip36)"><text fill="#595959" font-family="Arial,Arial_MSFontService,sans-serif" font-weight="400" font-size="41" transform="matrix(1 0 0 1 2612.59 565)">40</text></g><g clip-path="url(#clip37)"><text fill="#595959" font-family="Arial,Arial_MSFontService,sans-serif" font-weight="400" font-size="41" transform="matrix(1 0 0 1 2612.59 490)">60</text></g><g clip-path="url(#clip38)"><text fill="#595959" font-family="Arial,Arial_MSFontService,sans-serif" font-weight="400" font-size="41" transform="matrix(1 0 0 1 2612.59 416)">80</text></g><g clip-path="url(#clip39)"><text fill="#595959" font-family="Arial,Arial_MSFontService,sans-serif" font-weight="400" font-size="41" transform="matrix(1 0 0 1 2589.65 342)">100</text></g><g clip-path="url(#clip40)"><text fill="#595959" font-family="Arial,Arial_MSFontService,sans-serif" font-weight="400" font-size="41" transform="matrix(1 0 0 1 2589.65 268)">120</text></g><g clip-path="url(#clip41)"><text fill="#595959" font-family="Arial,Arial_MSFontService,sans-serif" font-weight="400" font-size="41" transform="matrix(1 0 0 1 2589.65 194)">140</text></g><g clip-path="url(#clip42)"><text fill="#595959" font-family="Arial,Arial_MSFontService,sans-serif" font-weight="400" font-size="41" transform="matrix(1 0 0 1 2589.65 119)">160</text></g><g clip-path="url(#clip43)"><text fill="#595959" font-family="Arial,Arial_MSFontService,sans-serif" font-weight="400" font-size="46" transform="matrix(6.12323e-17 -1 1 6.12323e-17 2489.12 592)">Number of Articles</text></g><g clip-path="url(#clip44)"><text fill="#595959" font-family="Arial,Arial_MSFontService,sans-serif" font-weight="400" font-size="46" transform="matrix(1 0 0 1 3185.35 979)">Digital Libraries</text></g><rect x="2389.5" y="56.4999" width="1654" height="990" stroke="#D9D9D9" stroke-width="3.4375" stroke-linejoin="round" stroke-miterlimit="10" fill="none"/></g></svg>