<svg version="1.1" viewBox="0.0 0.0 600.0 371.0" fill="none" stroke="none" stroke-linecap="square" stroke-miterlimit="10" width="600" height="371" xmlns:xlink="http://www.w3.org/1999/xlink" xmlns="http://www.w3.org/2000/svg"><path fill="#ffffff" d="M0 0L600.0 0L600.0 371.0L0 371.0L0 0Z" fill-rule="nonzero"/><path fill="#4285f4" d="M300.0 54.916668C366.34247 54.916668 424.6671 98.84558 442.98407 162.60931C461.30103 226.37303 435.1829 294.55923 378.95493 329.76917L300.0 203.68333Z" fill-rule="nonzero"/><path fill="#46bdc6" d="M179.27003 116.75924C207.22679 77.929756 252.15327 54.916668 300.0 54.916668L300.0 203.68333Z" fill-rule="nonzero"/><path fill="#ff6d01" d="M200.61436 314.3812C144.07855 263.6228 134.87602 178.41866 179.27003 116.75924L300.0 203.68333Z" fill-rule="nonzero"/><path fill="#34a853" d="M221.04506 329.76917C213.8057 325.23587 206.97021 320.08752 200.61436 314.3812L300.0 203.68333Z" fill-rule="nonzero"/><path fill="#fbbc04" d="M280.84656 351.21185C259.60132 348.4536 239.20241 341.1393 221.04506 329.76917L300.0 203.68333Z" fill-rule="nonzero"/><path fill="#ea4335" d="M378.95493 329.76917C349.72607 348.07227 315.0462 355.65195 280.84656 351.21185L300.0 203.68333Z" fill-rule="nonzero"/><path fill="#1a1a1a" d="M19.675 73.39722L19.675 64.80347L20.8 64.80347L20.8 73.39722L19.675 73.39722ZM22.503124 73.39722L22.503124 64.80347L28.70625 64.80347L28.70625 65.81909L23.64375 65.81909L23.64375 68.44409L28.39375 68.44409L28.39375 69.45972L23.64375 69.45972L23.64375 72.38159L28.909374 72.38159L28.909374 73.39722L22.503124 73.39722ZM30.503124 73.39722L30.503124 64.80347L36.70625 64.80347L36.70625 65.81909L31.64375 65.81909L31.64375 68.44409L36.39375 68.44409L36.39375 69.45972L31.64375 69.45972L31.64375 72.38159L36.909374 72.38159L36.909374 73.39722L30.503124 73.39722ZM38.503124 73.39722L38.503124 64.80347L44.70625 64.80347L44.70625 65.81909L39.64375 65.81909L39.64375 68.44409L44.39375 68.44409L44.39375 69.45972L39.64375 69.45972L39.64375 72.38159L44.909374 72.38159L44.909374 73.39722L38.503124 73.39722ZM49.471874 73.39722L49.471874 64.80347L52.440624 64.80347Q53.440624 64.80347 53.971874 64.92847Q54.70625 65.10034 55.221874 65.53784Q55.909374 66.11597 56.2375 67.02222Q56.58125 67.91284 56.58125 69.05347Q56.58125 70.03784 56.346874 70.78784Q56.128124 71.53784 55.76875 72.03784Q55.409374 72.53784 54.971874 72.81909Q54.55 73.10034 53.95625 73.25659Q53.3625 73.39722 52.58125 73.39722L49.471874 73.39722ZM50.6125 72.38159L52.440624 72.38159Q53.3 72.38159 53.784374 72.22534Q54.26875 72.06909 54.55 71.77222Q54.95625 71.38159 55.175 70.69409Q55.409374 70.00659 55.409374 69.03784Q55.409374 67.69409 54.95625 66.97534Q54.51875 66.24097 53.89375 65.99097Q53.425 65.81909 52.425 65.81909L50.6125 65.81909L50.6125 72.38159ZM58.346874 66.02222L58.346874 64.80347L59.409374 64.80347L59.409374 66.02222L58.346874 66.02222ZM58.346874 73.39722L58.346874 67.17847L59.409374 67.17847L59.409374 73.39722L58.346874 73.39722ZM61.14375 73.91284L62.175 74.06909Q62.2375 74.53784 62.534374 74.75659Q62.925 75.05347 63.596874 75.05347Q64.33125 75.05347 64.72188 74.75659Q65.12813 74.45972 65.26875 73.94409Q65.3625 73.61597 65.34688 72.58472Q64.65938 73.39722 63.628124 73.39722Q62.346874 73.39722 61.64375 72.47534Q60.940624 71.53784 60.940624 70.25659Q60.940624 69.36597 61.253124 68.61597Q61.58125 67.85034 62.190624 67.44409Q62.8 67.03784 63.628124 67.03784Q64.7375 67.03784 65.45625 67.92847L65.45625 67.17847L66.425 67.17847L66.425 72.55347Q66.425 74.00659 66.12813 74.61597Q65.83125 75.22534 65.19063 75.56909Q64.55 75.92847 63.6125 75.92847Q62.503124 75.92847 61.815624 75.42847Q61.128124 74.92847 61.14375 73.91284ZM62.01875 70.17847Q62.01875 71.39722 62.503124 71.95972Q62.9875 72.52222 63.721874 72.52222Q64.45625 72.52222 64.94063 71.95972Q65.44063 71.39722 65.44063 70.20972Q65.44063 69.06909 64.925 68.49097Q64.425 67.91284 63.70625 67.91284Q63.003124 67.91284 62.503124 68.49097Q62.01875 69.05347 62.01875 70.17847ZM68.34688 66.02222L68.34688 64.80347L69.40938 64.80347L69.40938 66.02222L68.34688 66.02222ZM68.34688 73.39722L68.34688 67.17847L69.40938 67.17847L69.40938 73.39722L68.34688 73.39722ZM73.64375 72.45972L73.8 73.38159Q73.34688 73.47534 73.00313 73.47534Q72.425 73.47534 72.1125 73.30347Q71.8 73.11597 71.65938 72.81909Q71.53438 72.52222 71.53438 71.56909L71.53438 67.99097L70.76875 67.99097L70.76875 67.17847L71.53438 67.17847L71.53438 65.63159L72.58125 65.00659L72.58125 67.17847L73.64375 67.17847L73.64375 67.99097L72.58125 67.99097L72.58125 71.63159Q72.58125 72.08472 72.62813 72.20972Q72.69063 72.33472 72.81563 72.41284Q72.94063 72.49097 73.175 72.49097Q73.3625 72.49097 73.64375 72.45972ZM78.40938 72.63159Q77.81563 73.13159 77.26875 73.33472Q76.7375 73.53784 76.1125 73.53784Q75.08125 73.53784 74.53438 73.03784Q73.9875 72.53784 73.9875 71.75659Q73.9875 71.30347 74.19063 70.92847Q74.39375 70.53784 74.7375 70.31909Q75.08125 70.08472 75.50313 69.97534Q75.8 69.88159 76.44063 69.80347Q77.70625 69.66284 78.31563 69.44409Q78.31563 69.22534 78.31563 69.17847Q78.31563 68.52222 78.01875 68.25659Q77.6125 67.91284 76.81563 67.91284Q76.08125 67.91284 75.72188 68.17847Q75.3625 68.42847 75.19063 69.08472L74.15938 68.94409Q74.3 68.28784 74.62813 67.88159Q74.95625 67.47534 75.56563 67.25659Q76.175 67.03784 76.97188 67.03784Q77.76875 67.03784 78.26875 67.22534Q78.76875 67.41284 79.00313 67.69409Q79.2375 67.97534 79.33125 68.41284Q79.37813 68.67847 79.37813 69.38159L79.37813 70.78784Q79.37813 72.25659 79.44063 72.64722Q79.51875 73.03784 79.72188 73.39722L78.6125 73.39722Q78.45625 73.06909 78.40938 72.63159ZM78.31563 70.27222Q77.7375 70.50659 76.59688 70.67847Q75.94063 70.77222 75.675 70.89722Q75.40938 71.00659 75.25313 71.22534Q75.1125 71.44409 75.1125 71.72534Q75.1125 72.14722 75.425 72.42847Q75.75313 72.70972 76.3625 72.70972Q76.97188 72.70972 77.44063 72.44409Q77.925 72.17847 78.14375 71.70972Q78.31563 71.35034 78.31563 70.66284L78.31563 70.27222ZM81.31563 73.39722L81.31563 64.80347L82.37813 64.80347L82.37813 73.39722L81.31563 73.39722ZM87.425 73.39722L87.425 64.80347L88.56563 64.80347L88.56563 72.38159L92.8 72.38159L92.8 73.39722L87.425 73.39722ZM94.34688 66.02222L94.34688 64.80347L95.40938 64.80347L95.40938 66.02222L94.34688 66.02222ZM94.34688 73.39722L94.34688 67.17847L95.40938 67.17847L95.40938 73.39722L94.34688 73.39722ZM98.31563 73.39722L97.33125 73.39722L97.33125 64.80347L98.39375 64.80347L98.39375 67.86597Q99.06563 67.03784 100.09688 67.03784Q100.675 67.03784 101.175 67.27222Q101.69063 67.49097 102.01875 67.91284Q102.3625 68.33472 102.55 68.92847Q102.7375 69.52222 102.7375 70.19409Q102.7375 71.78784 101.94063 72.66284Q101.14375 73.53784 100.05 73.53784Q98.94063 73.53784 98.31563 72.61597L98.31563 73.39722ZM98.3 70.24097Q98.3 71.35034 98.6125 71.85034Q99.1125 72.66284 99.95625 72.66284Q100.64375 72.66284 101.14375 72.06909Q101.65938 71.47534 101.65938 70.27222Q101.65938 69.05347 101.175 68.47534Q100.69063 67.89722 100.00313 67.89722Q99.31563 67.89722 98.8 68.50659Q98.3 69.10034 98.3 70.24097ZM104.33125 73.39722L104.33125 67.17847L105.28438 67.17847L105.28438 68.11597Q105.64375 67.45972 105.94063 67.25659Q106.25313 67.03784 106.62813 67.03784Q107.15938 67.03784 107.70625 67.36597L107.34688 68.35034Q106.95625 68.11597 106.58125 68.11597Q106.22188 68.11597 105.94063 68.33472Q105.675 68.53784 105.56563 68.91284Q105.37813 69.47534 105.37813 70.13159L105.37813 73.39722L104.33125 73.39722ZM112.40938 72.63159Q111.81563 73.13159 111.26875 73.33472Q110.7375 73.53784 110.1125 73.53784Q109.08125 73.53784 108.53438 73.03784Q107.9875 72.53784 107.9875 71.75659Q107.9875 71.30347 108.19063 70.92847Q108.39375 70.53784 108.7375 70.31909Q109.08125 70.08472 109.50313 69.97534Q109.8 69.88159 110.44063 69.80347Q111.70625 69.66284 112.31563 69.44409Q112.31563 69.22534 112.31563 69.17847Q112.31563 68.52222 112.01875 68.25659Q111.6125 67.91284 110.81563 67.91284Q110.08125 67.91284 109.72188 68.17847Q109.3625 68.42847 109.19063 69.08472L108.15938 68.94409Q108.3 68.28784 108.62813 67.88159Q108.95625 67.47534 109.56563 67.25659Q110.175 67.03784 110.97188 67.03784Q111.76875 67.03784 112.26875 67.22534Q112.76875 67.41284 113.00313 67.69409Q113.2375 67.97534 113.33125 68.41284Q113.37813 68.67847 113.37813 69.38159L113.37813 70.78784Q113.37813 72.25659 113.44063 72.64722Q113.51875 73.03784 113.72188 73.39722L112.6125 73.39722Q112.45625 73.06909 112.40938 72.63159ZM112.31563 70.27222Q111.7375 70.50659 110.59688 70.67847Q109.94063 70.77222 109.675 70.89722Q109.40938 71.00659 109.25313 71.22534Q109.1125 71.44409 109.1125 71.72534Q109.1125 72.14722 109.425 72.42847Q109.75313 72.70972 110.3625 72.70972Q110.97188 72.70972 111.44063 72.44409Q111.925 72.17847 112.14375 71.70972Q112.31563 71.35034 112.31563 70.66284L112.31563 70.27222ZM115.33125 73.39722L115.33125 67.17847L116.28438 67.17847L116.28438 68.11597Q116.64375 67.45972 116.94063 67.25659Q117.25313 67.03784 117.62813 67.03784Q118.15938 67.03784 118.70625 67.36597L118.34688 68.35034Q117.95625 68.11597 117.58125 68.11597Q117.22188 68.11597 116.94063 68.33472Q116.675 68.53784 116.56563 68.91284Q116.37813 69.47534 116.37813 70.13159L116.37813 73.39722L115.33125 73.39722ZM119.3 75.78784L119.175 74.80347Q119.51875 74.89722 119.78438 74.89722Q120.12813 74.89722 120.33125 74.77222Q120.55 74.66284 120.69063 74.45972Q120.78438 74.28784 121.01875 73.66284Q121.03438 73.58472 121.1125 73.41284L118.7375 67.17847L119.87813 67.17847L121.175 70.77222Q121.425 71.45972 121.62813 72.22534Q121.81563 71.49097 122.06563 70.80347L123.39375 67.17847L124.44063 67.17847L122.08125 73.50659Q121.69063 74.52222 121.4875 74.91284Q121.20625 75.44409 120.83125 75.67847Q120.47188 75.92847 119.97188 75.92847Q119.675 75.92847 119.3 75.78784Z" fill-rule="nonzero"/><path fill="#9e9e9e" d="M23.01875 90.39722L21.971874 90.39722L21.971874 83.67847Q21.58125 84.03784 20.95625 84.41284Q20.346874 84.77222 19.8625 84.94409L19.8625 83.92847Q20.7375 83.50659 21.39375 82.92847Q22.065624 82.33472 22.346874 81.77222L23.01875 81.77222L23.01875 90.39722ZM26.05 88.14722L27.159374 88.05347Q27.284374 88.86597 27.721874 89.27222Q28.175 89.67847 28.815624 89.67847Q29.565624 89.67847 30.096874 89.10034Q30.628124 88.52222 30.628124 87.58472Q30.628124 86.67847 30.1125 86.16284Q29.6125 85.63159 28.784374 85.63159Q28.284374 85.63159 27.8625 85.86597Q27.45625 86.10034 27.221874 86.45972L26.2375 86.33472L27.065624 81.92847L31.346874 81.92847L31.346874 82.92847L27.909374 82.92847L27.45625 85.24097Q28.221874 84.69409 29.065624 84.69409Q30.190624 84.69409 30.95625 85.47534Q31.7375 86.25659 31.7375 87.49097Q31.7375 88.64722 31.065624 89.50659Q30.2375 90.53784 28.815624 90.53784Q27.64375 90.53784 26.89375 89.88159Q26.159374 89.22534 26.05 88.14722ZM33.64375 90.39722L33.64375 89.19409L34.846874 89.19409L34.846874 90.39722L33.64375 90.39722ZM40.01875 90.39722L38.971874 90.39722L38.971874 83.67847Q38.58125 84.03784 37.95625 84.41284Q37.346874 84.77222 36.8625 84.94409L36.8625 83.92847Q37.7375 83.50659 38.39375 82.92847Q39.065624 82.33472 39.346874 81.77222L40.01875 81.77222L40.01875 90.39722ZM43.253124 83.86597Q43.253124 82.94409 43.70625 82.30347Q44.175 81.66284 45.05 81.66284Q45.8625 81.66284 46.39375 82.24097Q46.925 82.81909 46.925 83.92847Q46.925 85.02222 46.378124 85.61597Q45.846874 86.19409 45.065624 86.19409Q44.284374 86.19409 43.76875 85.61597Q43.253124 85.03784 43.253124 83.86597ZM45.08125 82.38159Q44.690624 82.38159 44.425 82.72534Q44.175 83.06909 44.175 83.97534Q44.175 84.80347 44.425 85.14722Q44.690624 85.47534 45.08125 85.47534Q45.4875 85.47534 45.7375 85.13159Q46.003124 84.78784 46.003124 83.89722Q46.003124 83.05347 45.7375 82.72534Q45.471874 82.38159 45.08125 82.38159ZM45.08125 90.70972L49.784374 81.66284L50.64375 81.66284L45.95625 90.70972L45.08125 90.70972ZM48.8 88.38159Q48.8 87.45972 49.253124 86.81909Q49.721874 86.17847 50.6125 86.17847Q51.425 86.17847 51.95625 86.75659Q52.4875 87.31909 52.4875 88.44409Q52.4875 89.53784 51.940624 90.13159Q51.409374 90.70972 50.6125 90.70972Q49.846874 90.70972 49.315624 90.13159Q48.8 89.55347 48.8 88.38159ZM50.64375 86.89722Q50.2375 86.89722 49.971874 87.24097Q49.721874 87.58472 49.721874 88.49097Q49.721874 89.30347 49.9875 89.64722Q50.253124 89.99097 50.64375 89.99097Q51.034374 89.99097 51.3 89.64722Q51.565624 89.30347 51.565624 88.39722Q51.565624 87.56909 51.3 87.24097Q51.034374 86.89722 50.64375 86.89722Z" fill-rule="nonzero"/><path stroke="#757575" stroke-width="1.0" stroke-linecap="butt" d="M18.55 77.89722L145.23334 77.89722L235.56747 77.89722" fill-rule="nonzero"/><path fill="#9e9e9e" d="M237.56747 77.89722C237.56747 76.79265 236.67204 75.89722 235.56747 75.89722C234.46289 75.89722 233.56747 76.79265 233.56747 77.89722C233.56747 79.001785 234.46289 79.89722 235.56747 79.89722C236.67204 79.89722 237.56747 79.001785 237.56747 77.89722" fill-rule="nonzero"/><path fill="#1a1a1a" d="M19.096874 211.59373L20.159374 211.49998Q20.2375 212.15623 20.51875 212.56248Q20.8 212.96873 21.378124 213.23436Q21.971874 213.48436 22.70625 213.48436Q23.346874 213.48436 23.846874 213.29686Q24.346874 213.09373 24.58125 212.76561Q24.83125 212.42186 24.83125 212.03123Q24.83125 211.62498 24.596874 211.32811Q24.3625 211.01561 23.83125 210.81248Q23.471874 210.67186 22.284374 210.39061Q21.1125 210.10936 20.64375 209.85936Q20.01875 209.53123 19.721874 209.06248Q19.425 208.57811 19.425 207.98436Q19.425 207.34373 19.784374 206.78123Q20.159374 206.20311 20.8625 205.92186Q21.58125 205.62498 22.440624 205.62498Q23.39375 205.62498 24.128124 205.93748Q24.8625 206.23436 25.253124 206.84373Q25.64375 207.43748 25.675 208.18748L24.58125 208.26561Q24.4875 207.45311 23.971874 207.04686Q23.471874 206.62498 22.4875 206.62498Q21.45625 206.62498 20.9875 206.99998Q20.51875 207.37498 20.51875 207.90623Q20.51875 208.37498 20.846874 208.67186Q21.175 208.96873 22.55 209.28123Q23.940624 209.59373 24.45625 209.82811Q25.20625 210.18748 25.565624 210.71873Q25.925 211.23436 25.925 211.93748Q25.925 212.62498 25.534374 213.23436Q25.14375 213.82811 24.409374 214.17186Q23.675 214.49998 22.753124 214.49998Q21.58125 214.49998 20.784374 214.17186Q20.003124 213.82811 19.55 213.14061Q19.1125 212.45311 19.096874 211.59373ZM31.409374 212.07811L32.440624 212.21873Q32.26875 213.28123 31.565624 213.89061Q30.8625 214.49998 29.846874 214.49998Q28.565624 214.49998 27.784374 213.67186Q27.01875 212.82811 27.01875 211.26561Q27.01875 210.26561 27.346874 209.51561Q27.690624 208.74998 28.3625 208.37498Q29.05 207.99998 29.8625 207.99998Q30.8625 207.99998 31.503124 208.51561Q32.159374 209.01561 32.346874 209.96873L31.315624 210.12498Q31.175 209.49998 30.8 209.18748Q30.425 208.85936 29.89375 208.85936Q29.096874 208.85936 28.596874 209.43748Q28.096874 209.99998 28.096874 211.23436Q28.096874 212.49998 28.58125 213.06248Q29.065624 213.62498 29.83125 213.62498Q30.45625 213.62498 30.8625 213.24998Q31.284374 212.87498 31.409374 212.07811ZM32.95625 211.24998Q32.95625 209.51561 33.909374 208.68748Q34.70625 207.99998 35.8625 207.99998Q37.14375 207.99998 37.95625 208.84373Q38.784374 209.67186 38.784374 211.15623Q38.784374 212.35936 38.425 213.04686Q38.065624 213.73436 37.3625 214.12498Q36.675 214.49998 35.8625 214.49998Q34.565624 214.49998 33.753124 213.67186Q32.95625 212.82811 32.95625 211.24998ZM34.034374 211.24998Q34.034374 212.43748 34.55 213.03123Q35.08125 213.62498 35.8625 213.62498Q36.659374 213.62498 37.175 213.03123Q37.690624 212.43748 37.690624 211.21873Q37.690624 210.06248 37.159374 209.46873Q36.64375 208.87498 35.8625 208.87498Q35.08125 208.87498 34.55 209.46873Q34.034374 210.04686 34.034374 211.24998ZM40.346874 216.74998L40.346874 208.14061L41.3 208.14061L41.3 208.93748Q41.64375 208.46873 42.065624 208.23436Q42.503124 207.99998 43.1125 207.99998Q43.909374 207.99998 44.51875 208.40623Q45.128124 208.81248 45.425 209.56248Q45.7375 210.31248 45.7375 211.20311Q45.7375 212.15623 45.39375 212.92186Q45.065624 213.68748 44.409374 214.09373Q43.753124 214.49998 43.034374 214.49998Q42.503124 214.49998 42.08125 214.28123Q41.659374 214.04686 41.39375 213.71873L41.39375 216.74998L40.346874 216.74998ZM41.3 211.28123Q41.3 212.48436 41.784374 213.06248Q42.26875 213.62498 42.95625 213.62498Q43.659374 213.62498 44.159374 213.03123Q44.659374 212.43748 44.659374 211.18748Q44.659374 209.99998 44.175 209.42186Q43.690624 208.82811 43.003124 208.82811Q42.33125 208.82811 41.815624 209.45311Q41.3 210.07811 41.3 211.28123ZM51.425 214.35936L51.425 213.43748Q50.690624 214.49998 49.440624 214.49998Q48.89375 214.49998 48.409374 214.29686Q47.940624 214.07811 47.70625 213.76561Q47.471874 213.43748 47.378124 212.96873Q47.315624 212.67186 47.315624 211.98436L47.315624 208.14061L48.378124 208.14061L48.378124 211.59373Q48.378124 212.40623 48.440624 212.70311Q48.534374 213.10936 48.846874 213.35936Q49.175 213.59373 49.659374 213.59373Q50.128124 213.59373 50.534374 213.35936Q50.95625 213.10936 51.128124 212.68748Q51.315624 212.26561 51.315624 211.46873L51.315624 208.14061L52.3625 208.14061L52.3625 214.35936L51.425 214.35936ZM53.925 212.49998L54.95625 212.34373Q55.05 212.96873 55.440624 213.29686Q55.846874 213.62498 56.58125 213.62498Q57.3 213.62498 57.64375 213.34373Q58.003124 213.04686 58.003124 212.64061Q58.003124 212.28123 57.690624 212.07811Q57.471874 211.93748 56.6125 211.71873Q55.45625 211.42186 55.003124 211.21873Q54.565624 210.99998 54.33125 210.62498Q54.096874 210.24998 54.096874 209.78123Q54.096874 209.37498 54.284374 209.01561Q54.471874 208.65623 54.8 208.42186Q55.05 208.24998 55.471874 208.12498Q55.89375 207.99998 56.39375 207.99998Q57.1125 207.99998 57.659374 208.21873Q58.221874 208.42186 58.4875 208.78123Q58.753124 209.14061 58.846874 209.73436L57.815624 209.87498Q57.753124 209.40623 57.409374 209.14061Q57.08125 208.85936 56.45625 208.85936Q55.7375 208.85936 55.425 209.10936Q55.1125 209.34373 55.1125 209.67186Q55.1125 209.87498 55.2375 210.03123Q55.378124 210.20311 55.64375 210.31248Q55.8 210.37498 56.58125 210.57811Q57.70625 210.89061 58.14375 211.07811Q58.58125 211.26561 58.83125 211.62498Q59.08125 211.98436 59.08125 212.53123Q59.08125 213.06248 58.76875 213.53123Q58.471874 213.98436 57.89375 214.24998Q57.315624 214.49998 56.58125 214.49998Q55.3625 214.49998 54.721874 213.99998Q54.096874 213.48436 53.925 212.49998Z" fill-rule="nonzero"/><path fill="#9e9e9e" d="M24.596874 230.34373L24.596874 231.35936L18.909374 231.35936Q18.909374 230.98436 19.034374 230.62498Q19.253124 230.04686 19.721874 229.48436Q20.20625 228.92186 21.1125 228.18748Q22.51875 227.03123 23.003124 226.35936Q23.503124 225.68748 23.503124 225.09373Q23.503124 224.46873 23.05 224.04686Q22.596874 223.60936 21.878124 223.60936Q21.1125 223.60936 20.659374 224.06248Q20.20625 224.51561 20.190624 225.32811L19.1125 225.21873Q19.221874 223.99998 19.940624 223.37498Q20.675 222.73436 21.909374 222.73436Q23.14375 222.73436 23.8625 223.42186Q24.58125 224.10936 24.58125 225.12498Q24.58125 225.64061 24.3625 226.14061Q24.159374 226.62498 23.659374 227.18748Q23.175 227.73436 22.05 228.68748Q21.096874 229.48436 20.815624 229.78123Q20.55 230.06248 20.378124 230.34373L24.596874 230.34373ZM26.05 229.09373L27.1125 228.95311Q27.284374 229.84373 27.721874 230.24998Q28.159374 230.64061 28.784374 230.64061Q29.534374 230.64061 30.05 230.12498Q30.565624 229.60936 30.565624 228.84373Q30.565624 228.12498 30.08125 227.65623Q29.6125 227.17186 28.878124 227.17186Q28.58125 227.17186 28.128124 227.29686L28.253124 226.35936Q28.3625 226.37498 28.425 226.37498Q29.096874 226.37498 29.628124 226.03123Q30.175 225.67186 30.175 224.93748Q30.175 224.35936 29.784374 223.98436Q29.39375 223.59373 28.76875 223.59373Q28.159374 223.59373 27.7375 223.98436Q27.33125 224.37498 27.221874 225.14061L26.159374 224.95311Q26.346874 223.90623 27.034374 223.32811Q27.721874 222.73436 28.7375 222.73436Q29.440624 222.73436 30.034374 223.04686Q30.628124 223.34373 30.940624 223.85936Q31.253124 224.37498 31.253124 224.96873Q31.253124 225.51561 30.95625 225.98436Q30.659374 226.43748 30.08125 226.70311Q30.83125 226.87498 31.253124 227.43748Q31.675 227.98436 31.675 228.82811Q31.675 229.95311 30.846874 230.73436Q30.034374 231.51561 28.784374 231.51561Q27.659374 231.51561 26.909374 230.84373Q26.159374 230.15623 26.05 229.09373ZM33.64375 231.35936L33.64375 230.15623L34.846874 230.15623L34.846874 231.35936L33.64375 231.35936ZM36.05 229.09373L37.1125 228.95311Q37.284374 229.84373 37.721874 230.24998Q38.159374 230.64061 38.784374 230.64061Q39.534374 230.64061 40.05 230.12498Q40.565624 229.60936 40.565624 228.84373Q40.565624 228.12498 40.08125 227.65623Q39.6125 227.17186 38.878124 227.17186Q38.58125 227.17186 38.128124 227.29686L38.253124 226.35936Q38.3625 226.37498 38.425 226.37498Q39.096874 226.37498 39.628124 226.03123Q40.175 225.67186 40.175 224.93748Q40.175 224.35936 39.784374 223.98436Q39.39375 223.59373 38.76875 223.59373Q38.159374 223.59373 37.7375 223.98436Q37.33125 224.37498 37.221874 225.14061L36.159374 224.95311Q36.346874 223.90623 37.034374 223.32811Q37.721874 222.73436 38.7375 222.73436Q39.440624 222.73436 40.034374 223.04686Q40.628124 223.34373 40.940624 223.85936Q41.253124 224.37498 41.253124 224.96873Q41.253124 225.51561 40.95625 225.98436Q40.659374 226.43748 40.08125 226.70311Q40.83125 226.87498 41.253124 227.43748Q41.675 227.98436 41.675 228.82811Q41.675 229.95311 40.846874 230.73436Q40.034374 231.51561 38.784374 231.51561Q37.659374 231.51561 36.909374 230.84373Q36.159374 230.15623 36.05 229.09373ZM43.253124 224.82811Q43.253124 223.90623 43.70625 223.26561Q44.175 222.62498 45.05 222.62498Q45.8625 222.62498 46.39375 223.20311Q46.925 223.78123 46.925 224.89061Q46.925 225.98436 46.378124 226.57811Q45.846874 227.15623 45.065624 227.15623Q44.284374 227.15623 43.76875 226.57811Q43.253124 225.99998 43.253124 224.82811ZM45.08125 223.34373Q44.690624 223.34373 44.425 223.68748Q44.175 224.03123 44.175 224.93748Q44.175 225.76561 44.425 226.10936Q44.690624 226.43748 45.08125 226.43748Q45.4875 226.43748 45.7375 226.09373Q46.003124 225.74998 46.003124 224.85936Q46.003124 224.01561 45.7375 223.68748Q45.471874 223.34373 45.08125 223.34373ZM45.08125 231.67186L49.784374 222.62498L50.64375 222.62498L45.95625 231.67186L45.08125 231.67186ZM48.8 229.34373Q48.8 228.42186 49.253124 227.78123Q49.721874 227.14061 50.6125 227.14061Q51.425 227.14061 51.95625 227.71873Q52.4875 228.28123 52.4875 229.40623Q52.4875 230.49998 51.940624 231.09373Q51.409374 231.67186 50.6125 231.67186Q49.846874 231.67186 49.315624 231.09373Q48.8 230.51561 48.8 229.34373ZM50.64375 227.85936Q50.2375 227.85936 49.971874 228.20311Q49.721874 228.54686 49.721874 229.45311Q49.721874 230.26561 49.9875 230.60936Q50.253124 230.95311 50.64375 230.95311Q51.034374 230.95311 51.3 230.60936Q51.565624 230.26561 51.565624 229.35936Q51.565624 228.53123 51.3 228.20311Q51.034374 227.85936 50.64375 227.85936Z" fill-rule="nonzero"/><path stroke="#757575" stroke-width="1.0" stroke-linecap="butt" d="M18.55 218.85936L145.23334 218.85936L159.48885 218.85936" fill-rule="nonzero"/><path fill="#9e9e9e" d="M161.48885 218.85936C161.48885 217.75479 160.59341 216.85936 159.48885 216.85936C158.38428 216.85936 157.48885 217.75479 157.48885 218.85936C157.48885 219.96393 158.38428 220.85936 159.48885 220.85936C160.59341 220.85936 161.48885 219.96393 161.48885 218.85936" fill-rule="nonzero"/><path fill="#1a1a1a" d="M19.096874 298.6844L20.159374 298.59064Q20.2375 299.2469 20.51875 299.65314Q20.8 300.0594 21.378124 300.325Q21.971874 300.575 22.70625 300.575Q23.346874 300.575 23.846874 300.3875Q24.346874 300.1844 24.58125 299.85626Q24.83125 299.5125 24.83125 299.1219Q24.83125 298.71564 24.596874 298.41876Q24.3625 298.10626 23.83125 297.90314Q23.471874 297.7625 22.284374 297.48126Q21.1125 297.2 20.64375 296.95Q20.01875 296.6219 19.721874 296.15314Q19.425 295.66876 19.425 295.075Q19.425 294.4344 19.784374 293.8719Q20.159374 293.29376 20.8625 293.0125Q21.58125 292.71564 22.440624 292.71564Q23.39375 292.71564 24.128124 293.02814Q24.8625 293.325 25.253124 293.9344Q25.64375 294.52814 25.675 295.27814L24.58125 295.35626Q24.4875 294.54376 23.971874 294.1375Q23.471874 293.71564 22.4875 293.71564Q21.45625 293.71564 20.9875 294.09064Q20.51875 294.46564 20.51875 294.9969Q20.51875 295.46564 20.846874 295.7625Q21.175 296.0594 22.55 296.3719Q23.940624 296.6844 24.45625 296.91876Q25.20625 297.27814 25.565624 297.8094Q25.925 298.325 25.925 299.02814Q25.925 299.71564 25.534374 300.325Q25.14375 300.91876 24.409374 301.2625Q23.675 301.59064 22.753124 301.59064Q21.58125 301.59064 20.784374 301.2625Q20.003124 300.91876 19.55 300.23126Q19.1125 299.54376 19.096874 298.6844ZM31.409374 299.16876L32.440624 299.3094Q32.26875 300.3719 31.565624 300.98126Q30.8625 301.59064 29.846874 301.59064Q28.565624 301.59064 27.784374 300.7625Q27.01875 299.91876 27.01875 298.35626Q27.01875 297.35626 27.346874 296.60626Q27.690624 295.84064 28.3625 295.46564Q29.05 295.09064 29.8625 295.09064Q30.8625 295.09064 31.503124 295.60626Q32.159374 296.10626 32.346874 297.0594L31.315624 297.21564Q31.175 296.59064 30.8 296.27814Q30.425 295.95 29.89375 295.95Q29.096874 295.95 28.596874 296.52814Q28.096874 297.09064 28.096874 298.325Q28.096874 299.59064 28.58125 300.15314Q29.065624 300.71564 29.83125 300.71564Q30.45625 300.71564 30.8625 300.34064Q31.284374 299.96564 31.409374 299.16876ZM33.346874 294.075L33.346874 292.85626L34.409374 292.85626L34.409374 294.075L33.346874 294.075ZM33.346874 301.45L33.346874 295.23126L34.409374 295.23126L34.409374 301.45L33.346874 301.45ZM40.596874 299.45L41.690624 299.575Q41.440624 300.52814 40.7375 301.0594Q40.034374 301.59064 38.95625 301.59064Q37.596874 301.59064 36.784374 300.7469Q35.9875 299.90314 35.9875 298.3875Q35.9875 296.825 36.8 295.96564Q37.6125 295.09064 38.89375 295.09064Q40.14375 295.09064 40.925 295.9344Q41.721874 296.77814 41.721874 298.325Q41.721874 298.41876 41.721874 298.60626L37.08125 298.60626Q37.14375 299.6375 37.659374 300.1844Q38.175 300.71564 38.95625 300.71564Q39.534374 300.71564 39.940624 300.41876Q40.3625 300.10626 40.596874 299.45ZM37.14375 297.7469L40.6125 297.7469Q40.55 296.95 40.221874 296.5594Q39.70625 295.95 38.909374 295.95Q38.175 295.95 37.675 296.4344Q37.190624 296.91876 37.14375 297.7469ZM43.346874 301.45L43.346874 295.23126L44.284374 295.23126L44.284374 296.10626Q44.971874 295.09064 46.26875 295.09064Q46.83125 295.09064 47.3 295.29376Q47.784374 295.4969 48.01875 295.825Q48.253124 296.15314 48.346874 296.59064Q48.39375 296.8875 48.39375 297.6219L48.39375 301.45L47.346874 301.45L47.346874 297.66876Q47.346874 297.0125 47.221874 296.7Q47.096874 296.3875 46.784374 296.2Q46.471874 295.9969 46.05 295.9969Q45.378124 295.9969 44.878124 296.4344Q44.39375 296.85626 44.39375 298.04376L44.39375 301.45L43.346874 301.45ZM54.409374 299.16876L55.440624 299.3094Q55.26875 300.3719 54.565624 300.98126Q53.8625 301.59064 52.846874 301.59064Q51.565624 301.59064 50.784374 300.7625Q50.01875 299.91876 50.01875 298.35626Q50.01875 297.35626 50.346874 296.60626Q50.690624 295.84064 51.3625 295.46564Q52.05 295.09064 52.8625 295.09064Q53.8625 295.09064 54.503124 295.60626Q55.159374 296.10626 55.346874 297.0594L54.315624 297.21564Q54.175 296.59064 53.8 296.27814Q53.425 295.95 52.89375 295.95Q52.096874 295.95 51.596874 296.52814Q51.096874 297.09064 51.096874 298.325Q51.096874 299.59064 51.58125 300.15314Q52.065624 300.71564 52.83125 300.71564Q53.45625 300.71564 53.8625 300.34064Q54.284374 299.96564 54.409374 299.16876ZM60.596874 299.45L61.690624 299.575Q61.440624 300.52814 60.7375 301.0594Q60.034374 301.59064 58.95625 301.59064Q57.596874 301.59064 56.784374 300.7469Q55.9875 299.90314 55.9875 298.3875Q55.9875 296.825 56.8 295.96564Q57.6125 295.09064 58.89375 295.09064Q60.14375 295.09064 60.925 295.9344Q61.721874 296.77814 61.721874 298.325Q61.721874 298.41876 61.721874 298.60626L57.08125 298.60626Q57.14375 299.6375 57.659374 300.1844Q58.175 300.71564 58.95625 300.71564Q59.534374 300.71564 59.940624 300.41876Q60.3625 300.10626 60.596874 299.45ZM57.14375 297.7469L60.6125 297.7469Q60.55 296.95 60.221874 296.5594Q59.70625 295.95 58.909374 295.95Q58.175 295.95 57.675 296.4344Q57.190624 296.91876 57.14375 297.7469ZM69.34688 300.4969Q68.97188 300.9344 68.50313 301.2Q68.03438 301.46564 67.55 301.46564Q67.03438 301.46564 66.53438 301.16876Q66.05 300.85626 65.7375 300.23126Q65.44063 299.59064 65.44063 298.84064Q65.44063 297.90314 65.90938 296.96564Q66.39375 296.02814 67.09688 295.5594Q67.8 295.09064 68.47188 295.09064Q68.9875 295.09064 69.44063 295.3719Q69.90938 295.6375 70.2375 296.16876L70.44063 295.2625L71.4875 295.2625L70.64375 299.2Q70.47188 300.0125 70.47188 300.10626Q70.47188 300.2625 70.58125 300.3875Q70.70625 300.4969 70.87813 300.4969Q71.19063 300.4969 71.69063 300.1375Q72.3625 299.66876 72.75313 298.8875Q73.14375 298.09064 73.14375 297.2469Q73.14375 296.27814 72.64375 295.4344Q72.14375 294.575 71.14375 294.075Q70.15938 293.5594 68.95625 293.5594Q67.58125 293.5594 66.44063 294.2Q65.31563 294.84064 64.69063 296.04376Q64.06563 297.23126 64.06563 298.60626Q64.06563 300.04376 64.69063 301.09064Q65.31563 302.1219 66.4875 302.60626Q67.675 303.10626 69.1125 303.10626Q70.64375 303.10626 71.675 302.59064Q72.72188 302.075 73.2375 301.34064L74.3 301.34064Q74.00313 301.95 73.26875 302.59064Q72.55 303.23126 71.55 303.60626Q70.55 303.98126 69.12813 303.98126Q67.83125 303.98126 66.72188 303.6375Q65.62813 303.3094 64.84688 302.6375Q64.08125 301.96564 63.690624 301.09064Q63.20625 299.98126 63.20625 298.7Q63.20625 297.27814 63.784374 295.98126Q64.50313 294.3875 65.81563 293.54376Q67.12813 292.7 69.00313 292.7Q70.45625 292.7 71.6125 293.29376Q72.76875 293.8875 73.44063 295.075Q74.01875 296.075 74.01875 297.27814Q74.01875 298.96564 72.81563 300.29376Q71.75313 301.48126 70.4875 301.48126Q70.08125 301.48126 69.83125 301.35626Q69.58125 301.23126 69.47188 300.9969Q69.39375 300.85626 69.34688 300.4969ZM66.51875 298.90314Q66.51875 299.71564 66.89375 300.16876Q67.28438 300.60626 67.76875 300.60626Q68.09688 300.60626 68.45625 300.40314Q68.83125 300.2 69.15938 299.825Q69.4875 299.4344 69.69063 298.84064Q69.90938 298.2469 69.90938 297.65314Q69.90938 296.85626 69.50313 296.41876Q69.1125 295.96564 68.55 295.96564Q68.175 295.96564 67.84688 296.16876Q67.51875 296.35626 67.20625 296.77814Q66.89375 297.2 66.70625 297.8094Q66.51875 298.40314 66.51875 298.90314ZM75.47188 301.45L75.47188 292.85626L78.44063 292.85626Q79.44063 292.85626 79.97188 292.98126Q80.70625 293.15314 81.22188 293.59064Q81.90938 294.16876 82.2375 295.075Q82.58125 295.96564 82.58125 297.10626Q82.58125 298.09064 82.34688 298.84064Q82.12813 299.59064 81.76875 300.09064Q81.40938 300.59064 80.97188 300.8719Q80.55 301.15314 79.95625 301.3094Q79.3625 301.45 78.58125 301.45L75.47188 301.45ZM76.6125 300.4344L78.44063 300.4344Q79.3 300.4344 79.78438 300.27814Q80.26875 300.1219 80.55 299.825Q80.95625 299.4344 81.175 298.7469Q81.40938 298.0594 81.40938 297.09064Q81.40938 295.7469 80.95625 295.02814Q80.51875 294.29376 79.89375 294.04376Q79.425 293.8719 78.425 293.8719L76.6125 293.8719L76.6125 300.4344ZM84.34688 294.075L84.34688 292.85626L85.40938 292.85626L85.40938 294.075L84.34688 294.075ZM84.34688 301.45L84.34688 295.23126L85.40938 295.23126L85.40938 301.45L84.34688 301.45ZM87.33125 301.45L87.33125 295.23126L88.28438 295.23126L88.28438 296.16876Q88.64375 295.5125 88.94063 295.3094Q89.25313 295.09064 89.62813 295.09064Q90.15938 295.09064 90.70625 295.41876L90.34688 296.40314Q89.95625 296.16876 89.58125 296.16876Q89.22188 296.16876 88.94063 296.3875Q88.675 296.59064 88.56563 296.96564Q88.37813 297.52814 88.37813 298.1844L88.37813 301.45L87.33125 301.45ZM95.59688 299.45L96.69063 299.575Q96.44063 300.52814 95.7375 301.0594Q95.03438 301.59064 93.95625 301.59064Q92.59688 301.59064 91.78438 300.7469Q90.9875 299.90314 90.9875 298.3875Q90.9875 296.825 91.8 295.96564Q92.6125 295.09064 93.89375 295.09064Q95.14375 295.09064 95.925 295.9344Q96.72188 296.77814 96.72188 298.325Q96.72188 298.41876 96.72188 298.60626L92.08125 298.60626Q92.14375 299.6375 92.65938 300.1844Q93.175 300.71564 93.95625 300.71564Q94.53438 300.71564 94.94063 300.41876Q95.3625 300.10626 95.59688 299.45ZM92.14375 297.7469L95.6125 297.7469Q95.55 296.95 95.22188 296.5594Q94.70625 295.95 93.90938 295.95Q93.175 295.95 92.675 296.4344Q92.19063 296.91876 92.14375 297.7469ZM102.40938 299.16876L103.44063 299.3094Q103.26875 300.3719 102.56563 300.98126Q101.8625 301.59064 100.84688 301.59064Q99.56563 301.59064 98.78438 300.7625Q98.01875 299.91876 98.01875 298.35626Q98.01875 297.35626 98.34688 296.60626Q98.69063 295.84064 99.3625 295.46564Q100.05 295.09064 100.8625 295.09064Q101.8625 295.09064 102.50313 295.60626Q103.15938 296.10626 103.34688 297.0594L102.31563 297.21564Q102.175 296.59064 101.8 296.27814Q101.425 295.95 100.89375 295.95Q100.09688 295.95 99.59688 296.52814Q99.09688 297.09064 99.09688 298.325Q99.09688 299.59064 99.58125 300.15314Q100.06563 300.71564 100.83125 300.71564Q101.45625 300.71564 101.8625 300.34064Q102.28438 299.96564 102.40938 299.16876ZM106.64375 300.5125L106.8 301.4344Q106.34688 301.52814 106.00313 301.52814Q105.425 301.52814 105.1125 301.35626Q104.8 301.16876 104.65938 300.8719Q104.53438 300.575 104.53438 299.6219L104.53438 296.04376L103.76875 296.04376L103.76875 295.23126L104.53438 295.23126L104.53438 293.6844L105.58125 293.0594L105.58125 295.23126L106.64375 295.23126L106.64375 296.04376L105.58125 296.04376L105.58125 299.6844Q105.58125 300.1375 105.62813 300.2625Q105.69063 300.3875 105.81563 300.46564Q105.94063 300.54376 106.175 300.54376Q106.3625 300.54376 106.64375 300.5125Z" fill-rule="nonzero"/><path fill="#9e9e9e" d="M24.596874 317.4344L24.596874 318.45L18.909374 318.45Q18.909374 318.075 19.034374 317.71564Q19.253124 317.1375 19.721874 316.575Q20.20625 316.0125 21.1125 315.27814Q22.51875 314.1219 23.003124 313.45Q23.503124 312.77814 23.503124 312.1844Q23.503124 311.5594 23.05 311.1375Q22.596874 310.7 21.878124 310.7Q21.1125 310.7 20.659374 311.15314Q20.20625 311.60626 20.190624 312.41876L19.1125 312.3094Q19.221874 311.09064 19.940624 310.46564Q20.675 309.825 21.909374 309.825Q23.14375 309.825 23.8625 310.5125Q24.58125 311.2 24.58125 312.21564Q24.58125 312.73126 24.3625 313.23126Q24.159374 313.71564 23.659374 314.27814Q23.175 314.825 22.05 315.77814Q21.096874 316.575 20.815624 316.8719Q20.55 317.15314 20.378124 317.4344L24.596874 317.4344ZM26.64375 318.45L26.64375 317.2469L27.846874 317.2469L27.846874 318.45L26.64375 318.45ZM29.1125 310.98126L29.1125 309.96564L34.675 309.96564L34.675 310.79376Q33.8625 311.66876 33.05 313.1219Q32.253124 314.5594 31.815624 316.09064Q31.4875 317.16876 31.409374 318.45L30.315624 318.45Q30.33125 317.4344 30.70625 315.9969Q31.096874 314.5594 31.8 313.23126Q32.51875 311.90314 33.33125 310.98126L29.1125 310.98126ZM36.253124 311.91876Q36.253124 310.9969 36.70625 310.35626Q37.175 309.71564 38.05 309.71564Q38.8625 309.71564 39.39375 310.29376Q39.925 310.8719 39.925 311.98126Q39.925 313.075 39.378124 313.66876Q38.846874 314.2469 38.065624 314.2469Q37.284374 314.2469 36.76875 313.66876Q36.253124 313.09064 36.253124 311.91876ZM38.08125 310.4344Q37.690624 310.4344 37.425 310.77814Q37.175 311.1219 37.175 312.02814Q37.175 312.85626 37.425 313.2Q37.690624 313.52814 38.08125 313.52814Q38.4875 313.52814 38.7375 313.1844Q39.003124 312.84064 39.003124 311.95Q39.003124 311.10626 38.7375 310.77814Q38.471874 310.4344 38.08125 310.4344ZM38.08125 318.7625L42.784374 309.71564L43.64375 309.71564L38.95625 318.7625L38.08125 318.7625ZM41.8 316.4344Q41.8 315.5125 42.253124 314.8719Q42.721874 314.23126 43.6125 314.23126Q44.425 314.23126 44.95625 314.8094Q45.4875 315.3719 45.4875 316.4969Q45.4875 317.59064 44.940624 318.1844Q44.409374 318.7625 43.6125 318.7625Q42.846874 318.7625 42.315624 318.1844Q41.8 317.60626 41.8 316.4344ZM43.64375 314.95Q43.2375 314.95 42.971874 315.29376Q42.721874 315.6375 42.721874 316.54376Q42.721874 317.35626 42.9875 317.7Q43.253124 318.04376 43.64375 318.04376Q44.034374 318.04376 44.3 317.7Q44.565624 317.35626 44.565624 316.45Q44.565624 315.6219 44.3 315.29376Q44.034374 314.95 43.64375 314.95Z" fill-rule="nonzero"/><path stroke="#757575" stroke-width="1.0" stroke-linecap="butt" d="M18.55 305.95L145.23334 305.95L214.97348 316.5735" fill-rule="nonzero"/><path fill="#9e9e9e" d="M216.97348 316.5735C216.97348 315.46893 216.07805 314.5735 214.97348 314.5735C213.86891 314.5735 212.97348 315.46893 212.97348 316.5735C212.97348 317.67807 213.86891 318.5735 214.97348 318.5735C216.07805 318.5735 216.97348 317.67807 216.97348 316.5735" fill-rule="nonzero"/><path fill="#1a1a1a" d="M18.534374 332.45L21.83125 323.85626L23.05 323.85626L26.565624 332.45L25.284374 332.45L24.26875 329.84064L20.690624 329.84064L19.7375 332.45L18.534374 332.45ZM21.01875 328.91876L23.925 328.91876L23.034374 326.54376Q22.6125 325.46564 22.425 324.7625Q22.253124 325.59064 21.95625 326.40314L21.01875 328.91876ZM32.6125 329.4344L33.7375 329.73126Q33.378124 331.1219 32.45625 331.85626Q31.534374 332.59064 30.190624 332.59064Q28.8 332.59064 27.925 332.02814Q27.05 331.46564 26.596874 330.40314Q26.14375 329.325 26.14375 328.09064Q26.14375 326.7469 26.659374 325.7469Q27.175 324.7469 28.1125 324.23126Q29.065624 323.71564 30.20625 323.71564Q31.4875 323.71564 32.3625 324.3719Q33.253124 325.02814 33.596874 326.21564L32.471874 326.48126Q32.175 325.54376 31.596874 325.1219Q31.034374 324.6844 30.175 324.6844Q29.190624 324.6844 28.51875 325.16876Q27.8625 325.6375 27.58125 326.4344Q27.315624 327.23126 27.315624 328.09064Q27.315624 329.1844 27.628124 329.9969Q27.95625 330.8094 28.628124 331.21564Q29.3 331.6219 30.096874 331.6219Q31.05 331.6219 31.70625 331.075Q32.378124 330.52814 32.6125 329.4344ZM35.440624 332.45L35.440624 323.85626L37.159374 323.85626L39.190624 329.9344Q39.471874 330.79376 39.596874 331.21564Q39.7375 330.7469 40.05 329.84064L42.1125 323.85626L43.64375 323.85626L43.64375 332.45L42.55 332.45L42.55 325.2625L40.05 332.45L39.01875 332.45L36.534374 325.1375L36.534374 332.45L35.440624 332.45ZM47.471874 332.45L47.471874 323.85626L50.440624 323.85626Q51.440624 323.85626 51.971874 323.98126Q52.70625 324.15314 53.221874 324.59064Q53.909374 325.16876 54.2375 326.075Q54.58125 326.96564 54.58125 328.10626Q54.58125 329.09064 54.346874 329.84064Q54.128124 330.59064 53.76875 331.09064Q53.409374 331.59064 52.971874 331.8719Q52.55 332.15314 51.95625 332.3094Q51.3625 332.45 50.58125 332.45L47.471874 332.45ZM48.6125 331.4344L50.440624 331.4344Q51.3 331.4344 51.784374 331.27814Q52.26875 331.1219 52.55 330.825Q52.95625 330.4344 53.175 329.7469Q53.409374 329.0594 53.409374 328.09064Q53.409374 326.7469 52.95625 326.02814Q52.51875 325.29376 51.89375 325.04376Q51.425 324.8719 50.425 324.8719L48.6125 324.8719L48.6125 331.4344ZM56.346874 325.075L56.346874 323.85626L57.409374 323.85626L57.409374 325.075L56.346874 325.075ZM56.346874 332.45L56.346874 326.23126L57.409374 326.23126L57.409374 332.45L56.346874 332.45ZM59.14375 332.96564L60.175 333.1219Q60.2375 333.59064 60.534374 333.8094Q60.925 334.10626 61.596874 334.10626Q62.33125 334.10626 62.721874 333.8094Q63.128124 333.5125 63.26875 332.9969Q63.3625 332.66876 63.346874 331.6375Q62.659374 332.45 61.628124 332.45Q60.346874 332.45 59.64375 331.52814Q58.940624 330.59064 58.940624 329.3094Q58.940624 328.41876 59.253124 327.66876Q59.58125 326.90314 60.190624 326.4969Q60.8 326.09064 61.628124 326.09064Q62.7375 326.09064 63.45625 326.98126L63.45625 326.23126L64.425 326.23126L64.425 331.60626Q64.425 333.0594 64.12813 333.66876Q63.83125 334.27814 63.190624 334.6219Q62.55 334.98126 61.6125 334.98126Q60.503124 334.98126 59.815624 334.48126Q59.128124 333.98126 59.14375 332.96564ZM60.01875 329.23126Q60.01875 330.45 60.503124 331.0125Q60.9875 331.575 61.721874 331.575Q62.45625 331.575 62.940624 331.0125Q63.440624 330.45 63.440624 329.2625Q63.440624 328.1219 62.925 327.54376Q62.425 326.96564 61.70625 326.96564Q61.003124 326.96564 60.503124 327.54376Q60.01875 328.10626 60.01875 329.23126ZM66.34688 325.075L66.34688 323.85626L67.40938 323.85626L67.40938 325.075L66.34688 325.075ZM66.34688 332.45L66.34688 326.23126L67.40938 326.23126L67.40938 332.45L66.34688 332.45ZM71.64375 331.5125L71.8 332.4344Q71.34688 332.52814 71.00313 332.52814Q70.425 332.52814 70.1125 332.35626Q69.8 332.16876 69.65938 331.8719Q69.53438 331.575 69.53438 330.6219L69.53438 327.04376L68.76875 327.04376L68.76875 326.23126L69.53438 326.23126L69.53438 324.6844L70.58125 324.0594L70.58125 326.23126L71.64375 326.23126L71.64375 327.04376L70.58125 327.04376L70.58125 330.6844Q70.58125 331.1375 70.62813 331.2625Q70.69063 331.3875 70.81563 331.46564Q70.94063 331.54376 71.175 331.54376Q71.3625 331.54376 71.64375 331.5125ZM76.40938 331.6844Q75.81563 332.1844 75.26875 332.3875Q74.7375 332.59064 74.1125 332.59064Q73.08125 332.59064 72.53438 332.09064Q71.9875 331.59064 71.9875 330.8094Q71.9875 330.35626 72.19063 329.98126Q72.39375 329.59064 72.7375 329.3719Q73.08125 329.1375 73.50313 329.02814Q73.8 328.9344 74.44063 328.85626Q75.70625 328.71564 76.31563 328.4969Q76.31563 328.27814 76.31563 328.23126Q76.31563 327.575 76.01875 327.3094Q75.6125 326.96564 74.81563 326.96564Q74.08125 326.96564 73.72188 327.23126Q73.3625 327.48126 73.19063 328.1375L72.15938 327.9969Q72.3 327.34064 72.62813 326.9344Q72.95625 326.52814 73.56563 326.3094Q74.175 326.09064 74.97188 326.09064Q75.76875 326.09064 76.26875 326.27814Q76.76875 326.46564 77.00313 326.7469Q77.2375 327.02814 77.33125 327.46564Q77.37813 327.73126 77.37813 328.4344L77.37813 329.84064Q77.37813 331.3094 77.44063 331.7Q77.51875 332.09064 77.72188 332.45L76.6125 332.45Q76.45625 332.1219 76.40938 331.6844ZM76.31563 329.325Q75.7375 329.5594 74.59688 329.73126Q73.94063 329.825 73.675 329.95Q73.40938 330.0594 73.25313 330.27814Q73.1125 330.4969 73.1125 330.77814Q73.1125 331.2 73.425 331.48126Q73.75313 331.7625 74.3625 331.7625Q74.97188 331.7625 75.44063 331.4969Q75.925 331.23126 76.14375 330.7625Q76.31563 330.40314 76.31563 329.71564L76.31563 329.325ZM79.31563 332.45L79.31563 323.85626L80.37813 323.85626L80.37813 332.45L79.31563 332.45ZM85.425 332.45L85.425 323.85626L86.56563 323.85626L86.56563 331.4344L90.8 331.4344L90.8 332.45L85.425 332.45ZM92.34688 325.075L92.34688 323.85626L93.40938 323.85626L93.40938 325.075L92.34688 325.075ZM92.34688 332.45L92.34688 326.23126L93.40938 326.23126L93.40938 332.45L92.34688 332.45ZM96.31563 332.45L95.33125 332.45L95.33125 323.85626L96.39375 323.85626L96.39375 326.91876Q97.06563 326.09064 98.09688 326.09064Q98.675 326.09064 99.175 326.325Q99.69063 326.54376 100.01875 326.96564Q100.3625 327.3875 100.55 327.98126Q100.7375 328.575 100.7375 329.2469Q100.7375 330.84064 99.94063 331.71564Q99.14375 332.59064 98.05 332.59064Q96.94063 332.59064 96.31563 331.66876L96.31563 332.45ZM96.3 329.29376Q96.3 330.40314 96.6125 330.90314Q97.1125 331.71564 97.95625 331.71564Q98.64375 331.71564 99.14375 331.1219Q99.65938 330.52814 99.65938 329.325Q99.65938 328.10626 99.175 327.52814Q98.69063 326.95 98.00313 326.95Q97.31563 326.95 96.8 327.5594Q96.3 328.15314 96.3 329.29376ZM102.33125 332.45L102.33125 326.23126L103.28438 326.23126L103.28438 327.16876Q103.64375 326.5125 103.94063 326.3094Q104.25313 326.09064 104.62813 326.09064Q105.15938 326.09064 105.70625 326.41876L105.34688 327.40314Q104.95625 327.16876 104.58125 327.16876Q104.22188 327.16876 103.94063 327.3875Q103.675 327.59064 103.56563 327.96564Q103.37813 328.52814 103.37813 329.1844L103.37813 332.45L102.33125 332.45ZM110.40938 331.6844Q109.81563 332.1844 109.26875 332.3875Q108.7375 332.59064 108.1125 332.59064Q107.08125 332.59064 106.53438 332.09064Q105.9875 331.59064 105.9875 330.8094Q105.9875 330.35626 106.19063 329.98126Q106.39375 329.59064 106.7375 329.3719Q107.08125 329.1375 107.50313 329.02814Q107.8 328.9344 108.44063 328.85626Q109.70625 328.71564 110.31563 328.4969Q110.31563 328.27814 110.31563 328.23126Q110.31563 327.575 110.01875 327.3094Q109.6125 326.96564 108.81563 326.96564Q108.08125 326.96564 107.72188 327.23126Q107.3625 327.48126 107.19063 328.1375L106.15938 327.9969Q106.3 327.34064 106.62813 326.9344Q106.95625 326.52814 107.56563 326.3094Q108.175 326.09064 108.97188 326.09064Q109.76875 326.09064 110.26875 326.27814Q110.76875 326.46564 111.00313 326.7469Q111.2375 327.02814 111.33125 327.46564Q111.37813 327.73126 111.37813 328.4344L111.37813 329.84064Q111.37813 331.3094 111.44063 331.7Q111.51875 332.09064 111.72188 332.45L110.6125 332.45Q110.45625 332.1219 110.40938 331.6844ZM110.31563 329.325Q109.7375 329.5594 108.59688 329.73126Q107.94063 329.825 107.675 329.95Q107.40938 330.0594 107.25313 330.27814Q107.1125 330.4969 107.1125 330.77814Q107.1125 331.2 107.425 331.48126Q107.75313 331.7625 108.3625 331.7625Q108.97188 331.7625 109.44063 331.4969Q109.925 331.23126 110.14375 330.7625Q110.31563 330.40314 110.31563 329.71564L110.31563 329.325ZM113.33125 332.45L113.33125 326.23126L114.28438 326.23126L114.28438 327.16876Q114.64375 326.5125 114.94063 326.3094Q115.25313 326.09064 115.62813 326.09064Q116.15938 326.09064 116.70625 326.41876L116.34688 327.40314Q115.95625 327.16876 115.58125 327.16876Q115.22188 327.16876 114.94063 327.3875Q114.675 327.59064 114.56563 327.96564Q114.37813 328.52814 114.37813 329.1844L114.37813 332.45L113.33125 332.45ZM117.3 334.84064L117.175 333.85626Q117.51875 333.95 117.78438 333.95Q118.12813 333.95 118.33125 333.825Q118.55 333.71564 118.69063 333.5125Q118.78438 333.34064 119.01875 332.71564Q119.03438 332.6375 119.1125 332.46564L116.7375 326.23126L117.87813 326.23126L119.175 329.825Q119.425 330.5125 119.62813 331.27814Q119.81563 330.54376 120.06563 329.85626L121.39375 326.23126L122.44063 326.23126L120.08125 332.5594Q119.69063 333.575 119.4875 333.96564Q119.20625 334.4969 118.83125 334.73126Q118.47188 334.98126 117.97188 334.98126Q117.675 334.98126 117.3 334.84064Z" fill-rule="nonzero"/><path fill="#9e9e9e" d="M24.51875 342.96564L23.471874 343.04376Q23.33125 342.41876 23.08125 342.1375Q22.64375 341.6844 22.01875 341.6844Q21.51875 341.6844 21.128124 341.96564Q20.64375 342.34064 20.346874 343.04376Q20.065624 343.73126 20.05 345.0125Q20.425 344.4344 20.971874 344.15314Q21.534374 343.8719 22.14375 343.8719Q23.190624 343.8719 23.925 344.65314Q24.675 345.4344 24.675 346.65314Q24.675 347.46564 24.315624 348.16876Q23.971874 348.85626 23.3625 349.23126Q22.753124 349.59064 21.9875 349.59064Q20.659374 349.59064 19.83125 348.6219Q19.003124 347.65314 19.003124 345.4344Q19.003124 342.9344 19.925 341.8094Q20.721874 340.825 22.08125 340.825Q23.096874 340.825 23.7375 341.40314Q24.39375 341.96564 24.51875 342.96564ZM20.221874 346.66876Q20.221874 347.21564 20.440624 347.71564Q20.675 348.2 21.08125 348.46564Q21.503124 348.73126 21.971874 348.73126Q22.628124 348.73126 23.1125 348.2Q23.596874 347.65314 23.596874 346.73126Q23.596874 345.84064 23.1125 345.325Q22.64375 344.8094 21.925 344.8094Q21.20625 344.8094 20.70625 345.325Q20.221874 345.84064 20.221874 346.66876ZM26.64375 349.45L26.64375 348.2469L27.846874 348.2469L27.846874 349.45L26.64375 349.45ZM30.675 344.79376Q30.01875 344.54376 29.690624 344.10626Q29.378124 343.65314 29.378124 343.04376Q29.378124 342.10626 30.05 341.46564Q30.7375 340.825 31.846874 340.825Q32.971874 340.825 33.659374 341.48126Q34.346874 342.1375 34.346874 343.075Q34.346874 343.66876 34.034374 344.10626Q33.721874 344.54376 33.08125 344.79376Q33.878124 345.04376 34.284374 345.6219Q34.690624 346.2 34.690624 346.9969Q34.690624 348.09064 33.909374 348.84064Q33.14375 349.59064 31.8625 349.59064Q30.596874 349.59064 29.815624 348.84064Q29.034374 348.09064 29.034374 346.96564Q29.034374 346.1219 29.45625 345.5594Q29.89375 344.9969 30.675 344.79376ZM30.45625 342.9969Q30.45625 343.60626 30.846874 343.9969Q31.253124 344.3875 31.878124 344.3875Q32.4875 344.3875 32.878124 344.0125Q33.26875 343.6219 33.26875 343.0594Q33.26875 342.48126 32.8625 342.09064Q32.45625 341.6844 31.8625 341.6844Q31.253124 341.6844 30.846874 342.075Q30.45625 342.46564 30.45625 342.9969ZM30.128124 346.96564Q30.128124 347.41876 30.33125 347.84064Q30.55 348.2625 30.971874 348.4969Q31.39375 348.73126 31.878124 348.73126Q32.628124 348.73126 33.1125 348.2469Q33.6125 347.7625 33.6125 347.0125Q33.6125 346.2469 33.1125 345.7469Q32.6125 345.2469 31.846874 345.2469Q31.096874 345.2469 30.6125 345.7469Q30.128124 346.23126 30.128124 346.96564ZM36.253124 342.91876Q36.253124 341.9969 36.70625 341.35626Q37.175 340.71564 38.05 340.71564Q38.8625 340.71564 39.39375 341.29376Q39.925 341.8719 39.925 342.98126Q39.925 344.075 39.378124 344.66876Q38.846874 345.2469 38.065624 345.2469Q37.284374 345.2469 36.76875 344.66876Q36.253124 344.09064 36.253124 342.91876ZM38.08125 341.4344Q37.690624 341.4344 37.425 341.77814Q37.175 342.1219 37.175 343.02814Q37.175 343.85626 37.425 344.2Q37.690624 344.52814 38.08125 344.52814Q38.4875 344.52814 38.7375 344.1844Q39.003124 343.84064 39.003124 342.95Q39.003124 342.10626 38.7375 341.77814Q38.471874 341.4344 38.08125 341.4344ZM38.08125 349.7625L42.784374 340.71564L43.64375 340.71564L38.95625 349.7625L38.08125 349.7625ZM41.8 347.4344Q41.8 346.5125 42.253124 345.8719Q42.721874 345.23126 43.6125 345.23126Q44.425 345.23126 44.95625 345.8094Q45.4875 346.3719 45.4875 347.4969Q45.4875 348.59064 44.940624 349.1844Q44.409374 349.7625 43.6125 349.7625Q42.846874 349.7625 42.315624 349.1844Q41.8 348.60626 41.8 347.4344ZM43.64375 345.95Q43.2375 345.95 42.971874 346.29376Q42.721874 346.6375 42.721874 347.54376Q42.721874 348.35626 42.9875 348.7Q43.253124 349.04376 43.64375 349.04376Q44.034374 349.04376 44.3 348.7Q44.565624 348.35626 44.565624 347.45Q44.565624 346.6219 44.3 346.29376Q44.034374 345.95 43.64375 345.95Z" fill-rule="nonzero"/><path stroke="#757575" stroke-width="1.0" stroke-linecap="butt" d="M18.55 336.95L145.23334 336.95L252.29845 336.71814" fill-rule="nonzero"/><path fill="#9e9e9e" d="M254.29845 336.71814C254.29845 335.6136 253.40302 334.71814 252.29845 334.71814C251.19388 334.71814 250.29845 335.6136 250.29845 336.71814C250.29845 337.82272 251.19388 338.71814 252.29845 338.71814C253.40302 338.71814 254.29845 337.82272 254.29845 336.71814" fill-rule="nonzero"/><path fill="#1a1a1a" d="M480.575 160.16301L480.575 151.56926L481.7 151.56926L481.7 160.16301L480.575 160.16301ZM482.9969 157.39738L484.0594 157.30363Q484.1375 157.95988 484.41876 158.36613Q484.7 158.77238 485.27814 159.03801Q485.8719 159.28801 486.60626 159.28801Q487.2469 159.28801 487.7469 159.10051Q488.2469 158.89738 488.48126 158.56926Q488.73126 158.22551 488.73126 157.83488Q488.73126 157.42863 488.4969 157.13176Q488.2625 156.81926 487.73126 156.61613Q487.3719 156.47551 486.1844 156.19426Q485.0125 155.91301 484.54376 155.66301Q483.91876 155.33488 483.6219 154.86613Q483.325 154.38176 483.325 153.78801Q483.325 153.14738 483.6844 152.58488Q484.0594 152.00676 484.7625 151.72551Q485.48126 151.42863 486.34064 151.42863Q487.29376 151.42863 488.02814 151.74113Q488.7625 152.03801 489.15314 152.64738Q489.54376 153.24113 489.575 153.99113L488.48126 154.06926Q488.3875 153.25676 487.8719 152.85051Q487.3719 152.42863 486.3875 152.42863Q485.35626 152.42863 484.8875 152.80363Q484.41876 153.17863 484.41876 153.70988Q484.41876 154.17863 484.7469 154.47551Q485.075 154.77238 486.45 155.08488Q487.84064 155.39738 488.35626 155.63176Q489.10626 155.99113 489.46564 156.52238Q489.825 157.03801 489.825 157.74113Q489.825 158.42863 489.4344 159.03801Q489.04376 159.63176 488.3094 159.97551Q487.575 160.30363 486.65314 160.30363Q485.48126 160.30363 484.6844 159.97551Q483.90314 159.63176 483.45 158.94426Q483.0125 158.25676 482.9969 157.39738ZM491.575 160.16301L491.575 151.56926L492.7 151.56926L492.7 160.16301L491.575 160.16301ZM498.8719 160.16301L496.59064 151.56926L497.7625 151.56926L499.075 157.20988Q499.27814 158.08488 499.4344 158.95988Q499.7625 157.58488 499.825 157.36613L501.45 151.56926L502.825 151.56926L504.0594 155.91301Q504.5125 157.53801 504.73126 158.95988Q504.8875 158.14738 505.15314 157.08488L506.4969 151.56926L507.6375 151.56926L505.29376 160.16301L504.1844 160.16301L502.3875 153.61613Q502.15314 152.80363 502.10626 152.61613Q501.98126 153.19426 501.85626 153.61613L500.04376 160.16301L498.8719 160.16301ZM512.4969 158.16301L513.59064 158.28801Q513.34064 159.24113 512.6375 159.77238Q511.9344 160.30363 510.85626 160.30363Q509.4969 160.30363 508.6844 159.45988Q507.8875 158.61613 507.8875 157.10051Q507.8875 155.53801 508.7 154.67863Q509.5125 153.80363 510.79376 153.80363Q512.04376 153.80363 512.825 154.64738Q513.6219 155.49113 513.6219 157.03801Q513.6219 157.13176 513.6219 157.31926L508.98126 157.31926Q509.04376 158.35051 509.5594 158.89738Q510.075 159.42863 510.85626 159.42863Q511.4344 159.42863 511.84064 159.13176Q512.2625 158.81926 512.4969 158.16301ZM509.04376 156.45988L512.5125 156.45988Q512.45 155.66301 512.1219 155.27238Q511.60626 154.66301 510.8094 154.66301Q510.075 154.66301 509.575 155.14738Q509.09064 155.63176 509.04376 156.45988ZM516.21564 160.16301L515.23126 160.16301L515.23126 151.56926L516.29376 151.56926L516.29376 154.63176Q516.96564 153.80363 517.9969 153.80363Q518.575 153.80363 519.075 154.03801Q519.59064 154.25676 519.91876 154.67863Q520.2625 155.10051 520.45 155.69426Q520.6375 156.28801 520.6375 156.95988Q520.6375 158.55363 519.84064 159.42863Q519.04376 160.30363 517.95 160.30363Q516.84064 160.30363 516.21564 159.38176L516.21564 160.16301ZM516.2 157.00676Q516.2 158.11613 516.5125 158.61613Q517.0125 159.42863 517.85626 159.42863Q518.54376 159.42863 519.04376 158.83488Q519.5594 158.24113 519.5594 157.03801Q519.5594 155.81926 519.075 155.24113Q518.59064 154.66301 517.90314 154.66301Q517.21564 154.66301 516.7 155.27238Q516.2 155.86613 516.2 157.00676ZM524.85626 157.05363Q524.85626 155.31926 525.8094 154.49113Q526.60626 153.80363 527.7625 153.80363Q529.04376 153.80363 529.85626 154.64738Q530.6844 155.47551 530.6844 156.95988Q530.6844 158.16301 530.325 158.85051Q529.96564 159.53801 529.2625 159.92863Q528.575 160.30363 527.7625 160.30363Q526.46564 160.30363 525.65314 159.47551Q524.85626 158.63176 524.85626 157.05363ZM525.9344 157.05363Q525.9344 158.24113 526.45 158.83488Q526.98126 159.42863 527.7625 159.42863Q528.5594 159.42863 529.075 158.83488Q529.59064 158.24113 529.59064 157.02238Q529.59064 155.86613 529.0594 155.27238Q528.54376 154.67863 527.7625 154.67863Q526.98126 154.67863 526.45 155.27238Q525.9344 155.85051 525.9344 157.05363ZM532.4969 160.16301L532.4969 154.75676L531.5594 154.75676L531.5594 153.94426L532.4969 153.94426L532.4969 153.27238Q532.4969 152.64738 532.60626 152.35051Q532.7625 151.92863 533.1375 151.67863Q533.52814 151.42863 534.21564 151.42863Q534.66876 151.42863 535.2 151.53801L535.04376 152.44426Q534.71564 152.39738 534.41876 152.39738Q533.9344 152.39738 533.73126 152.60051Q533.54376 152.80363 533.54376 153.36613L533.54376 153.94426L534.7625 153.94426L534.7625 154.75676L533.54376 154.75676L533.54376 160.16301L532.4969 160.16301ZM537.9969 157.39738L539.0594 157.30363Q539.1375 157.95988 539.41876 158.36613Q539.7 158.77238 540.27814 159.03801Q540.8719 159.28801 541.60626 159.28801Q542.2469 159.28801 542.7469 159.10051Q543.2469 158.89738 543.48126 158.56926Q543.73126 158.22551 543.73126 157.83488Q543.73126 157.42863 543.4969 157.13176Q543.2625 156.81926 542.73126 156.61613Q542.3719 156.47551 541.1844 156.19426Q540.0125 155.91301 539.54376 155.66301Q538.91876 155.33488 538.6219 154.86613Q538.325 154.38176 538.325 153.78801Q538.325 153.14738 538.6844 152.58488Q539.0594 152.00676 539.7625 151.72551Q540.48126 151.42863 541.34064 151.42863Q542.29376 151.42863 543.02814 151.74113Q543.7625 152.03801 544.15314 152.64738Q544.54376 153.24113 544.575 153.99113L543.48126 154.06926Q543.3875 153.25676 542.8719 152.85051Q542.3719 152.42863 541.3875 152.42863Q540.35626 152.42863 539.8875 152.80363Q539.41876 153.17863 539.41876 153.70988Q539.41876 154.17863 539.7469 154.47551Q540.075 154.77238 541.45 155.08488Q542.84064 155.39738 543.35626 155.63176Q544.10626 155.99113 544.46564 156.52238Q544.825 157.03801 544.825 157.74113Q544.825 158.42863 544.4344 159.03801Q544.04376 159.63176 543.3094 159.97551Q542.575 160.30363 541.65314 160.30363Q540.48126 160.30363 539.6844 159.97551Q538.90314 159.63176 538.45 158.94426Q538.0125 158.25676 537.9969 157.39738ZM550.3094 157.88176L551.34064 158.02238Q551.16876 159.08488 550.46564 159.69426Q549.7625 160.30363 548.7469 160.30363Q547.46564 160.30363 546.6844 159.47551Q545.91876 158.63176 545.91876 157.06926Q545.91876 156.06926 546.2469 155.31926Q546.59064 154.55363 547.2625 154.17863Q547.95 153.80363 548.7625 153.80363Q549.7625 153.80363 550.40314 154.31926Q551.0594 154.81926 551.2469 155.77238L550.21564 155.92863Q550.075 155.30363 549.7 154.99113Q549.325 154.66301 548.79376 154.66301Q547.9969 154.66301 547.4969 155.24113Q546.9969 155.80363 546.9969 157.03801Q546.9969 158.30363 547.48126 158.86613Q547.96564 159.42863 548.73126 159.42863Q549.35626 159.42863 549.7625 159.05363Q550.1844 158.67863 550.3094 157.88176ZM552.2469 152.78801L552.2469 151.56926L553.3094 151.56926L553.3094 152.78801L552.2469 152.78801ZM552.2469 160.16301L552.2469 153.94426L553.3094 153.94426L553.3094 160.16301L552.2469 160.16301ZM559.4969 158.16301L560.59064 158.28801Q560.34064 159.24113 559.6375 159.77238Q558.9344 160.30363 557.85626 160.30363Q556.4969 160.30363 555.6844 159.45988Q554.8875 158.61613 554.8875 157.10051Q554.8875 155.53801 555.7 154.67863Q556.5125 153.80363 557.79376 153.80363Q559.04376 153.80363 559.825 154.64738Q560.6219 155.49113 560.6219 157.03801Q560.6219 157.13176 560.6219 157.31926L555.98126 157.31926Q556.04376 158.35051 556.5594 158.89738Q557.075 159.42863 557.85626 159.42863Q558.4344 159.42863 558.84064 159.13176Q559.2625 158.81926 559.4969 158.16301ZM556.04376 156.45988L559.5125 156.45988Q559.45 155.66301 559.1219 155.27238Q558.60626 154.66301 557.8094 154.66301Q557.075 154.66301 556.575 155.14738Q556.09064 155.63176 556.04376 156.45988ZM562.2469 160.16301L562.2469 153.94426L563.1844 153.94426L563.1844 154.81926Q563.8719 153.80363 565.16876 153.80363Q565.73126 153.80363 566.2 154.00676Q566.6844 154.20988 566.91876 154.53801Q567.15314 154.86613 567.2469 155.30363Q567.29376 155.60051 567.29376 156.33488L567.29376 160.16301L566.2469 160.16301L566.2469 156.38176Q566.2469 155.72551 566.1219 155.41301Q565.9969 155.10051 565.6844 154.91301Q565.3719 154.70988 564.95 154.70988Q564.27814 154.70988 563.77814 155.14738Q563.29376 155.56926 563.29376 156.75676L563.29376 160.16301L562.2469 160.16301ZM573.3094 157.88176L574.34064 158.02238Q574.16876 159.08488 573.46564 159.69426Q572.7625 160.30363 571.7469 160.30363Q570.46564 160.30363 569.6844 159.47551Q568.91876 158.63176 568.91876 157.06926Q568.91876 156.06926 569.2469 155.31926Q569.59064 154.55363 570.2625 154.17863Q570.95 153.80363 571.7625 153.80363Q572.7625 153.80363 573.40314 154.31926Q574.0594 154.81926 574.2469 155.77238L573.21564 155.92863Q573.075 155.30363 572.7 154.99113Q572.325 154.66301 571.79376 154.66301Q570.9969 154.66301 570.4969 155.24113Q569.9969 155.80363 569.9969 157.03801Q569.9969 158.30363 570.48126 158.86613Q570.96564 159.42863 571.73126 159.42863Q572.35626 159.42863 572.7625 159.05363Q573.1844 158.67863 573.3094 157.88176ZM579.4969 158.16301L580.59064 158.28801Q580.34064 159.24113 579.6375 159.77238Q578.9344 160.30363 577.85626 160.30363Q576.4969 160.30363 575.6844 159.45988Q574.8875 158.61613 574.8875 157.10051Q574.8875 155.53801 575.7 154.67863Q576.5125 153.80363 577.79376 153.80363Q579.04376 153.80363 579.825 154.64738Q580.6219 155.49113 580.6219 157.03801Q580.6219 157.13176 580.6219 157.31926L575.98126 157.31926Q576.04376 158.35051 576.5594 158.89738Q577.075 159.42863 577.85626 159.42863Q578.4344 159.42863 578.84064 159.13176Q579.2625 158.81926 579.4969 158.16301ZM576.04376 156.45988L579.5125 156.45988Q579.45 155.66301 579.1219 155.27238Q578.60626 154.66301 577.8094 154.66301Q577.075 154.66301 576.575 155.14738Q576.09064 155.63176 576.04376 156.45988Z" fill-rule="nonzero"/><path fill="#9e9e9e" d="M550.325 177.16301L550.325 175.10051L546.60626 175.10051L546.60626 174.13176L550.52814 168.56926L551.3875 168.56926L551.3875 174.13176L552.54376 174.13176L552.54376 175.10051L551.3875 175.10051L551.3875 177.16301L550.325 177.16301ZM550.325 174.13176L550.325 170.27238L547.6375 174.13176L550.325 174.13176ZM557.91876 177.16301L556.8719 177.16301L556.8719 170.44426Q556.48126 170.80363 555.85626 171.17863Q555.2469 171.53801 554.7625 171.70988L554.7625 170.69426Q555.6375 170.27238 556.29376 169.69426Q556.96564 169.10051 557.2469 168.53801L557.91876 168.53801L557.91876 177.16301ZM561.54376 177.16301L561.54376 175.95988L562.7469 175.95988L562.7469 177.16301L561.54376 177.16301ZM567.91876 177.16301L566.8719 177.16301L566.8719 170.44426Q566.48126 170.80363 565.85626 171.17863Q565.2469 171.53801 564.7625 171.70988L564.7625 170.69426Q565.6375 170.27238 566.29376 169.69426Q566.96564 169.10051 567.2469 168.53801L567.91876 168.53801L567.91876 177.16301ZM571.15314 170.63176Q571.15314 169.70988 571.60626 169.06926Q572.075 168.42863 572.95 168.42863Q573.7625 168.42863 574.29376 169.00676Q574.825 169.58488 574.825 170.69426Q574.825 171.78801 574.27814 172.38176Q573.7469 172.95988 572.96564 172.95988Q572.1844 172.95988 571.66876 172.38176Q571.15314 171.80363 571.15314 170.63176ZM572.98126 169.14738Q572.59064 169.14738 572.325 169.49113Q572.075 169.83488 572.075 170.74113Q572.075 171.56926 572.325 171.91301Q572.59064 172.24113 572.98126 172.24113Q573.3875 172.24113 573.6375 171.89738Q573.90314 171.55363 573.90314 170.66301Q573.90314 169.81926 573.6375 169.49113Q573.3719 169.14738 572.98126 169.14738ZM572.98126 177.47551L577.6844 168.42863L578.54376 168.42863L573.85626 177.47551L572.98126 177.47551ZM576.7 175.14738Q576.7 174.22551 577.15314 173.58488Q577.6219 172.94426 578.5125 172.94426Q579.325 172.94426 579.85626 173.52238Q580.3875 174.08488 580.3875 175.20988Q580.3875 176.30363 579.84064 176.89738Q579.3094 177.47551 578.5125 177.47551Q577.7469 177.47551 577.21564 176.89738Q576.7 176.31926 576.7 175.14738ZM578.54376 173.66301Q578.1375 173.66301 577.8719 174.00676Q577.6219 174.35051 577.6219 175.25676Q577.6219 176.06926 577.8875 176.41301Q578.15314 176.75676 578.54376 176.75676Q578.9344 176.75676 579.2 176.41301Q579.46564 176.06926 579.46564 175.16301Q579.46564 174.33488 579.2 174.00676Q578.9344 173.66301 578.54376 173.66301Z" fill-rule="nonzero"/><path stroke="#757575" stroke-width="1.0" stroke-linecap="butt" d="M581.45 164.66301L454.76666 164.66301L435.83487 164.66301" fill-rule="nonzero"/><path fill="#9e9e9e" d="M437.83487 164.66301C437.83487 163.55844 436.93945 162.66301 435.83487 162.66301C434.73032 162.66301 433.83487 163.55844 433.83487 164.66301C433.83487 165.76758 434.73032 166.66301 435.83487 166.66301C436.93945 166.66301 437.83487 165.76758 437.83487 164.66301" fill-rule="nonzero"/><path fill="#1a1a1a" d="M508.9969 329.6844L510.0594 329.59064Q510.1375 330.2469 510.41876 330.65314Q510.7 331.0594 511.27814 331.325Q511.8719 331.575 512.60626 331.575Q513.2469 331.575 513.7469 331.3875Q514.2469 331.1844 514.48126 330.85626Q514.73126 330.5125 514.73126 330.1219Q514.73126 329.71564 514.4969 329.41876Q514.2625 329.10626 513.73126 328.90314Q513.3719 328.7625 512.1844 328.48126Q511.0125 328.2 510.54376 327.95Q509.91876 327.6219 509.6219 327.15314Q509.325 326.66876 509.325 326.075Q509.325 325.4344 509.6844 324.8719Q510.0594 324.29376 510.7625 324.0125Q511.48126 323.71564 512.34064 323.71564Q513.29376 323.71564 514.02814 324.02814Q514.7625 324.325 515.15314 324.9344Q515.54376 325.52814 515.575 326.27814L514.48126 326.35626Q514.3875 325.54376 513.8719 325.1375Q513.3719 324.71564 512.3875 324.71564Q511.35626 324.71564 510.8875 325.09064Q510.41876 325.46564 510.41876 325.9969Q510.41876 326.46564 510.7469 326.7625Q511.075 327.0594 512.45 327.3719Q513.84064 327.6844 514.35626 327.91876Q515.10626 328.27814 515.46564 328.8094Q515.825 329.325 515.825 330.02814Q515.825 330.71564 515.4344 331.325Q515.04376 331.91876 514.3094 332.2625Q513.575 332.59064 512.65314 332.59064Q511.48126 332.59064 510.6844 332.2625Q509.90314 331.91876 509.45 331.23126Q509.0125 330.54376 508.9969 329.6844ZM517.2469 334.84064L517.2469 326.23126L518.2 326.23126L518.2 327.02814Q518.54376 326.5594 518.96564 326.325Q519.40314 326.09064 520.0125 326.09064Q520.8094 326.09064 521.41876 326.4969Q522.02814 326.90314 522.325 327.65314Q522.6375 328.40314 522.6375 329.29376Q522.6375 330.2469 522.29376 331.0125Q521.96564 331.77814 521.3094 332.1844Q520.65314 332.59064 519.9344 332.59064Q519.40314 332.59064 518.98126 332.3719Q518.5594 332.1375 518.29376 331.8094L518.29376 334.84064L517.2469 334.84064ZM518.2 329.3719Q518.2 330.575 518.6844 331.15314Q519.16876 331.71564 519.85626 331.71564Q520.5594 331.71564 521.0594 331.1219Q521.5594 330.52814 521.5594 329.27814Q521.5594 328.09064 521.075 327.5125Q520.59064 326.91876 519.90314 326.91876Q519.23126 326.91876 518.71564 327.54376Q518.2 328.16876 518.2 329.3719ZM524.23126 332.45L524.23126 326.23126L525.1844 326.23126L525.1844 327.16876Q525.54376 326.5125 525.84064 326.3094Q526.15314 326.09064 526.52814 326.09064Q527.0594 326.09064 527.60626 326.41876L527.2469 327.40314Q526.85626 327.16876 526.48126 327.16876Q526.1219 327.16876 525.84064 327.3875Q525.575 327.59064 525.46564 327.96564Q525.27814 328.52814 525.27814 329.1844L525.27814 332.45L524.23126 332.45ZM528.2469 325.075L528.2469 323.85626L529.3094 323.85626L529.3094 325.075L528.2469 325.075ZM528.2469 332.45L528.2469 326.23126L529.3094 326.23126L529.3094 332.45L528.2469 332.45ZM531.2469 332.45L531.2469 326.23126L532.1844 326.23126L532.1844 327.10626Q532.8719 326.09064 534.16876 326.09064Q534.73126 326.09064 535.2 326.29376Q535.6844 326.4969 535.91876 326.825Q536.15314 327.15314 536.2469 327.59064Q536.29376 327.8875 536.29376 328.6219L536.29376 332.45L535.2469 332.45L535.2469 328.66876Q535.2469 328.0125 535.1219 327.7Q534.9969 327.3875 534.6844 327.2Q534.3719 326.9969 533.95 326.9969Q533.27814 326.9969 532.77814 327.4344Q532.29376 327.85626 532.29376 329.04376L532.29376 332.45L531.2469 332.45ZM538.04376 332.96564L539.075 333.1219Q539.1375 333.59064 539.4344 333.8094Q539.825 334.10626 540.4969 334.10626Q541.23126 334.10626 541.6219 333.8094Q542.02814 333.5125 542.16876 332.9969Q542.2625 332.66876 542.2469 331.6375Q541.5594 332.45 540.52814 332.45Q539.2469 332.45 538.54376 331.52814Q537.84064 330.59064 537.84064 329.3094Q537.84064 328.41876 538.15314 327.66876Q538.48126 326.90314 539.09064 326.4969Q539.7 326.09064 540.52814 326.09064Q541.6375 326.09064 542.35626 326.98126L542.35626 326.23126L543.325 326.23126L543.325 331.60626Q543.325 333.0594 543.02814 333.66876Q542.73126 334.27814 542.09064 334.6219Q541.45 334.98126 540.5125 334.98126Q539.40314 334.98126 538.71564 334.48126Q538.02814 333.98126 538.04376 332.96564ZM538.91876 329.23126Q538.91876 330.45 539.40314 331.0125Q539.8875 331.575 540.6219 331.575Q541.35626 331.575 541.84064 331.0125Q542.34064 330.45 542.34064 329.2625Q542.34064 328.1219 541.825 327.54376Q541.325 326.96564 540.60626 326.96564Q539.90314 326.96564 539.40314 327.54376Q538.91876 328.10626 538.91876 329.23126ZM549.4969 330.45L550.59064 330.575Q550.34064 331.52814 549.6375 332.0594Q548.9344 332.59064 547.85626 332.59064Q546.4969 332.59064 545.6844 331.7469Q544.8875 330.90314 544.8875 329.3875Q544.8875 327.825 545.7 326.96564Q546.5125 326.09064 547.79376 326.09064Q549.04376 326.09064 549.825 326.9344Q550.6219 327.77814 550.6219 329.325Q550.6219 329.41876 550.6219 329.60626L545.98126 329.60626Q546.04376 330.6375 546.5594 331.1844Q547.075 331.71564 547.85626 331.71564Q548.4344 331.71564 548.84064 331.41876Q549.2625 331.10626 549.4969 330.45ZM546.04376 328.7469L549.5125 328.7469Q549.45 327.95 549.1219 327.5594Q548.60626 326.95 547.8094 326.95Q547.075 326.95 546.575 327.4344Q546.09064 327.91876 546.04376 328.7469ZM552.23126 332.45L552.23126 326.23126L553.1844 326.23126L553.1844 327.16876Q553.54376 326.5125 553.84064 326.3094Q554.15314 326.09064 554.52814 326.09064Q555.0594 326.09064 555.60626 326.41876L555.2469 327.40314Q554.85626 327.16876 554.48126 327.16876Q554.1219 327.16876 553.84064 327.3875Q553.575 327.59064 553.46564 327.96564Q553.27814 328.52814 553.27814 329.1844L553.27814 332.45L552.23126 332.45ZM559.325 332.45L559.325 323.85626L560.46564 323.85626L560.46564 331.4344L564.7 331.4344L564.7 332.45L559.325 332.45ZM566.2469 325.075L566.2469 323.85626L567.3094 323.85626L567.3094 325.075L566.2469 325.075ZM566.2469 332.45L566.2469 326.23126L567.3094 326.23126L567.3094 332.45L566.2469 332.45ZM569.2469 332.45L569.2469 326.23126L570.1844 326.23126L570.1844 327.10626Q570.8719 326.09064 572.16876 326.09064Q572.73126 326.09064 573.2 326.29376Q573.6844 326.4969 573.91876 326.825Q574.15314 327.15314 574.2469 327.59064Q574.29376 327.8875 574.29376 328.6219L574.29376 332.45L573.2469 332.45L573.2469 328.66876Q573.2469 328.0125 573.1219 327.7Q572.9969 327.3875 572.6844 327.2Q572.3719 326.9969 571.95 326.9969Q571.27814 326.9969 570.77814 327.4344Q570.29376 327.85626 570.29376 329.04376L570.29376 332.45L569.2469 332.45ZM576.2469 332.45L576.2469 323.85626L577.3094 323.85626L577.3094 328.7625L579.79376 326.23126L581.16876 326.23126L578.77814 328.52814L581.40314 332.45L580.10626 332.45L578.04376 329.2625L577.3094 329.98126L577.3094 332.45L576.2469 332.45Z" fill-rule="nonzero"/><path fill="#9e9e9e" d="M550.91876 349.45L549.8719 349.45L549.8719 342.73126Q549.48126 343.09064 548.85626 343.46564Q548.2469 343.825 547.7625 343.9969L547.7625 342.98126Q548.6375 342.5594 549.29376 341.98126Q549.96564 341.3875 550.2469 340.825L550.91876 340.825L550.91876 349.45ZM557.91876 349.45L556.8719 349.45L556.8719 342.73126Q556.48126 343.09064 555.85626 343.46564Q555.2469 343.825 554.7625 343.9969L554.7625 342.98126Q555.6375 342.5594 556.29376 341.98126Q556.96564 341.3875 557.2469 340.825L557.91876 340.825L557.91876 349.45ZM561.54376 349.45L561.54376 348.2469L562.7469 348.2469L562.7469 349.45L561.54376 349.45ZM563.95 345.21564Q563.95 343.6844 564.2625 342.7625Q564.575 341.825 565.1844 341.325Q565.8094 340.825 566.7469 340.825Q567.4344 340.825 567.95 341.10626Q568.48126 341.3875 568.825 341.91876Q569.16876 342.4344 569.35626 343.1844Q569.54376 343.9344 569.54376 345.21564Q569.54376 346.73126 569.23126 347.65314Q568.9344 348.575 568.3094 349.09064Q567.7 349.59064 566.7469 349.59064Q565.5125 349.59064 564.79376 348.7Q563.95 347.6375 563.95 345.21564ZM565.02814 345.21564Q565.02814 347.325 565.52814 348.02814Q566.02814 348.73126 566.7469 348.73126Q567.48126 348.73126 567.96564 348.02814Q568.46564 347.325 568.46564 345.21564Q568.46564 343.09064 567.96564 342.40314Q567.48126 341.7 566.73126 341.7Q566.0125 341.7 565.575 342.3094Q565.02814 343.09064 565.02814 345.21564ZM571.15314 342.91876Q571.15314 341.9969 571.60626 341.35626Q572.075 340.71564 572.95 340.71564Q573.7625 340.71564 574.29376 341.29376Q574.825 341.8719 574.825 342.98126Q574.825 344.075 574.27814 344.66876Q573.7469 345.2469 572.96564 345.2469Q572.1844 345.2469 571.66876 344.66876Q571.15314 344.09064 571.15314 342.91876ZM572.98126 341.4344Q572.59064 341.4344 572.325 341.77814Q572.075 342.1219 572.075 343.02814Q572.075 343.85626 572.325 344.2Q572.59064 344.52814 572.98126 344.52814Q573.3875 344.52814 573.6375 344.1844Q573.90314 343.84064 573.90314 342.95Q573.90314 342.10626 573.6375 341.77814Q573.3719 341.4344 572.98126 341.4344ZM572.98126 349.7625L577.6844 340.71564L578.54376 340.71564L573.85626 349.7625L572.98126 349.7625ZM576.7 347.4344Q576.7 346.5125 577.15314 345.8719Q577.6219 345.23126 578.5125 345.23126Q579.325 345.23126 579.85626 345.8094Q580.3875 346.3719 580.3875 347.4969Q580.3875 348.59064 579.84064 349.1844Q579.3094 349.7625 578.5125 349.7625Q577.7469 349.7625 577.21564 349.1844Q576.7 348.60626 576.7 347.4344ZM578.54376 345.95Q578.1375 345.95 577.8719 346.29376Q577.6219 346.6375 577.6219 347.54376Q577.6219 348.35626 577.8875 348.7Q578.15314 349.04376 578.54376 349.04376Q578.9344 349.04376 579.2 348.7Q579.46564 348.35626 579.46564 347.45Q579.46564 346.6219 579.2 346.29376Q578.9344 345.95 578.54376 345.95Z" fill-rule="nonzero"/><path stroke="#757575" stroke-width="1.0" stroke-linecap="butt" d="M581.45 336.95L454.76666 336.95L330.17654 341.7524" fill-rule="nonzero"/><path fill="#9e9e9e" d="M332.17654 341.7524C332.17654 340.64786 331.28113 339.7524 330.17654 339.7524C329.072 339.7524 328.17654 340.64786 328.17654 341.7524C328.17654 342.857 329.072 343.7524 330.17654 343.7524C331.28113 343.7524 332.17654 342.857 332.17654 341.7524" fill-rule="nonzero"/><path fill="#757575" d="M30.315624 32.534374L32.20625 33.003124Q31.6125 35.346874 30.065624 36.58125Q28.51875 37.8 26.26875 37.8Q23.95625 37.8 22.503124 36.8625Q21.065624 35.909374 20.3 34.128124Q19.55 32.33125 19.55 30.284374Q19.55 28.05 20.39375 26.39375Q21.253124 24.721874 22.83125 23.8625Q24.409374 22.9875 26.3 22.9875Q28.45625 22.9875 29.909374 24.08125Q31.378124 25.175 31.95625 27.159374L30.096874 27.596874Q29.596874 26.034374 28.64375 25.33125Q27.70625 24.6125 26.26875 24.6125Q24.6125 24.6125 23.503124 25.409374Q22.39375 26.190624 21.940624 27.534374Q21.503124 28.8625 21.503124 30.26875Q21.503124 32.096874 22.034374 33.471874Q22.565624 34.83125 23.690624 35.503124Q24.815624 36.175 26.1125 36.175Q27.70625 36.175 28.815624 35.253124Q29.925 34.33125 30.315624 32.534374ZM33.8625 37.55L33.8625 23.2375L35.628124 23.2375L35.628124 28.3625Q36.8625 26.940624 38.7375 26.940624Q39.878124 26.940624 40.721874 27.39375Q41.58125 27.846874 41.940624 28.659374Q42.315624 29.45625 42.315624 30.971874L42.315624 37.55L40.565624 37.55L40.565624 30.971874Q40.565624 29.659374 39.9875 29.065624Q39.409374 28.45625 38.378124 28.45625Q37.596874 28.45625 36.89375 28.8625Q36.20625 29.26875 35.909374 29.971874Q35.628124 30.659374 35.628124 31.878124L35.628124 37.55L33.8625 37.55ZM50.64375 36.26875Q49.659374 37.096874 48.753124 37.440624Q47.846874 37.784374 46.815624 37.784374Q45.1125 37.784374 44.190624 36.95625Q43.26875 36.1125 43.26875 34.815624Q43.26875 34.05 43.6125 33.425Q43.971874 32.8 44.534374 32.425Q45.096874 32.034374 45.8 31.83125Q46.315624 31.70625 47.3625 31.565624Q49.4875 31.315624 50.4875 30.971874Q50.503124 30.6125 50.503124 30.503124Q50.503124 29.440624 50.003124 28.9875Q49.33125 28.39375 48.003124 28.39375Q46.753124 28.39375 46.159374 28.83125Q45.58125 29.26875 45.3 30.378124L43.58125 30.14375Q43.815624 29.034374 44.346874 28.3625Q44.878124 27.675 45.89375 27.315624Q46.909374 26.940624 48.253124 26.940624Q49.58125 26.940624 50.409374 27.253124Q51.2375 27.565624 51.628124 28.05Q52.01875 28.51875 52.175 29.2375Q52.26875 29.690624 52.26875 30.8625L52.26875 33.20625Q52.26875 35.659374 52.378124 36.315624Q52.4875 36.95625 52.83125 37.55L50.9875 37.55Q50.721874 37.003124 50.64375 36.26875ZM50.4875 32.346874Q49.534374 32.7375 47.6125 33.003124Q46.534374 33.159374 46.08125 33.3625Q45.64375 33.55 45.39375 33.925Q45.14375 34.3 45.14375 34.76875Q45.14375 35.471874 45.675 35.940624Q46.20625 36.409374 47.2375 36.409374Q48.253124 36.409374 49.034374 35.971874Q49.83125 35.51875 50.20625 34.753124Q50.4875 34.14375 50.4875 32.9875L50.4875 32.346874ZM54.846874 37.55L54.846874 27.175L56.425 27.175L56.425 28.753124Q57.034374 27.64375 57.55 27.3Q58.065624 26.940624 58.675 26.940624Q59.565624 26.940624 60.4875 27.503124L59.878124 29.14375Q59.2375 28.753124 58.596874 28.753124Q58.01875 28.753124 57.55 29.1125Q57.096874 29.45625 56.89375 30.065624Q56.6125 31.003124 56.6125 32.1125L56.6125 37.55L54.846874 37.55ZM65.70625 35.971874L65.95625 37.534374Q65.22188 37.690624 64.62813 37.690624Q63.675 37.690624 63.14375 37.39375Q62.628124 37.08125 62.409374 36.596874Q62.190624 36.096874 62.190624 34.51875L62.190624 28.55L60.909374 28.55L60.909374 27.175L62.190624 27.175L62.190624 24.6125L63.940624 23.55L63.940624 27.175L65.70625 27.175L65.70625 28.55L63.940624 28.55L63.940624 34.6125Q63.940624 35.3625 64.03438 35.58125Q64.12813 35.784374 64.33125 35.925Q64.55 36.05 64.94063 36.05Q65.22188 36.05 65.70625 35.971874ZM74.28438 37.55L74.28438 28.55L72.7375 28.55L72.7375 27.175L74.28438 27.175L74.28438 26.08125Q74.28438 25.034374 74.47188 24.51875Q74.72188 23.83125 75.3625 23.409374Q76.00313 22.9875 77.15938 22.9875Q77.90938 22.9875 78.8 23.159374L78.53438 24.690624Q77.9875 24.596874 77.50313 24.596874Q76.70625 24.596874 76.3625 24.940624Q76.03438 25.284374 76.03438 26.221874L76.03438 27.175L78.06563 27.175L78.06563 28.55L76.03438 28.55L76.03438 37.55L74.28438 37.55ZM79.22188 32.3625Q79.22188 29.4875 80.81563 28.096874Q82.15938 26.940624 84.08125 26.940624Q86.22188 26.940624 87.56563 28.346874Q88.925 29.753124 88.925 32.221874Q88.925 34.221874 88.33125 35.378124Q87.7375 36.51875 86.58125 37.159374Q85.44063 37.784374 84.08125 37.784374Q81.89375 37.784374 80.55 36.39375Q79.22188 34.9875 79.22188 32.3625ZM81.01875 32.3625Q81.01875 34.3625 81.87813 35.346874Q82.75313 36.33125 84.08125 36.33125Q85.39375 36.33125 86.25313 35.346874Q87.12813 34.346874 87.12813 32.3Q87.12813 30.378124 86.25313 29.39375Q85.37813 28.39375 84.08125 28.39375Q82.75313 28.39375 81.87813 29.39375Q81.01875 30.378124 81.01875 32.3625ZM90.84688 37.55L90.84688 27.175L92.425 27.175L92.425 28.753124Q93.03438 27.64375 93.55 27.3Q94.06563 26.940624 94.675 26.940624Q95.56563 26.940624 96.4875 27.503124L95.87813 29.14375Q95.2375 28.753124 94.59688 28.753124Q94.01875 28.753124 93.55 29.1125Q93.09688 29.45625 92.89375 30.065624Q92.6125 31.003124 92.6125 32.1125L92.6125 37.55L90.84688 37.55ZM102.51875 37.55L108.01875 23.2375L110.06563 23.2375L115.925 37.55L113.76875 37.55L112.09688 33.20625L106.1125 33.20625L104.53438 37.55L102.51875 37.55ZM106.65938 31.675L111.50313 31.675L110.01875 27.70625Q109.33125 25.89375 109.00313 24.7375Q108.72188 26.1125 108.22188 27.471874L106.65938 31.675ZM116.84688 37.55L116.84688 27.175L118.425 27.175L118.425 28.753124Q119.03438 27.64375 119.55 27.3Q120.06563 26.940624 120.675 26.940624Q121.56563 26.940624 122.4875 27.503124L121.87813 29.14375Q121.2375 28.753124 120.59688 28.753124Q120.01875 28.753124 119.55 29.1125Q119.09688 29.45625 118.89375 30.065624Q118.6125 31.003124 118.6125 32.1125L118.6125 37.55L116.84688 37.55ZM130.64375 33.753124L132.3625 33.971874Q132.08125 35.76875 130.90938 36.784374Q129.75313 37.784374 128.05 37.784374Q125.925 37.784374 124.62813 36.39375Q123.33125 35.003124 123.33125 32.409374Q123.33125 30.721874 123.87813 29.471874Q124.44063 28.20625 125.58125 27.58125Q126.72188 26.940624 128.06563 26.940624Q129.75313 26.940624 130.81563 27.8Q131.89375 28.659374 132.20625 30.221874L130.4875 30.4875Q130.25313 29.440624 129.62813 28.925Q129.00313 28.39375 128.12813 28.39375Q126.8 28.39375 125.97188 29.346874Q125.14375 30.3 125.14375 32.346874Q125.14375 34.440624 125.94063 35.39375Q126.7375 36.33125 128.03438 36.33125Q129.06563 36.33125 129.75313 35.70625Q130.45625 35.065624 130.64375 33.753124ZM133.8625 37.55L133.8625 23.2375L135.62813 23.2375L135.62813 28.3625Q136.8625 26.940624 138.7375 26.940624Q139.87813 26.940624 140.72188 27.39375Q141.58125 27.846874 141.94063 28.659374Q142.31563 29.45625 142.31563 30.971874L142.31563 37.55L140.56563 37.55L140.56563 30.971874Q140.56563 29.659374 139.9875 29.065624Q139.40938 28.45625 138.37813 28.45625Q137.59688 28.45625 136.89375 28.8625Q136.20625 29.26875 135.90938 29.971874Q135.62813 30.659374 135.62813 31.878124L135.62813 37.55L133.8625 37.55ZM143.87813 25.253124L143.87813 23.2375L145.64375 23.2375L145.64375 25.253124L143.87813 25.253124ZM143.87813 37.55L143.87813 27.175L145.64375 27.175L145.64375 37.55L143.87813 37.55ZM150.75313 37.55L146.8 27.175L148.65938 27.175L150.89375 33.39375Q151.25313 34.39375 151.55 35.471874Q151.78438 34.659374 152.20625 33.503124L154.50313 27.175L156.31563 27.175L152.39375 37.55L150.75313 37.55ZM163.97188 34.20625L165.78438 34.440624Q165.3625 36.01875 164.19063 36.909374Q163.03438 37.784374 161.22188 37.784374Q158.95625 37.784374 157.6125 36.39375Q156.28438 34.9875 156.28438 32.45625Q156.28438 29.83125 157.62813 28.39375Q158.97188 26.940624 161.12813 26.940624Q163.20625 26.940624 164.51875 28.3625Q165.84688 29.76875 165.84688 32.346874Q165.84688 32.503124 165.83125 32.815624L158.09688 32.815624Q158.19063 34.51875 159.06563 35.425Q159.94063 36.33125 161.2375 36.33125Q162.20625 36.33125 162.87813 35.83125Q163.56563 35.315624 163.97188 34.20625ZM158.19063 31.3625L163.9875 31.3625Q163.87813 30.065624 163.33125 29.409374Q162.4875 28.39375 161.14375 28.39375Q159.94063 28.39375 159.1125 29.20625Q158.28438 30.003124 158.19063 31.3625Z" fill-rule="nonzero"/></svg>