<svg version="1.1" viewBox="0.0 0.0 600.0 371.0" fill="none" stroke="none" stroke-linecap="square" stroke-miterlimit="10" width="600" height="371" xmlns:xlink="http://www.w3.org/1999/xlink" xmlns="http://www.w3.org/2000/svg"><path fill="#ffffff" d="M0 0L600.0 0L600.0 371.0L0 371.0L0 0Z" fill-rule="nonzero"/><path fill="#4285f4" d="M300.0 54.916668C363.9781 54.916668 420.7913 95.82149 441.0846 156.49585C461.37787 217.1702 440.606 284.02432 389.50162 322.51508L300.0 203.68333Z" fill-rule="nonzero"/><path fill="#ea4335" d="M389.50162 322.51508C337.76917 361.47888 266.77295 362.4974 213.94408 325.03366C161.1152 287.56992 138.5935 220.2329 158.25304 158.5245C177.91257 96.816124 235.23564 54.916668 300.0 54.916668L300.0 203.68333Z" fill-rule="nonzero"/><path fill="#1a1a1a" d="M23.409374 241.7302L24.440624 241.87082Q24.26875 242.93332 23.565624 243.5427Q22.8625 244.15207 21.846874 244.15207Q20.565624 244.15207 19.784374 243.32394Q19.01875 242.4802 19.01875 240.9177Q19.01875 239.9177 19.346874 239.1677Q19.690624 238.40207 20.3625 238.02707Q21.05 237.65207 21.8625 237.65207Q22.8625 237.65207 23.503124 238.1677Q24.159374 238.6677 24.346874 239.62082L23.315624 239.77707Q23.175 239.15207 22.8 238.83957Q22.425 238.51144 21.89375 238.51144Q21.096874 238.51144 20.596874 239.08957Q20.096874 239.65207 20.096874 240.88644Q20.096874 242.15207 20.58125 242.71457Q21.065624 243.27707 21.83125 243.27707Q22.45625 243.27707 22.8625 242.90207Q23.284374 242.52707 23.409374 241.7302ZM24.95625 240.90207Q24.95625 239.1677 25.909374 238.33957Q26.70625 237.65207 27.8625 237.65207Q29.14375 237.65207 29.95625 238.49582Q30.784374 239.32394 30.784374 240.80832Q30.784374 242.01144 30.425 242.69894Q30.065624 243.38644 29.3625 243.77707Q28.675 244.15207 27.8625 244.15207Q26.565624 244.15207 25.753124 243.32394Q24.95625 242.4802 24.95625 240.90207ZM26.034374 240.90207Q26.034374 242.08957 26.55 242.68332Q27.08125 243.27707 27.8625 243.27707Q28.659374 243.27707 29.175 242.68332Q29.690624 242.08957 29.690624 240.87082Q29.690624 239.71457 29.159374 239.12082Q28.64375 238.52707 27.8625 238.52707Q27.08125 238.52707 26.55 239.12082Q26.034374 239.69894 26.034374 240.90207ZM32.346874 244.01144L32.346874 237.7927L33.284374 237.7927L33.284374 238.6677Q33.971874 237.65207 35.26875 237.65207Q35.83125 237.65207 36.3 237.8552Q36.784374 238.05832 37.01875 238.38644Q37.253124 238.71457 37.346874 239.15207Q37.39375 239.44894 37.39375 240.18332L37.39375 244.01144L36.346874 244.01144L36.346874 240.2302Q36.346874 239.57394 36.221874 239.26144Q36.096874 238.94894 35.784374 238.76144Q35.471874 238.55832 35.05 238.55832Q34.378124 238.55832 33.878124 238.99582Q33.39375 239.4177 33.39375 240.6052L33.39375 244.01144L32.346874 244.01144ZM39.596874 244.01144L39.596874 238.6052L38.659374 238.6052L38.659374 237.7927L39.596874 237.7927L39.596874 237.12082Q39.596874 236.49582 39.70625 236.19894Q39.8625 235.77707 40.2375 235.52707Q40.628124 235.27707 41.315624 235.27707Q41.76875 235.27707 42.3 235.38644L42.14375 236.2927Q41.815624 236.24582 41.51875 236.24582Q41.034374 236.24582 40.83125 236.44894Q40.64375 236.65207 40.64375 237.21457L40.64375 237.7927L41.8625 237.7927L41.8625 238.6052L40.64375 238.6052L40.64375 244.01144L39.596874 244.01144ZM46.596874 242.01144L47.690624 242.13644Q47.440624 243.08957 46.7375 243.62082Q46.034374 244.15207 44.95625 244.15207Q43.596874 244.15207 42.784374 243.30832Q41.9875 242.46457 41.9875 240.94894Q41.9875 239.38644 42.8 238.52707Q43.6125 237.65207 44.89375 237.65207Q46.14375 237.65207 46.925 238.49582Q47.721874 239.33957 47.721874 240.88644Q47.721874 240.9802 47.721874 241.1677L43.08125 241.1677Q43.14375 242.19894 43.659374 242.74582Q44.175 243.27707 44.95625 243.27707Q45.534374 243.27707 45.940624 242.9802Q46.3625 242.6677 46.596874 242.01144ZM43.14375 240.30832L46.6125 240.30832Q46.55 239.51144 46.221874 239.12082Q45.70625 238.51144 44.909374 238.51144Q44.175 238.51144 43.675 238.99582Q43.190624 239.4802 43.14375 240.30832ZM49.33125 244.01144L49.33125 237.7927L50.284374 237.7927L50.284374 238.7302Q50.64375 238.07394 50.940624 237.87082Q51.253124 237.65207 51.628124 237.65207Q52.159374 237.65207 52.70625 237.9802L52.346874 238.96457Q51.95625 238.7302 51.58125 238.7302Q51.221874 238.7302 50.940624 238.94894Q50.675 239.15207 50.565624 239.52707Q50.378124 240.08957 50.378124 240.74582L50.378124 244.01144L49.33125 244.01144ZM57.596874 242.01144L58.690624 242.13644Q58.440624 243.08957 57.7375 243.62082Q57.034374 244.15207 55.95625 244.15207Q54.596874 244.15207 53.784374 243.30832Q52.9875 242.46457 52.9875 240.94894Q52.9875 239.38644 53.8 238.52707Q54.6125 237.65207 55.89375 237.65207Q57.14375 237.65207 57.925 238.49582Q58.721874 239.33957 58.721874 240.88644Q58.721874 240.9802 58.721874 241.1677L54.08125 241.1677Q54.14375 242.19894 54.659374 242.74582Q55.175 243.27707 55.95625 243.27707Q56.534374 243.27707 56.940624 242.9802Q57.3625 242.6677 57.596874 242.01144ZM54.14375 240.30832L57.6125 240.30832Q57.55 239.51144 57.221874 239.12082Q56.70625 238.51144 55.909374 238.51144Q55.175 238.51144 54.675 238.99582Q54.190624 239.4802 54.14375 240.30832ZM60.346874 244.01144L60.346874 237.7927L61.284374 237.7927L61.284374 238.6677Q61.971874 237.65207 63.26875 237.65207Q63.83125 237.65207 64.3 237.8552Q64.78438 238.05832 65.01875 238.38644Q65.25313 238.71457 65.34688 239.15207Q65.39375 239.44894 65.39375 240.18332L65.39375 244.01144L64.34688 244.01144L64.34688 240.2302Q64.34688 239.57394 64.22188 239.26144Q64.09688 238.94894 63.784374 238.76144Q63.471874 238.55832 63.05 238.55832Q62.378124 238.55832 61.878124 238.99582Q61.39375 239.4177 61.39375 240.6052L61.39375 244.01144L60.346874 244.01144ZM71.40938 241.7302L72.44063 241.87082Q72.26875 242.93332 71.56563 243.5427Q70.8625 244.15207 69.84688 244.15207Q68.56563 244.15207 67.78438 243.32394Q67.01875 242.4802 67.01875 240.9177Q67.01875 239.9177 67.34688 239.1677Q67.69063 238.40207 68.3625 238.02707Q69.05 237.65207 69.8625 237.65207Q70.8625 237.65207 71.50313 238.1677Q72.15938 238.6677 72.34688 239.62082L71.31563 239.77707Q71.175 239.15207 70.8 238.83957Q70.425 238.51144 69.89375 238.51144Q69.09688 238.51144 68.59688 239.08957Q68.09688 239.65207 68.09688 240.88644Q68.09688 242.15207 68.58125 242.71457Q69.06563 243.27707 69.83125 243.27707Q70.45625 243.27707 70.8625 242.90207Q71.28438 242.52707 71.40938 241.7302ZM77.59688 242.01144L78.69063 242.13644Q78.44063 243.08957 77.7375 243.62082Q77.03438 244.15207 75.95625 244.15207Q74.59688 244.15207 73.78438 243.30832Q72.9875 242.46457 72.9875 240.94894Q72.9875 239.38644 73.8 238.52707Q74.6125 237.65207 75.89375 237.65207Q77.14375 237.65207 77.925 238.49582Q78.72188 239.33957 78.72188 240.88644Q78.72188 240.9802 78.72188 241.1677L74.08125 241.1677Q74.14375 242.19894 74.65938 242.74582Q75.175 243.27707 75.95625 243.27707Q76.53438 243.27707 76.94063 242.9802Q77.3625 242.6677 77.59688 242.01144ZM74.14375 240.30832L77.6125 240.30832Q77.55 239.51144 77.22188 239.12082Q76.70625 238.51144 75.90938 238.51144Q75.175 238.51144 74.675 238.99582Q74.19063 239.4802 74.14375 240.30832ZM80.47188 244.01144L80.47188 235.4177L83.72188 235.4177Q84.56563 235.4177 85.01875 235.49582Q85.65938 235.6052 86.08125 235.90207Q86.51875 236.19894 86.76875 236.7302Q87.03438 237.26144 87.03438 237.90207Q87.03438 238.99582 86.33125 239.76144Q85.64375 240.51144 83.81563 240.51144L81.6125 240.51144L81.6125 244.01144L80.47188 244.01144ZM81.6125 239.51144L83.83125 239.51144Q84.94063 239.51144 85.39375 239.1052Q85.8625 238.68332 85.8625 237.93332Q85.8625 237.40207 85.58125 237.02707Q85.31563 236.63644 84.87813 236.51144Q84.58125 236.43332 83.81563 236.43332L81.6125 236.43332L81.6125 239.51144ZM92.40938 243.24582Q91.81563 243.74582 91.26875 243.94894Q90.7375 244.15207 90.1125 244.15207Q89.08125 244.15207 88.53438 243.65207Q87.9875 243.15207 87.9875 242.37082Q87.9875 241.9177 88.19063 241.5427Q88.39375 241.15207 88.7375 240.93332Q89.08125 240.69894 89.50313 240.58957Q89.8 240.49582 90.44063 240.4177Q91.70625 240.27707 92.31563 240.05832Q92.31563 239.83957 92.31563 239.7927Q92.31563 239.13644 92.01875 238.87082Q91.6125 238.52707 90.81563 238.52707Q90.08125 238.52707 89.72188 238.7927Q89.3625 239.0427 89.19063 239.69894L88.15938 239.55832Q88.3 238.90207 88.62813 238.49582Q88.95625 238.08957 89.56563 237.87082Q90.175 237.65207 90.97188 237.65207Q91.76875 237.65207 92.26875 237.83957Q92.76875 238.02707 93.00313 238.30832Q93.2375 238.58957 93.33125 239.02707Q93.37813 239.2927 93.37813 239.99582L93.37813 241.40207Q93.37813 242.87082 93.44063 243.26144Q93.51875 243.65207 93.72188 244.01144L92.6125 244.01144Q92.45625 243.68332 92.40938 243.24582ZM92.31563 240.88644Q91.7375 241.12082 90.59688 241.2927Q89.94063 241.38644 89.675 241.51144Q89.40938 241.62082 89.25313 241.83957Q89.1125 242.05832 89.1125 242.33957Q89.1125 242.76144 89.425 243.0427Q89.75313 243.32394 90.3625 243.32394Q90.97188 243.32394 91.44063 243.05832Q91.925 242.7927 92.14375 242.32394Q92.31563 241.96457 92.31563 241.27707L92.31563 240.88644ZM95.34688 246.40207L95.34688 237.7927L96.3 237.7927L96.3 238.58957Q96.64375 238.12082 97.06563 237.88644Q97.50313 237.65207 98.1125 237.65207Q98.90938 237.65207 99.51875 238.05832Q100.12813 238.46457 100.425 239.21457Q100.7375 239.96457 100.7375 240.8552Q100.7375 241.80832 100.39375 242.57394Q100.06563 243.33957 99.40938 243.74582Q98.75313 244.15207 98.03438 244.15207Q97.50313 244.15207 97.08125 243.93332Q96.65938 243.69894 96.39375 243.37082L96.39375 246.40207L95.34688 246.40207ZM96.3 240.93332Q96.3 242.13644 96.78438 242.71457Q97.26875 243.27707 97.95625 243.27707Q98.65938 243.27707 99.15938 242.68332Q99.65938 242.08957 99.65938 240.83957Q99.65938 239.65207 99.175 239.07394Q98.69063 238.4802 98.00313 238.4802Q97.33125 238.4802 96.81563 239.1052Q96.3 239.7302 96.3 240.93332ZM106.59688 242.01144L107.69063 242.13644Q107.44063 243.08957 106.7375 243.62082Q106.03438 244.15207 104.95625 244.15207Q103.59688 244.15207 102.78438 243.30832Q101.9875 242.46457 101.9875 240.94894Q101.9875 239.38644 102.8 238.52707Q103.6125 237.65207 104.89375 237.65207Q106.14375 237.65207 106.925 238.49582Q107.72188 239.33957 107.72188 240.88644Q107.72188 240.9802 107.72188 241.1677L103.08125 241.1677Q103.14375 242.19894 103.65938 242.74582Q104.175 243.27707 104.95625 243.27707Q105.53438 243.27707 105.94063 242.9802Q106.3625 242.6677 106.59688 242.01144ZM103.14375 240.30832L106.6125 240.30832Q106.55 239.51144 106.22188 239.12082Q105.70625 238.51144 104.90938 238.51144Q104.175 238.51144 103.675 238.99582Q103.19063 239.4802 103.14375 240.30832ZM109.33125 244.01144L109.33125 237.7927L110.28438 237.7927L110.28438 238.7302Q110.64375 238.07394 110.94063 237.87082Q111.25313 237.65207 111.62813 237.65207Q112.15938 237.65207 112.70625 237.9802L112.34688 238.96457Q111.95625 238.7302 111.58125 238.7302Q111.22188 238.7302 110.94063 238.94894Q110.675 239.15207 110.56563 239.52707Q110.37813 240.08957 110.37813 240.74582L110.37813 244.01144L109.33125 244.01144Z" fill-rule="nonzero"/><path fill="#9e9e9e" d="M24.51875 254.52707L23.471874 254.6052Q23.33125 253.9802 23.08125 253.69894Q22.64375 253.24582 22.01875 253.24582Q21.51875 253.24582 21.128124 253.52707Q20.64375 253.90207 20.346874 254.6052Q20.065624 255.2927 20.05 256.57394Q20.425 255.99582 20.971874 255.71457Q21.534374 255.43332 22.14375 255.43332Q23.190624 255.43332 23.925 256.21457Q24.675 256.99582 24.675 258.21457Q24.675 259.02707 24.315624 259.7302Q23.971874 260.4177 23.3625 260.7927Q22.753124 261.15207 21.9875 261.15207Q20.659374 261.15207 19.83125 260.18332Q19.003124 259.21457 19.003124 256.99582Q19.003124 254.49582 19.925 253.37082Q20.721874 252.38644 22.08125 252.38644Q23.096874 252.38644 23.7375 252.96457Q24.39375 253.52707 24.51875 254.52707ZM20.221874 258.2302Q20.221874 258.77707 20.440624 259.27707Q20.675 259.76144 21.08125 260.02707Q21.503124 260.2927 21.971874 260.2927Q22.628124 260.2927 23.1125 259.76144Q23.596874 259.21457 23.596874 258.2927Q23.596874 257.40207 23.1125 256.88644Q22.64375 256.37082 21.925 256.37082Q21.20625 256.37082 20.70625 256.88644Q20.221874 257.40207 20.221874 258.2302ZM26.05 256.77707Q26.05 255.24582 26.3625 254.32394Q26.675 253.38644 27.284374 252.88644Q27.909374 252.38644 28.846874 252.38644Q29.534374 252.38644 30.05 252.6677Q30.58125 252.94894 30.925 253.4802Q31.26875 253.99582 31.45625 254.74582Q31.64375 255.49582 31.64375 256.77707Q31.64375 258.2927 31.33125 259.21457Q31.034374 260.13644 30.409374 260.65207Q29.8 261.15207 28.846874 261.15207Q27.6125 261.15207 26.89375 260.26144Q26.05 259.19894 26.05 256.77707ZM27.128124 256.77707Q27.128124 258.88644 27.628124 259.58957Q28.128124 260.2927 28.846874 260.2927Q29.58125 260.2927 30.065624 259.58957Q30.565624 258.88644 30.565624 256.77707Q30.565624 254.65207 30.065624 253.96457Q29.58125 253.26144 28.83125 253.26144Q28.1125 253.26144 27.675 253.87082Q27.128124 254.65207 27.128124 256.77707ZM33.64375 261.01144L33.64375 259.80832L34.846874 259.80832L34.846874 261.01144L33.64375 261.01144ZM36.05 258.74582L37.1125 258.6052Q37.284374 259.49582 37.721874 259.90207Q38.159374 260.2927 38.784374 260.2927Q39.534374 260.2927 40.05 259.77707Q40.565624 259.26144 40.565624 258.49582Q40.565624 257.77707 40.08125 257.30832Q39.6125 256.82394 38.878124 256.82394Q38.58125 256.82394 38.128124 256.94894L38.253124 256.01144Q38.3625 256.02707 38.425 256.02707Q39.096874 256.02707 39.628124 255.68332Q40.175 255.32394 40.175 254.58957Q40.175 254.01144 39.784374 253.63644Q39.39375 253.24582 38.76875 253.24582Q38.159374 253.24582 37.7375 253.63644Q37.33125 254.02707 37.221874 254.7927L36.159374 254.6052Q36.346874 253.55832 37.034374 252.9802Q37.721874 252.38644 38.7375 252.38644Q39.440624 252.38644 40.034374 252.69894Q40.628124 252.99582 40.940624 253.51144Q41.253124 254.02707 41.253124 254.62082Q41.253124 255.1677 40.95625 255.63644Q40.659374 256.08957 40.08125 256.3552Q40.83125 256.52707 41.253124 257.08957Q41.675 257.63644 41.675 258.4802Q41.675 259.6052 40.846874 260.38644Q40.034374 261.1677 38.784374 261.1677Q37.659374 261.1677 36.909374 260.49582Q36.159374 259.80832 36.05 258.74582ZM43.253124 254.4802Q43.253124 253.55832 43.70625 252.9177Q44.175 252.27707 45.05 252.27707Q45.8625 252.27707 46.39375 252.8552Q46.925 253.43332 46.925 254.5427Q46.925 255.63644 46.378124 256.2302Q45.846874 256.80832 45.065624 256.80832Q44.284374 256.80832 43.76875 256.2302Q43.253124 255.65207 43.253124 254.4802ZM45.08125 252.99582Q44.690624 252.99582 44.425 253.33957Q44.175 253.68332 44.175 254.58957Q44.175 255.4177 44.425 255.76144Q44.690624 256.08957 45.08125 256.08957Q45.4875 256.08957 45.7375 255.74582Q46.003124 255.40207 46.003124 254.51144Q46.003124 253.6677 45.7375 253.33957Q45.471874 252.99582 45.08125 252.99582ZM45.08125 261.32394L49.784374 252.27707L50.64375 252.27707L45.95625 261.32394L45.08125 261.32394ZM48.8 258.99582Q48.8 258.07394 49.253124 257.43332Q49.721874 256.7927 50.6125 256.7927Q51.425 256.7927 51.95625 257.37082Q52.4875 257.93332 52.4875 259.05832Q52.4875 260.15207 51.940624 260.74582Q51.409374 261.32394 50.6125 261.32394Q49.846874 261.32394 49.315624 260.74582Q48.8 260.1677 48.8 258.99582ZM50.64375 257.51144Q50.2375 257.51144 49.971874 257.8552Q49.721874 258.19894 49.721874 259.1052Q49.721874 259.9177 49.9875 260.26144Q50.253124 260.6052 50.64375 260.6052Q51.034374 260.6052 51.3 260.26144Q51.565624 259.9177 51.565624 259.01144Q51.565624 258.18332 51.3 257.8552Q51.034374 257.51144 50.64375 257.51144Z" fill-rule="nonzero"/><path stroke="#757575" stroke-width="1.0" stroke-linecap="butt" d="M18.55 248.51144L145.23334 248.51144L165.96964 248.51144" fill-rule="nonzero"/><path fill="#9e9e9e" d="M167.96964 248.51144C167.96964 247.40688 167.0742 246.51144 165.96964 246.51144C164.86507 246.51144 163.96964 247.40688 163.96964 248.51144C163.96964 249.61601 164.86507 250.51144 165.96964 250.51144C167.0742 250.51144 167.96964 249.61601 167.96964 248.51144" fill-rule="nonzero"/><path fill="#1a1a1a" d="M511.23126 146.99585L511.23126 145.76147L512.29376 145.76147L512.29376 146.99585L511.23126 146.99585ZM509.90314 156.7771L510.09064 155.87085Q510.41876 155.94897 510.59064 155.94897Q510.91876 155.94897 511.075 155.73022Q511.23126 155.5271 511.23126 154.66772L511.23126 148.13647L512.29376 148.13647L512.29376 154.69897Q512.29376 155.8396 511.9969 156.29272Q511.60626 156.88647 510.73126 156.88647Q510.29376 156.88647 509.90314 156.7771ZM513.85626 151.24585Q513.85626 149.51147 514.8094 148.68335Q515.60626 147.99585 516.7625 147.99585Q518.04376 147.99585 518.85626 148.8396Q519.6844 149.66772 519.6844 151.1521Q519.6844 152.35522 519.325 153.04272Q518.96564 153.73022 518.2625 154.12085Q517.575 154.49585 516.7625 154.49585Q515.46564 154.49585 514.65314 153.66772Q513.85626 152.82397 513.85626 151.24585ZM514.9344 151.24585Q514.9344 152.43335 515.45 153.0271Q515.98126 153.62085 516.7625 153.62085Q517.5594 153.62085 518.075 153.0271Q518.59064 152.43335 518.59064 151.2146Q518.59064 150.05835 518.0594 149.4646Q517.54376 148.87085 516.7625 148.87085Q515.98126 148.87085 515.45 149.4646Q514.9344 150.04272 514.9344 151.24585ZM525.325 154.35522L525.325 153.43335Q524.59064 154.49585 523.34064 154.49585Q522.79376 154.49585 522.3094 154.29272Q521.84064 154.07397 521.60626 153.76147Q521.3719 153.43335 521.27814 152.9646Q521.21564 152.66772 521.21564 151.98022L521.21564 148.13647L522.27814 148.13647L522.27814 151.5896Q522.27814 152.4021 522.34064 152.69897Q522.4344 153.10522 522.7469 153.35522Q523.075 153.5896 523.5594 153.5896Q524.02814 153.5896 524.4344 153.35522Q524.85626 153.10522 525.02814 152.68335Q525.21564 152.26147 525.21564 151.4646L525.21564 148.13647L526.2625 148.13647L526.2625 154.35522L525.325 154.35522ZM528.23126 154.35522L528.23126 148.13647L529.1844 148.13647L529.1844 149.07397Q529.54376 148.41772 529.84064 148.2146Q530.15314 147.99585 530.52814 147.99585Q531.0594 147.99585 531.60626 148.32397L531.2469 149.30835Q530.85626 149.07397 530.48126 149.07397Q530.1219 149.07397 529.84064 149.29272Q529.575 149.49585 529.46564 149.87085Q529.27814 150.43335 529.27814 151.0896L529.27814 154.35522L528.23126 154.35522ZM532.2469 154.35522L532.2469 148.13647L533.1844 148.13647L533.1844 149.01147Q533.8719 147.99585 535.16876 147.99585Q535.73126 147.99585 536.2 148.19897Q536.6844 148.4021 536.91876 148.73022Q537.15314 149.05835 537.2469 149.49585Q537.29376 149.79272 537.29376 150.5271L537.29376 154.35522L536.2469 154.35522L536.2469 150.57397Q536.2469 149.91772 536.1219 149.60522Q535.9969 149.29272 535.6844 149.10522Q535.3719 148.9021 534.95 148.9021Q534.27814 148.9021 533.77814 149.3396Q533.29376 149.76147 533.29376 150.94897L533.29376 154.35522L532.2469 154.35522ZM543.3094 153.5896Q542.71564 154.0896 542.16876 154.29272Q541.6375 154.49585 541.0125 154.49585Q539.98126 154.49585 539.4344 153.99585Q538.8875 153.49585 538.8875 152.7146Q538.8875 152.26147 539.09064 151.88647Q539.29376 151.49585 539.6375 151.2771Q539.98126 151.04272 540.40314 150.93335Q540.7 150.8396 541.34064 150.76147Q542.60626 150.62085 543.21564 150.4021Q543.21564 150.18335 543.21564 150.13647Q543.21564 149.48022 542.91876 149.2146Q542.5125 148.87085 541.71564 148.87085Q540.98126 148.87085 540.6219 149.13647Q540.2625 149.38647 540.09064 150.04272L539.0594 149.9021Q539.2 149.24585 539.52814 148.8396Q539.85626 148.43335 540.46564 148.2146Q541.075 147.99585 541.8719 147.99585Q542.66876 147.99585 543.16876 148.18335Q543.66876 148.37085 543.90314 148.6521Q544.1375 148.93335 544.23126 149.37085Q544.27814 149.63647 544.27814 150.3396L544.27814 151.74585Q544.27814 153.2146 544.34064 153.60522Q544.41876 153.99585 544.6219 154.35522L543.5125 154.35522Q543.35626 154.0271 543.3094 153.5896ZM543.21564 151.23022Q542.6375 151.4646 541.4969 151.63647Q540.84064 151.73022 540.575 151.85522Q540.3094 151.9646 540.15314 152.18335Q540.0125 152.4021 540.0125 152.68335Q540.0125 153.10522 540.325 153.38647Q540.65314 153.66772 541.2625 153.66772Q541.8719 153.66772 542.34064 153.4021Q542.825 153.13647 543.04376 152.66772Q543.21564 152.30835 543.21564 151.62085L543.21564 151.23022ZM546.21564 154.35522L546.21564 145.76147L547.27814 145.76147L547.27814 154.35522L546.21564 154.35522ZM548.4344 154.35522L551.73126 145.76147L552.95 145.76147L556.46564 154.35522L555.1844 154.35522L554.16876 151.74585L550.59064 151.74585L549.6375 154.35522L548.4344 154.35522ZM550.91876 150.82397L553.825 150.82397L552.9344 148.44897Q552.5125 147.37085 552.325 146.66772Q552.15314 147.49585 551.85626 148.30835L550.91876 150.82397ZM556.23126 154.35522L556.23126 148.13647L557.1844 148.13647L557.1844 149.07397Q557.54376 148.41772 557.84064 148.2146Q558.15314 147.99585 558.52814 147.99585Q559.0594 147.99585 559.60626 148.32397L559.2469 149.30835Q558.85626 149.07397 558.48126 149.07397Q558.1219 149.07397 557.84064 149.29272Q557.575 149.49585 557.46564 149.87085Q557.27814 150.43335 557.27814 151.0896L557.27814 154.35522L556.23126 154.35522ZM562.54376 153.41772L562.7 154.3396Q562.2469 154.43335 561.90314 154.43335Q561.325 154.43335 561.0125 154.26147Q560.7 154.07397 560.5594 153.7771Q560.4344 153.48022 560.4344 152.5271L560.4344 148.94897L559.66876 148.94897L559.66876 148.13647L560.4344 148.13647L560.4344 146.5896L561.48126 145.9646L561.48126 148.13647L562.54376 148.13647L562.54376 148.94897L561.48126 148.94897L561.48126 152.5896Q561.48126 153.04272 561.52814 153.16772Q561.59064 153.29272 561.71564 153.37085Q561.84064 153.44897 562.075 153.44897Q562.2625 153.44897 562.54376 153.41772ZM563.2469 146.98022L563.2469 145.76147L564.3094 145.76147L564.3094 146.98022L563.2469 146.98022ZM563.2469 154.35522L563.2469 148.13647L564.3094 148.13647L564.3094 154.35522L563.2469 154.35522ZM570.3094 152.07397L571.34064 152.2146Q571.16876 153.2771 570.46564 153.88647Q569.7625 154.49585 568.7469 154.49585Q567.46564 154.49585 566.6844 153.66772Q565.91876 152.82397 565.91876 151.26147Q565.91876 150.26147 566.2469 149.51147Q566.59064 148.74585 567.2625 148.37085Q567.95 147.99585 568.7625 147.99585Q569.7625 147.99585 570.40314 148.51147Q571.0594 149.01147 571.2469 149.9646L570.21564 150.12085Q570.075 149.49585 569.7 149.18335Q569.325 148.85522 568.79376 148.85522Q567.9969 148.85522 567.4969 149.43335Q566.9969 149.99585 566.9969 151.23022Q566.9969 152.49585 567.48126 153.05835Q567.96564 153.62085 568.73126 153.62085Q569.35626 153.62085 569.7625 153.24585Q570.1844 152.87085 570.3094 152.07397ZM572.21564 154.35522L572.21564 145.76147L573.27814 145.76147L573.27814 154.35522L572.21564 154.35522ZM579.4969 152.35522L580.59064 152.48022Q580.34064 153.43335 579.6375 153.9646Q578.9344 154.49585 577.85626 154.49585Q576.4969 154.49585 575.6844 153.6521Q574.8875 152.80835 574.8875 151.29272Q574.8875 149.73022 575.7 148.87085Q576.5125 147.99585 577.79376 147.99585Q579.04376 147.99585 579.825 148.8396Q580.6219 149.68335 580.6219 151.23022Q580.6219 151.32397 580.6219 151.51147L575.98126 151.51147Q576.04376 152.54272 576.5594 153.0896Q577.075 153.62085 577.85626 153.62085Q578.4344 153.62085 578.84064 153.32397Q579.2625 153.01147 579.4969 152.35522ZM576.04376 150.6521L579.5125 150.6521Q579.45 149.85522 579.1219 149.4646Q578.60626 148.85522 577.8094 148.85522Q577.075 148.85522 576.575 149.3396Q576.09064 149.82397 576.04376 150.6521Z" fill-rule="nonzero"/><path fill="#9e9e9e" d="M546.95 169.0896L548.0125 168.94897Q548.1844 169.8396 548.6219 170.24585Q549.0594 170.63647 549.6844 170.63647Q550.4344 170.63647 550.95 170.12085Q551.46564 169.60522 551.46564 168.8396Q551.46564 168.12085 550.98126 167.6521Q550.5125 167.16772 549.77814 167.16772Q549.48126 167.16772 549.02814 167.29272L549.15314 166.35522Q549.2625 166.37085 549.325 166.37085Q549.9969 166.37085 550.52814 166.0271Q551.075 165.66772 551.075 164.93335Q551.075 164.35522 550.6844 163.98022Q550.29376 163.5896 549.66876 163.5896Q549.0594 163.5896 548.6375 163.98022Q548.23126 164.37085 548.1219 165.13647L547.0594 164.94897Q547.2469 163.9021 547.9344 163.32397Q548.6219 162.73022 549.6375 162.73022Q550.34064 162.73022 550.9344 163.04272Q551.52814 163.3396 551.84064 163.85522Q552.15314 164.37085 552.15314 164.9646Q552.15314 165.51147 551.85626 165.98022Q551.5594 166.43335 550.98126 166.69897Q551.73126 166.87085 552.15314 167.43335Q552.575 167.98022 552.575 168.82397Q552.575 169.94897 551.7469 170.73022Q550.9344 171.51147 549.6844 171.51147Q548.5594 171.51147 547.8094 170.8396Q547.0594 170.1521 546.95 169.0896ZM554.10626 169.37085L555.1219 169.2771Q555.2469 169.99585 555.60626 170.32397Q555.98126 170.63647 556.54376 170.63647Q557.02814 170.63647 557.3875 170.41772Q557.7625 170.18335 557.9969 169.82397Q558.23126 169.44897 558.3875 168.82397Q558.54376 168.18335 558.54376 167.5271Q558.54376 167.44897 558.54376 167.30835Q558.23126 167.80835 557.6844 168.13647Q557.1375 168.44897 556.4969 168.44897Q555.41876 168.44897 554.6844 167.68335Q553.95 166.9021 553.95 165.63647Q553.95 164.32397 554.71564 163.5271Q555.4969 162.73022 556.65314 162.73022Q557.48126 162.73022 558.16876 163.18335Q558.8719 163.63647 559.23126 164.48022Q559.59064 165.30835 559.59064 166.88647Q559.59064 168.5271 559.23126 169.51147Q558.8875 170.48022 558.16876 170.99585Q557.46564 171.49585 556.52814 171.49585Q555.5125 171.49585 554.8719 170.94897Q554.23126 170.38647 554.10626 169.37085ZM558.41876 165.57397Q558.41876 164.66772 557.9344 164.13647Q557.46564 163.60522 556.77814 163.60522Q556.075 163.60522 555.54376 164.18335Q555.02814 164.74585 555.02814 165.66772Q555.02814 166.48022 555.52814 166.99585Q556.02814 167.51147 556.7469 167.51147Q557.48126 167.51147 557.95 166.99585Q558.41876 166.48022 558.41876 165.57397ZM561.54376 171.35522L561.54376 170.1521L562.7469 170.1521L562.7469 171.35522L561.54376 171.35522ZM564.0125 163.88647L564.0125 162.87085L569.575 162.87085L569.575 163.69897Q568.7625 164.57397 567.95 166.0271Q567.15314 167.4646 566.71564 168.99585Q566.3875 170.07397 566.3094 171.35522L565.21564 171.35522Q565.23126 170.3396 565.60626 168.9021Q565.9969 167.4646 566.7 166.13647Q567.41876 164.80835 568.23126 163.88647L564.0125 163.88647ZM571.15314 164.82397Q571.15314 163.9021 571.60626 163.26147Q572.075 162.62085 572.95 162.62085Q573.7625 162.62085 574.29376 163.19897Q574.825 163.7771 574.825 164.88647Q574.825 165.98022 574.27814 166.57397Q573.7469 167.1521 572.96564 167.1521Q572.1844 167.1521 571.66876 166.57397Q571.15314 165.99585 571.15314 164.82397ZM572.98126 163.3396Q572.59064 163.3396 572.325 163.68335Q572.075 164.0271 572.075 164.93335Q572.075 165.76147 572.325 166.10522Q572.59064 166.43335 572.98126 166.43335Q573.3875 166.43335 573.6375 166.0896Q573.90314 165.74585 573.90314 164.85522Q573.90314 164.01147 573.6375 163.68335Q573.3719 163.3396 572.98126 163.3396ZM572.98126 171.66772L577.6844 162.62085L578.54376 162.62085L573.85626 171.66772L572.98126 171.66772ZM576.7 169.3396Q576.7 168.41772 577.15314 167.7771Q577.6219 167.13647 578.5125 167.13647Q579.325 167.13647 579.85626 167.7146Q580.3875 168.2771 580.3875 169.4021Q580.3875 170.49585 579.84064 171.0896Q579.3094 171.66772 578.5125 171.66772Q577.7469 171.66772 577.21564 171.0896Q576.7 170.51147 576.7 169.3396ZM578.54376 167.85522Q578.1375 167.85522 577.8719 168.19897Q577.6219 168.54272 577.6219 169.44897Q577.6219 170.26147 577.8875 170.60522Q578.15314 170.94897 578.54376 170.94897Q578.9344 170.94897 579.2 170.60522Q579.46564 170.26147 579.46564 169.35522Q579.46564 168.5271 579.2 168.19897Q578.9344 167.85522 578.54376 167.85522Z" fill-rule="nonzero"/><path stroke="#757575" stroke-width="1.0" stroke-linecap="butt" d="M581.45 158.85522L454.76666 158.85522L434.03036 158.85522" fill-rule="nonzero"/><path fill="#9e9e9e" d="M436.03036 158.85522C436.03036 157.75064 435.13492 156.85522 434.03036 156.85522C432.92578 156.85522 432.03036 157.75064 432.03036 158.85522C432.03036 159.9598 432.92578 160.85522 434.03036 160.85522C435.13492 160.85522 436.03036 159.9598 436.03036 158.85522" fill-rule="nonzero"/><path fill="#757575" d="M30.315624 32.534374L32.20625 33.003124Q31.6125 35.346874 30.065624 36.58125Q28.51875 37.8 26.26875 37.8Q23.95625 37.8 22.503124 36.8625Q21.065624 35.909374 20.3 34.128124Q19.55 32.33125 19.55 30.284374Q19.55 28.05 20.39375 26.39375Q21.253124 24.721874 22.83125 23.8625Q24.409374 22.9875 26.3 22.9875Q28.45625 22.9875 29.909374 24.08125Q31.378124 25.175 31.95625 27.159374L30.096874 27.596874Q29.596874 26.034374 28.64375 25.33125Q27.70625 24.6125 26.26875 24.6125Q24.6125 24.6125 23.503124 25.409374Q22.39375 26.190624 21.940624 27.534374Q21.503124 28.8625 21.503124 30.26875Q21.503124 32.096874 22.034374 33.471874Q22.565624 34.83125 23.690624 35.503124Q24.815624 36.175 26.1125 36.175Q27.70625 36.175 28.815624 35.253124Q29.925 34.33125 30.315624 32.534374ZM33.8625 37.55L33.8625 23.2375L35.628124 23.2375L35.628124 28.3625Q36.8625 26.940624 38.7375 26.940624Q39.878124 26.940624 40.721874 27.39375Q41.58125 27.846874 41.940624 28.659374Q42.315624 29.45625 42.315624 30.971874L42.315624 37.55L40.565624 37.55L40.565624 30.971874Q40.565624 29.659374 39.9875 29.065624Q39.409374 28.45625 38.378124 28.45625Q37.596874 28.45625 36.89375 28.8625Q36.20625 29.26875 35.909374 29.971874Q35.628124 30.659374 35.628124 31.878124L35.628124 37.55L33.8625 37.55ZM50.64375 36.26875Q49.659374 37.096874 48.753124 37.440624Q47.846874 37.784374 46.815624 37.784374Q45.1125 37.784374 44.190624 36.95625Q43.26875 36.1125 43.26875 34.815624Q43.26875 34.05 43.6125 33.425Q43.971874 32.8 44.534374 32.425Q45.096874 32.034374 45.8 31.83125Q46.315624 31.70625 47.3625 31.565624Q49.4875 31.315624 50.4875 30.971874Q50.503124 30.6125 50.503124 30.503124Q50.503124 29.440624 50.003124 28.9875Q49.33125 28.39375 48.003124 28.39375Q46.753124 28.39375 46.159374 28.83125Q45.58125 29.26875 45.3 30.378124L43.58125 30.14375Q43.815624 29.034374 44.346874 28.3625Q44.878124 27.675 45.89375 27.315624Q46.909374 26.940624 48.253124 26.940624Q49.58125 26.940624 50.409374 27.253124Q51.2375 27.565624 51.628124 28.05Q52.01875 28.51875 52.175 29.2375Q52.26875 29.690624 52.26875 30.8625L52.26875 33.20625Q52.26875 35.659374 52.378124 36.315624Q52.4875 36.95625 52.83125 37.55L50.9875 37.55Q50.721874 37.003124 50.64375 36.26875ZM50.4875 32.346874Q49.534374 32.7375 47.6125 33.003124Q46.534374 33.159374 46.08125 33.3625Q45.64375 33.55 45.39375 33.925Q45.14375 34.3 45.14375 34.76875Q45.14375 35.471874 45.675 35.940624Q46.20625 36.409374 47.2375 36.409374Q48.253124 36.409374 49.034374 35.971874Q49.83125 35.51875 50.20625 34.753124Q50.4875 34.14375 50.4875 32.9875L50.4875 32.346874ZM54.846874 37.55L54.846874 27.175L56.425 27.175L56.425 28.753124Q57.034374 27.64375 57.55 27.3Q58.065624 26.940624 58.675 26.940624Q59.565624 26.940624 60.4875 27.503124L59.878124 29.14375Q59.2375 28.753124 58.596874 28.753124Q58.01875 28.753124 57.55 29.1125Q57.096874 29.45625 56.89375 30.065624Q56.6125 31.003124 56.6125 32.1125L56.6125 37.55L54.846874 37.55ZM65.70625 35.971874L65.95625 37.534374Q65.22188 37.690624 64.62813 37.690624Q63.675 37.690624 63.14375 37.39375Q62.628124 37.08125 62.409374 36.596874Q62.190624 36.096874 62.190624 34.51875L62.190624 28.55L60.909374 28.55L60.909374 27.175L62.190624 27.175L62.190624 24.6125L63.940624 23.55L63.940624 27.175L65.70625 27.175L65.70625 28.55L63.940624 28.55L63.940624 34.6125Q63.940624 35.3625 64.03438 35.58125Q64.12813 35.784374 64.33125 35.925Q64.55 36.05 64.94063 36.05Q65.22188 36.05 65.70625 35.971874ZM74.28438 37.55L74.28438 28.55L72.7375 28.55L72.7375 27.175L74.28438 27.175L74.28438 26.08125Q74.28438 25.034374 74.47188 24.51875Q74.72188 23.83125 75.3625 23.409374Q76.00313 22.9875 77.15938 22.9875Q77.90938 22.9875 78.8 23.159374L78.53438 24.690624Q77.9875 24.596874 77.50313 24.596874Q76.70625 24.596874 76.3625 24.940624Q76.03438 25.284374 76.03438 26.221874L76.03438 27.175L78.06563 27.175L78.06563 28.55L76.03438 28.55L76.03438 37.55L74.28438 37.55ZM79.22188 32.3625Q79.22188 29.4875 80.81563 28.096874Q82.15938 26.940624 84.08125 26.940624Q86.22188 26.940624 87.56563 28.346874Q88.925 29.753124 88.925 32.221874Q88.925 34.221874 88.33125 35.378124Q87.7375 36.51875 86.58125 37.159374Q85.44063 37.784374 84.08125 37.784374Q81.89375 37.784374 80.55 36.39375Q79.22188 34.9875 79.22188 32.3625ZM81.01875 32.3625Q81.01875 34.3625 81.87813 35.346874Q82.75313 36.33125 84.08125 36.33125Q85.39375 36.33125 86.25313 35.346874Q87.12813 34.346874 87.12813 32.3Q87.12813 30.378124 86.25313 29.39375Q85.37813 28.39375 84.08125 28.39375Q82.75313 28.39375 81.87813 29.39375Q81.01875 30.378124 81.01875 32.3625ZM90.84688 37.55L90.84688 27.175L92.425 27.175L92.425 28.753124Q93.03438 27.64375 93.55 27.3Q94.06563 26.940624 94.675 26.940624Q95.56563 26.940624 96.4875 27.503124L95.87813 29.14375Q95.2375 28.753124 94.59688 28.753124Q94.01875 28.753124 93.55 29.1125Q93.09688 29.45625 92.89375 30.065624Q92.6125 31.003124 92.6125 32.1125L92.6125 37.55L90.84688 37.55ZM104.40938 37.55L104.40938 23.2375L106.31563 23.2375L106.31563 37.55L104.40938 37.55ZM113.70625 35.971874L113.95625 37.534374Q113.22188 37.690624 112.62813 37.690624Q111.675 37.690624 111.14375 37.39375Q110.62813 37.08125 110.40938 36.596874Q110.19063 36.096874 110.19063 34.51875L110.19063 28.55L108.90938 28.55L108.90938 27.175L110.19063 27.175L110.19063 24.6125L111.94063 23.55L111.94063 27.175L113.70625 27.175L113.70625 28.55L111.94063 28.55L111.94063 34.6125Q111.94063 35.3625 112.03438 35.58125Q112.12813 35.784374 112.33125 35.925Q112.55 36.05 112.94063 36.05Q113.22188 36.05 113.70625 35.971874ZM122.97188 34.20625L124.78438 34.440624Q124.3625 36.01875 123.19063 36.909374Q122.03438 37.784374 120.22188 37.784374Q117.95625 37.784374 116.6125 36.39375Q115.28438 34.9875 115.28438 32.45625Q115.28438 29.83125 116.62813 28.39375Q117.97188 26.940624 120.12813 26.940624Q122.20625 26.940624 123.51875 28.3625Q124.84688 29.76875 124.84688 32.346874Q124.84688 32.503124 124.83125 32.815624L117.09688 32.815624Q117.19063 34.51875 118.06563 35.425Q118.94063 36.33125 120.2375 36.33125Q121.20625 36.33125 121.87813 35.83125Q122.56563 35.315624 122.97188 34.20625ZM117.19063 31.3625L122.9875 31.3625Q122.87813 30.065624 122.33125 29.409374Q121.4875 28.39375 120.14375 28.39375Q118.94063 28.39375 118.1125 29.20625Q117.28438 30.003124 117.19063 31.3625ZM126.8625 37.55L126.8625 27.175L128.44063 27.175L128.44063 28.628124Q128.925 27.878124 129.7375 27.409374Q130.55 26.940624 131.58125 26.940624Q132.7375 26.940624 133.47188 27.425Q134.20625 27.89375 134.51875 28.753124Q135.75313 26.940624 137.72188 26.940624Q139.26875 26.940624 140.09688 27.8Q140.925 28.659374 140.925 30.425L140.925 37.55L139.175 37.55L139.175 31.01875Q139.175 29.95625 139.00313 29.503124Q138.83125 29.034374 138.37813 28.753124Q137.94063 28.471874 137.33125 28.471874Q136.2375 28.471874 135.50313 29.20625Q134.78438 29.925 134.78438 31.51875L134.78438 37.55L133.03438 37.55L133.03438 30.815624Q133.03438 29.64375 132.59688 29.065624Q132.175 28.471874 131.19063 28.471874Q130.45625 28.471874 129.81563 28.8625Q129.19063 29.253124 128.90938 30.003124Q128.62813 30.753124 128.62813 32.175L128.62813 37.55L126.8625 37.55ZM152.7375 37.55L152.7375 24.925L148.01875 24.925L148.01875 23.2375L159.3625 23.2375L159.3625 24.925L154.62813 24.925L154.62813 37.55L152.7375 37.55ZM160.78438 41.55L160.59688 39.89375Q161.175 40.05 161.59688 40.05Q162.19063 40.05 162.53438 39.846874Q162.89375 39.659374 163.1125 39.315624Q163.28438 39.05 163.65938 38.003124Q163.70625 37.846874 163.81563 37.565624L159.87813 27.175L161.76875 27.175L163.925 33.190624Q164.34688 34.33125 164.675 35.58125Q164.9875 34.378124 165.39375 33.221874L167.6125 27.175L169.37813 27.175L165.425 37.721874Q164.8 39.440624 164.44063 40.08125Q163.97188 40.95625 163.3625 41.346874Q162.76875 41.753124 161.925 41.753124Q161.40938 41.753124 160.78438 41.55ZM170.8625 41.51875L170.8625 27.175L172.47188 27.175L172.47188 28.51875Q173.03438 27.7375 173.7375 27.346874Q174.45625 26.940624 175.47188 26.940624Q176.8 26.940624 177.81563 27.628124Q178.83125 28.315624 179.34688 29.565624Q179.87813 30.8 179.87813 32.284374Q179.87813 33.878124 179.3 35.159374Q178.7375 36.425 177.64375 37.1125Q176.55 37.784374 175.34688 37.784374Q174.47188 37.784374 173.76875 37.409374Q173.08125 37.034374 172.62813 36.471874L172.62813 41.51875L170.8625 41.51875ZM172.45625 32.425Q172.45625 34.425 173.26875 35.378124Q174.08125 36.33125 175.2375 36.33125Q176.40938 36.33125 177.2375 35.346874Q178.08125 34.3625 178.08125 32.26875Q178.08125 30.3 177.25313 29.315624Q176.44063 28.315624 175.31563 28.315624Q174.19063 28.315624 173.31563 29.378124Q172.45625 30.425 172.45625 32.425ZM188.97188 34.20625L190.78438 34.440624Q190.3625 36.01875 189.19063 36.909374Q188.03438 37.784374 186.22188 37.784374Q183.95625 37.784374 182.6125 36.39375Q181.28438 34.9875 181.28438 32.45625Q181.28438 29.83125 182.62813 28.39375Q183.97188 26.940624 186.12813 26.940624Q188.20625 26.940624 189.51875 28.3625Q190.84688 29.76875 190.84688 32.346874Q190.84688 32.503124 190.83125 32.815624L183.09688 32.815624Q183.19063 34.51875 184.06563 35.425Q184.94063 36.33125 186.2375 36.33125Q187.20625 36.33125 187.87813 35.83125Q188.56563 35.315624 188.97188 34.20625ZM183.19063 31.3625L188.9875 31.3625Q188.87813 30.065624 188.33125 29.409374Q187.4875 28.39375 186.14375 28.39375Q184.94063 28.39375 184.1125 29.20625Q183.28438 30.003124 183.19063 31.3625Z" fill-rule="nonzero"/></svg>