<svg xmlns="http://www.w3.org/2000/svg" width="805" height="600"><rect width="805" height="600" x="0" y="0" fill="#FFFFFF" id="backgorund"/><g transform="translate(10,10)" id="visualization"><g><rect x="0" y="1.1368683772161603e-13" height="2.6834862385321685" width="5" fill="black"><title>access control: 3</title></rect><rect x="0" y="7.683486238532282" height="2.683486238532055" width="5" fill="black"><title>automotive industry: 3</title></rect><rect x="0" y="15.366972477064337" height="2.683486238532055" width="5" fill="black"><title>availability: 3</title></rect><rect x="0" y="23.050458715596392" height="2.683486238532055" width="5" fill="black"><title>intelligent control: 3</title></rect><rect x="0" y="30.733944954128447" height="2.683486238532055" width="5" fill="black"><title>physical systems: 3</title></rect><rect x="0" y="38.4174311926605" height="2.683486238532055" width="5" fill="black"><title>predictive models: 3</title></rect><rect x="0" y="46.100917431192556" height="2.683486238532055" width="5" fill="black"><title>prototypes: 3</title></rect><rect x="0" y="53.78440366972461" height="2.683486238532055" width="5" fill="black"><title>resilience: 3</title></rect><rect x="0" y="61.467889908256666" height="2.683486238532055" width="5" fill="black"><title>security analysis: 3</title></rect><rect x="0" y="69.15137614678872" height="2.683486238532055" width="5" fill="black"><title>synchronization: 3</title></rect><rect x="0" y="76.83486238532078" height="3.577981651376149" width="5" fill="black"><title>analytical models: 4</title></rect><rect x="0" y="85.41284403669692" height="3.577981651376149" width="5" fill="black"><title>automation: 4</title></rect><rect x="0" y="93.99082568807307" height="3.577981651376149" width="5" fill="black"><title>computational modeling: 4</title></rect><rect x="0" y="102.56880733944922" height="3.577981651376149" width="5" fill="black"><title>critical infrastructures: 4</title></rect><rect x="0" y="111.14678899082537" height="3.577981651376149" width="5" fill="black"><title>life cycle: 4</title></rect><rect x="0" y="119.72477064220152" height="3.577981651376149" width="5" fill="black"><title>monitoring: 4</title></rect><rect x="0" y="128.30275229357767" height="4.472477064220186" width="5" fill="black"><title>cloud computing: 5</title></rect><rect x="0" y="137.77522935779785" height="4.472477064220186" width="5" fill="black"><title>computer architecture: 5</title></rect><rect x="0" y="147.24770642201804" height="4.472477064220186" width="5" fill="black"><title>data models: 5</title></rect><rect x="0" y="156.72018348623823" height="4.472477064220186" width="5" fill="black"><title>integrated circuits: 5</title></rect><rect x="0" y="166.1926605504584" height="4.472477064220186" width="5" fill="black"><title>safety: 5</title></rect><rect x="0" y="175.6651376146786" height="4.472477064220186" width="5" fill="black"><title>security frameworks: 5</title></rect><rect x="0" y="185.13761467889879" height="5.366972477064223" width="5" fill="black"><title>e-learning: 6</title></rect><rect x="0" y="195.504587155963" height="5.366972477064223" width="5" fill="black"><title>machine learning: 6</title></rect><rect x="0" y="205.87155963302723" height="7.155963302752298" width="5" fill="black"><title>privacy: 8</title></rect><rect x="780" y="49.99999999999997" height="7.155963302752298" width="5" fill="black"><title>8: 8</title></rect><rect x="0" y="218.02752293577953" height="8.050458715596335" width="5" fill="black"><title>blockchain: 9</title></rect><rect x="780" y="62.15596330275227" height="8.050458715596335" width="5" fill="black"><title>9: 9</title></rect><rect x="0" y="231.07798165137586" height="8.944954128440372" width="5" fill="black"><title>anomaly detection: 10</title></rect><rect x="780" y="75.2064220183486" height="8.944954128440372" width="5" fill="black"><title>10: 10</title></rect><rect x="0" y="245.02293577981624" height="9.83944954128441" width="5" fill="black"><title>industries: 11</title></rect><rect x="780" y="89.15137614678898" height="9.83944954128441" width="5" fill="black"><title>11: 11</title></rect><rect x="780" y="103.99082568807339" height="10.733944954128447" width="5" fill="black"><title>6: 12</title></rect><rect x="0" y="259.86238532110065" height="11.628440366972484" width="5" fill="black"><title>industry 4.0: 13</title></rect><rect x="780" y="119.72477064220183" height="11.628440366972484" width="5" fill="black"><title>13: 13</title></rect><rect x="0" y="276.49082568807313" height="12.522935779816521" width="5" fill="black"><title>real- time: 14</title></rect><rect x="780" y="136.35321100917432" height="12.522935779816521" width="5" fill="black"><title>14: 14</title></rect><rect x="0" y="294.01376146788965" height="13.417431192660558" width="5" fill="black"><title>industrial control systems: 15</title></rect><rect x="780" y="153.87614678899084" height="13.417431192660558" width="5" fill="black"><title>15: 15</title></rect><rect x="0" y="312.4311926605502" height="14.311926605504595" width="5" fill="black"><title>embedded systems: 16</title></rect><rect x="780" y="172.2935779816514" height="14.311926605504595" width="5" fill="black"><title>16: 16</title></rect><rect x="0" y="331.7431192660548" height="15.206422018348633" width="5" fill="black"><title>smart grid: 17</title></rect><rect x="780" y="191.605504587156" height="15.206422018348633" width="5" fill="black"><title>17: 17</title></rect><rect x="0" y="351.94954128440344" height="16.995412844036707" width="5" fill="black"><title>internet of things: 19</title></rect><rect x="780" y="211.81192660550462" height="16.99541284403668" width="5" fill="black"><title>19: 19</title></rect><rect x="0" y="373.94495412844014" height="17.889908256880744" width="5" fill="black"><title>cyber attacks: 20</title></rect><rect x="780" y="233.8073394495413" height="17.889908256880744" width="5" fill="black"><title>20: 20</title></rect><rect x="0" y="396.8348623853209" height="21.467889908256893" width="5" fill="black"><title>cyber physical system: 24</title></rect><rect x="780" y="256.69724770642205" height="21.467889908256893" width="5" fill="black"><title>24: 24</title></rect><rect x="780" y="283.16513761467894" height="21.467889908256893" width="5" fill="black"><title>4: 24</title></rect><rect x="0" y="423.3027522935778" height="23.256880733944968" width="5" fill="black"><title>network security: 26</title></rect><rect x="780" y="309.63302752293583" height="23.25688073394491" width="5" fill="black"><title>26: 26</title></rect><rect x="780" y="337.88990825688074" height="26.834862385321117" width="5" fill="black"><title>5: 30</title></rect><rect x="780" y="369.72477064220186" height="26.834862385321117" width="5" fill="black"><title>3: 30</title></rect><rect x="0" y="451.55963302752275" height="59.036697247706456" width="5" fill="black"><title>cybersecurity: 66</title></rect><rect x="780" y="401.559633027523" height="59.036697247706456" width="5" fill="black"><title>66: 66</title></rect><rect x="0" y="515.5963302752292" height="64.40366972477068" width="5" fill="black"><title>digital twin: 72</title></rect><rect x="780" y="465.59633027522943" height="64.40366972477068" width="5" fill="black"><title>72: 72</title></rect></g><g fill="none" stroke-opacity="1"><g style="mix-blend-mode: multiply;"><path d="M5,547.7981651376145C392.5,547.7981651376145,392.5,497.7981651376148,780,497.7981651376148" stroke="#cccccc" stroke-width="64.40366972477064"/><title>digital twin → 72: 72</title></g><g style="mix-blend-mode: multiply;"><path d="M5,481.077981651376C392.5,481.077981651376,392.5,431.0779816513762,780,431.0779816513762" stroke="#cccccc" stroke-width="59.03669724770642"/><title>cybersecurity → 66: 66</title></g><g style="mix-blend-mode: multiply;"><path d="M5,434.93119266055027C392.5,434.93119266055027,392.5,321.2614678899083,780,321.2614678899083" stroke="#cccccc" stroke-width="23.256880733944953"/><title>network security → 26: 26</title></g><g style="mix-blend-mode: multiply;"><path d="M5,407.56880733944934C392.5,407.56880733944934,392.5,267.4311926605505,780,267.4311926605505" stroke="#cccccc" stroke-width="21.46788990825688"/><title>cyber physical system → 24: 24</title></g><g style="mix-blend-mode: multiply;"><path d="M5,382.8899082568805C392.5,382.8899082568805,392.5,242.75229357798167,780,242.75229357798167" stroke="#cccccc" stroke-width="17.889908256880734"/><title>cyber attacks → 20: 20</title></g><g style="mix-blend-mode: multiply;"><path d="M5,360.44724770642176C392.5,360.44724770642176,392.5,220.30963302752298,780,220.30963302752298" stroke="#cccccc" stroke-width="16.995412844036696"/><title>internet of things → 19: 19</title></g><g style="mix-blend-mode: multiply;"><path d="M5,339.3463302752291C392.5,339.3463302752291,392.5,199.2087155963303,780,199.2087155963303" stroke="#cccccc" stroke-width="15.206422018348624"/><title>smart grid → 17: 17</title></g><g style="mix-blend-mode: multiply;"><path d="M5,319.5871559633025C392.5,319.5871559633025,392.5,179.4495412844037,780,179.4495412844037" stroke="#cccccc" stroke-width="14.311926605504587"/><title>embedded systems → 16: 16</title></g><g style="mix-blend-mode: multiply;"><path d="M5,300.7224770642199C392.5,300.7224770642199,392.5,160.58486238532112,780,160.58486238532112" stroke="#cccccc" stroke-width="13.41743119266055"/><title>industrial control systems → 15: 15</title></g><g style="mix-blend-mode: multiply;"><path d="M5,282.7522935779814C392.5,282.7522935779814,392.5,142.61467889908258,780,142.61467889908258" stroke="#cccccc" stroke-width="12.522935779816514"/><title>real- time → 14: 14</title></g><g style="mix-blend-mode: multiply;"><path d="M5,265.67660550458686C392.5,265.67660550458686,392.5,125.53899082568807,780,125.53899082568807" stroke="#cccccc" stroke-width="11.628440366972477"/><title>industry 4.0 → 13: 13</title></g><g style="mix-blend-mode: multiply;"><path d="M5,249.94266055045844C392.5,249.94266055045844,392.5,94.07110091743118,780,94.07110091743118" stroke="#cccccc" stroke-width="9.839449541284404"/><title>industries → 11: 11</title></g><g style="mix-blend-mode: multiply;"><path d="M5,235.55045871559605C392.5,235.55045871559605,392.5,79.67889908256879,780,79.67889908256879" stroke="#2ca02c" stroke-width="8.944954128440367"/><title>anomaly detection → 10: 10</title></g><g style="mix-blend-mode: multiply;"><path d="M5,222.0527522935777C392.5,222.0527522935777,392.5,66.18119266055044,780,66.18119266055044" stroke="#e377c2" stroke-width="8.05045871559633"/><title>blockchain → 9: 9</title></g><g style="mix-blend-mode: multiply;"><path d="M5,209.44954128440338C392.5,209.44954128440338,392.5,53.57798165137612,780,53.57798165137612" stroke="#cccccc" stroke-width="7.155963302752293"/><title>privacy → 8: 8</title></g><g style="mix-blend-mode: multiply;"><path d="M5,187.8211009174309C392.5,187.8211009174309,392.5,106.6743119266055,780,106.6743119266055" stroke="#cccccc" stroke-width="5.36697247706422"/><title>e-learning → 6: 6</title></g><g style="mix-blend-mode: multiply;"><path d="M5,198.18807339449512C392.5,198.18807339449512,392.5,112.04128440366972,780,112.04128440366972" stroke="#cccccc" stroke-width="5.36697247706422"/><title>machine learning → 6: 6</title></g><g style="mix-blend-mode: multiply;"><path d="M5,130.53899082568776C392.5,130.53899082568776,392.5,340.1261467889908,780,340.1261467889908" stroke="#7f7f7f" stroke-width="4.472477064220183"/><title>cloud computing → 5: 5</title></g><g style="mix-blend-mode: multiply;"><path d="M5,140.01146788990795C392.5,140.01146788990795,392.5,344.598623853211,780,344.598623853211" stroke="#17becf" stroke-width="4.472477064220183"/><title>computer architecture → 5: 5</title></g><g style="mix-blend-mode: multiply;"><path d="M5,149.48394495412813C392.5,149.48394495412813,392.5,349.0711009174312,780,349.0711009174312" stroke="#cccccc" stroke-width="4.472477064220183"/><title>data models → 5: 5</title></g><g style="mix-blend-mode: multiply;"><path d="M5,158.95642201834832C392.5,158.95642201834832,392.5,353.54357798165137,780,353.54357798165137" stroke="#cccccc" stroke-width="4.472477064220183"/><title>integrated circuits → 5: 5</title></g><g style="mix-blend-mode: multiply;"><path d="M5,168.4288990825685C392.5,168.4288990825685,392.5,358.01605504587155,780,358.01605504587155" stroke="#cccccc" stroke-width="4.472477064220183"/><title>safety → 5: 5</title></g><g style="mix-blend-mode: multiply;"><path d="M5,177.9013761467887C392.5,177.9013761467887,392.5,362.48853211009174,780,362.48853211009174" stroke="#cccccc" stroke-width="4.472477064220183"/><title>security frameworks → 5: 5</title></g><g style="mix-blend-mode: multiply;"><path d="M5,78.62385321100885C392.5,78.62385321100885,392.5,284.954128440367,780,284.954128440367" stroke="#ff7f0e" stroke-width="3.5779816513761467"/><title>analytical models → 4: 4</title></g><g style="mix-blend-mode: multiply;"><path d="M5,87.201834862385C392.5,87.201834862385,392.5,288.53211009174316,780,288.53211009174316" stroke="#d62728" stroke-width="3.5779816513761467"/><title>automation → 4: 4</title></g><g style="mix-blend-mode: multiply;"><path d="M5,95.77981651376115C392.5,95.77981651376115,392.5,292.1100917431193,780,292.1100917431193" stroke="#bcbd22" stroke-width="3.5779816513761467"/><title>computational modeling → 4: 4</title></g><g style="mix-blend-mode: multiply;"><path d="M5,104.3577981651373C392.5,104.3577981651373,392.5,295.68807339449546,780,295.68807339449546" stroke="#cccccc" stroke-width="3.5779816513761467"/><title>critical infrastructures → 4: 4</title></g><g style="mix-blend-mode: multiply;"><path d="M5,112.93577981651345C392.5,112.93577981651345,392.5,299.2660550458716,780,299.2660550458716" stroke="#cccccc" stroke-width="3.5779816513761467"/><title>life cycle → 4: 4</title></g><g style="mix-blend-mode: multiply;"><path d="M5,121.5137614678896C392.5,121.5137614678896,392.5,302.84403669724776,780,302.84403669724776" stroke="#cccccc" stroke-width="3.5779816513761467"/><title>monitoring → 4: 4</title></g><g style="mix-blend-mode: multiply;"><path d="M5,1.3417431192661686C392.5,1.3417431192661686,392.5,371.0665137614679,780,371.0665137614679" stroke="#1f77b4" stroke-width="2.68348623853211"/><title>access control → 3: 3</title></g><g style="mix-blend-mode: multiply;"><path d="M5,9.025229357798338C392.5,9.025229357798338,392.5,373.75,780,373.75" stroke="#9467bd" stroke-width="2.68348623853211"/><title>automotive industry → 3: 3</title></g><g style="mix-blend-mode: multiply;"><path d="M5,16.708715596330393C392.5,16.708715596330393,392.5,376.4334862385321,780,376.4334862385321" stroke="#8c564b" stroke-width="2.68348623853211"/><title>availability → 3: 3</title></g><g style="mix-blend-mode: multiply;"><path d="M5,24.392201834862448C392.5,24.392201834862448,392.5,379.1169724770642,780,379.1169724770642" stroke="#cccccc" stroke-width="2.68348623853211"/><title>intelligent control → 3: 3</title></g><g style="mix-blend-mode: multiply;"><path d="M5,32.0756880733945C392.5,32.0756880733945,392.5,381.80045871559633,780,381.80045871559633" stroke="#cccccc" stroke-width="2.68348623853211"/><title>physical systems → 3: 3</title></g><g style="mix-blend-mode: multiply;"><path d="M5,39.75917431192656C392.5,39.75917431192656,392.5,384.48394495412845,780,384.48394495412845" stroke="#cccccc" stroke-width="2.68348623853211"/><title>predictive models → 3: 3</title></g><g style="mix-blend-mode: multiply;"><path d="M5,47.44266055045861C392.5,47.44266055045861,392.5,387.16743119266056,780,387.16743119266056" stroke="#cccccc" stroke-width="2.68348623853211"/><title>prototypes → 3: 3</title></g><g style="mix-blend-mode: multiply;"><path d="M5,55.12614678899067C392.5,55.12614678899067,392.5,389.85091743119267,780,389.85091743119267" stroke="#cccccc" stroke-width="2.68348623853211"/><title>resilience → 3: 3</title></g><g style="mix-blend-mode: multiply;"><path d="M5,62.80963302752272C392.5,62.80963302752272,392.5,392.5344036697248,780,392.5344036697248" stroke="#cccccc" stroke-width="2.68348623853211"/><title>security analysis → 3: 3</title></g><g style="mix-blend-mode: multiply;"><path d="M5,70.49311926605478C392.5,70.49311926605478,392.5,395.2178899082569,780,395.2178899082569" stroke="#cccccc" stroke-width="2.68348623853211"/><title>synchronization → 3: 3</title></g></g><g><text x="9" y="1.341743119266198" text-anchor="start"><tspan alignment-baseline="middle" x="9" style="font-family: Arial, sans-serif; font-size: 10px; fill: black; font-weight: bold;">access control</tspan></text><text x="9" y="9.02522935779831" text-anchor="start"><tspan alignment-baseline="middle" x="9" style="font-family: Arial, sans-serif; font-size: 10px; fill: black; font-weight: bold;">automotive industry</tspan></text><text x="9" y="16.708715596330364" text-anchor="start"><tspan alignment-baseline="middle" x="9" style="font-family: Arial, sans-serif; font-size: 10px; fill: black; font-weight: bold;">availability</tspan></text><text x="9" y="24.39220183486242" text-anchor="start"><tspan alignment-baseline="middle" x="9" style="font-family: Arial, sans-serif; font-size: 10px; fill: black; font-weight: bold;">intelligent control</tspan></text><text x="9" y="32.075688073394474" text-anchor="start"><tspan alignment-baseline="middle" x="9" style="font-family: Arial, sans-serif; font-size: 10px; fill: black; font-weight: bold;">physical systems</tspan></text><text x="9" y="39.75917431192653" text-anchor="start"><tspan alignment-baseline="middle" x="9" style="font-family: Arial, sans-serif; font-size: 10px; fill: black; font-weight: bold;">predictive models</tspan></text><text x="9" y="47.442660550458584" text-anchor="start"><tspan alignment-baseline="middle" x="9" style="font-family: Arial, sans-serif; font-size: 10px; fill: black; font-weight: bold;">prototypes</tspan></text><text x="9" y="55.12614678899064" text-anchor="start"><tspan alignment-baseline="middle" x="9" style="font-family: Arial, sans-serif; font-size: 10px; fill: black; font-weight: bold;">resilience</tspan></text><text x="9" y="62.80963302752269" text-anchor="start"><tspan alignment-baseline="middle" x="9" style="font-family: Arial, sans-serif; font-size: 10px; fill: black; font-weight: bold;">security analysis</tspan></text><text x="9" y="70.49311926605475" text-anchor="start"><tspan alignment-baseline="middle" x="9" style="font-family: Arial, sans-serif; font-size: 10px; fill: black; font-weight: bold;">synchronization</tspan></text><text x="9" y="78.62385321100885" text-anchor="start"><tspan alignment-baseline="middle" x="9" style="font-family: Arial, sans-serif; font-size: 10px; fill: black; font-weight: bold;">analytical models</tspan></text><text x="9" y="87.201834862385" text-anchor="start"><tspan alignment-baseline="middle" x="9" style="font-family: Arial, sans-serif; font-size: 10px; fill: black; font-weight: bold;">automation</tspan></text><text x="9" y="95.77981651376115" text-anchor="start"><tspan alignment-baseline="middle" x="9" style="font-family: Arial, sans-serif; font-size: 10px; fill: black; font-weight: bold;">computational modeling</tspan></text><text x="9" y="104.3577981651373" text-anchor="start"><tspan alignment-baseline="middle" x="9" style="font-family: Arial, sans-serif; font-size: 10px; fill: black; font-weight: bold;">critical infrastructures</tspan></text><text x="9" y="112.93577981651345" text-anchor="start"><tspan alignment-baseline="middle" x="9" style="font-family: Arial, sans-serif; font-size: 10px; fill: black; font-weight: bold;">life cycle</tspan></text><text x="9" y="121.5137614678896" text-anchor="start"><tspan alignment-baseline="middle" x="9" style="font-family: Arial, sans-serif; font-size: 10px; fill: black; font-weight: bold;">monitoring</tspan></text><text x="9" y="130.53899082568776" text-anchor="start"><tspan alignment-baseline="middle" x="9" style="font-family: Arial, sans-serif; font-size: 10px; fill: black; font-weight: bold;">cloud computing</tspan></text><text x="9" y="140.01146788990795" text-anchor="start"><tspan alignment-baseline="middle" x="9" style="font-family: Arial, sans-serif; font-size: 10px; fill: black; font-weight: bold;">computer architecture</tspan></text><text x="9" y="149.48394495412813" text-anchor="start"><tspan alignment-baseline="middle" x="9" style="font-family: Arial, sans-serif; font-size: 10px; fill: black; font-weight: bold;">data models</tspan></text><text x="9" y="158.95642201834832" text-anchor="start"><tspan alignment-baseline="middle" x="9" style="font-family: Arial, sans-serif; font-size: 10px; fill: black; font-weight: bold;">integrated circuits</tspan></text><text x="9" y="168.4288990825685" text-anchor="start"><tspan alignment-baseline="middle" x="9" style="font-family: Arial, sans-serif; font-size: 10px; fill: black; font-weight: bold;">safety</tspan></text><text x="9" y="177.9013761467887" text-anchor="start"><tspan alignment-baseline="middle" x="9" style="font-family: Arial, sans-serif; font-size: 10px; fill: black; font-weight: bold;">security frameworks</tspan></text><text x="9" y="187.8211009174309" text-anchor="start"><tspan alignment-baseline="middle" x="9" style="font-family: Arial, sans-serif; font-size: 10px; fill: black; font-weight: bold;">e-learning</tspan></text><text x="9" y="198.18807339449512" text-anchor="start"><tspan alignment-baseline="middle" x="9" style="font-family: Arial, sans-serif; font-size: 10px; fill: black; font-weight: bold;">machine learning</tspan></text><text x="9" y="209.44954128440338" text-anchor="start"><tspan alignment-baseline="middle" x="9" style="font-family: Arial, sans-serif; font-size: 10px; fill: black; font-weight: bold;">privacy</tspan></text><text x="776" y="53.57798165137612" text-anchor="end"><tspan alignment-baseline="middle" x="776" style="font-family: Arial, sans-serif; font-size: 10px; fill: black; font-weight: bold;">8</tspan></text><text x="9" y="222.0527522935777" text-anchor="start"><tspan alignment-baseline="middle" x="9" style="font-family: Arial, sans-serif; font-size: 10px; fill: black; font-weight: bold;">blockchain</tspan></text><text x="776" y="66.18119266055044" text-anchor="end"><tspan alignment-baseline="middle" x="776" style="font-family: Arial, sans-serif; font-size: 10px; fill: black; font-weight: bold;">9</tspan></text><text x="9" y="235.55045871559605" text-anchor="start"><tspan alignment-baseline="middle" x="9" style="font-family: Arial, sans-serif; font-size: 10px; fill: black; font-weight: bold;">anomaly detection</tspan></text><text x="776" y="79.67889908256879" text-anchor="end"><tspan alignment-baseline="middle" x="776" style="font-family: Arial, sans-serif; font-size: 10px; fill: black; font-weight: bold;">10</tspan></text><text x="9" y="249.94266055045844" text-anchor="start"><tspan alignment-baseline="middle" x="9" style="font-family: Arial, sans-serif; font-size: 10px; fill: black; font-weight: bold;">industries</tspan></text><text x="776" y="94.07110091743118" text-anchor="end"><tspan alignment-baseline="middle" x="776" style="font-family: Arial, sans-serif; font-size: 10px; fill: black; font-weight: bold;">11</tspan></text><text x="776" y="109.35779816513761" text-anchor="end"><tspan alignment-baseline="middle" x="776" style="font-family: Arial, sans-serif; font-size: 10px; fill: black; font-weight: bold;">6</tspan></text><text x="9" y="265.67660550458686" text-anchor="start"><tspan alignment-baseline="middle" x="9" style="font-family: Arial, sans-serif; font-size: 10px; fill: black; font-weight: bold;">industry 4.0</tspan></text><text x="776" y="125.53899082568807" text-anchor="end"><tspan alignment-baseline="middle" x="776" style="font-family: Arial, sans-serif; font-size: 10px; fill: black; font-weight: bold;">13</tspan></text><text x="9" y="282.7522935779814" text-anchor="start"><tspan alignment-baseline="middle" x="9" style="font-family: Arial, sans-serif; font-size: 10px; fill: black; font-weight: bold;">real- time</tspan></text><text x="776" y="142.61467889908258" text-anchor="end"><tspan alignment-baseline="middle" x="776" style="font-family: Arial, sans-serif; font-size: 10px; fill: black; font-weight: bold;">14</tspan></text><text x="9" y="300.7224770642199" text-anchor="start"><tspan alignment-baseline="middle" x="9" style="font-family: Arial, sans-serif; font-size: 10px; fill: black; font-weight: bold;">industrial control systems</tspan></text><text x="776" y="160.58486238532112" text-anchor="end"><tspan alignment-baseline="middle" x="776" style="font-family: Arial, sans-serif; font-size: 10px; fill: black; font-weight: bold;">15</tspan></text><text x="9" y="319.5871559633025" text-anchor="start"><tspan alignment-baseline="middle" x="9" style="font-family: Arial, sans-serif; font-size: 10px; fill: black; font-weight: bold;">embedded systems</tspan></text><text x="776" y="179.4495412844037" text-anchor="end"><tspan alignment-baseline="middle" x="776" style="font-family: Arial, sans-serif; font-size: 10px; fill: black; font-weight: bold;">16</tspan></text><text x="9" y="339.3463302752291" text-anchor="start"><tspan alignment-baseline="middle" x="9" style="font-family: Arial, sans-serif; font-size: 10px; fill: black; font-weight: bold;">smart grid</tspan></text><text x="776" y="199.2087155963303" text-anchor="end"><tspan alignment-baseline="middle" x="776" style="font-family: Arial, sans-serif; font-size: 10px; fill: black; font-weight: bold;">17</tspan></text><text x="9" y="360.44724770642176" text-anchor="start"><tspan alignment-baseline="middle" x="9" style="font-family: Arial, sans-serif; font-size: 10px; fill: black; font-weight: bold;">internet of things</tspan></text><text x="776" y="220.30963302752298" text-anchor="end"><tspan alignment-baseline="middle" x="776" style="font-family: Arial, sans-serif; font-size: 10px; fill: black; font-weight: bold;">19</tspan></text><text x="9" y="382.8899082568805" text-anchor="start"><tspan alignment-baseline="middle" x="9" style="font-family: Arial, sans-serif; font-size: 10px; fill: black; font-weight: bold;">cyber attacks</tspan></text><text x="776" y="242.75229357798167" text-anchor="end"><tspan alignment-baseline="middle" x="776" style="font-family: Arial, sans-serif; font-size: 10px; fill: black; font-weight: bold;">20</tspan></text><text x="9" y="407.56880733944934" text-anchor="start"><tspan alignment-baseline="middle" x="9" style="font-family: Arial, sans-serif; font-size: 10px; fill: black; font-weight: bold;">cyber physical system</tspan></text><text x="776" y="267.4311926605505" text-anchor="end"><tspan alignment-baseline="middle" x="776" style="font-family: Arial, sans-serif; font-size: 10px; fill: black; font-weight: bold;">24</tspan></text><text x="776" y="293.8990825688074" text-anchor="end"><tspan alignment-baseline="middle" x="776" style="font-family: Arial, sans-serif; font-size: 10px; fill: black; font-weight: bold;">4</tspan></text><text x="9" y="434.93119266055027" text-anchor="start"><tspan alignment-baseline="middle" x="9" style="font-family: Arial, sans-serif; font-size: 10px; fill: black; font-weight: bold;">network security</tspan></text><text x="776" y="321.2614678899083" text-anchor="end"><tspan alignment-baseline="middle" x="776" style="font-family: Arial, sans-serif; font-size: 10px; fill: black; font-weight: bold;">26</tspan></text><text x="776" y="351.3073394495413" text-anchor="end"><tspan alignment-baseline="middle" x="776" style="font-family: Arial, sans-serif; font-size: 10px; fill: black; font-weight: bold;">5</tspan></text><text x="776" y="383.1422018348624" text-anchor="end"><tspan alignment-baseline="middle" x="776" style="font-family: Arial, sans-serif; font-size: 10px; fill: black; font-weight: bold;">3</tspan></text><text x="9" y="481.077981651376" text-anchor="start"><tspan alignment-baseline="middle" x="9" style="font-family: Arial, sans-serif; font-size: 10px; fill: black; font-weight: bold;">cybersecurity</tspan></text><text x="776" y="431.0779816513762" text-anchor="end"><tspan alignment-baseline="middle" x="776" style="font-family: Arial, sans-serif; font-size: 10px; fill: black; font-weight: bold;">66</tspan></text><text x="9" y="547.7981651376145" text-anchor="start"><tspan alignment-baseline="middle" x="9" style="font-family: Arial, sans-serif; font-size: 10px; fill: black; font-weight: bold;">digital twin</tspan></text><text x="776" y="497.7981651376148" text-anchor="end"><tspan alignment-baseline="middle" x="776" style="font-family: Arial, sans-serif; font-size: 10px; fill: black; font-weight: bold;">72</tspan></text></g><g><text x="2.5" y="-3.9999999999998863" text-anchor="middle" style="font-family: Arial, sans-serif; font-size: 12px; fill: rgb(123, 123, 123); font-weight: bold;">Keyword</text><text x="782.5" y="45.99999999999997" text-anchor="middle" style="font-family: Arial, sans-serif; font-size: 12px; fill: rgb(123, 123, 123); font-weight: bold;">Occurrence</text></g></g></svg>