<svg xmlns="http://www.w3.org/2000/svg" width="805" height="600"><rect width="805" height="600" x="0" y="0" fill="#FFFFFF" id="backgorund"/><g transform="translate(20,20)" id="viz"><g id="nodes"><g transform="translate(383.5,281)"><path id="p_944.5" d="M-5.143516556418883e-14,280A280,280,0,1,1,5.143516556418883e-14,-280A280,280,0,1,1,-5.143516556418883e-14,280Z" fill="none" stroke="#ccc"/><text fill="black" text-anchor="middle" font-family="'Arial', sans-serif" font-size="8" dominant-baseline="middle"><textPath href="#p_944.5" startOffset="50%"/></text></g><g transform="translate(294.68943916615797,268.35036713509436)" id="digital twin"><path id="p_645.9751587684341" d="M-1.5234977090263745e-14,82.93535246718172A82.93535246718172,82.93535246718172,0,1,1,1.5234977090263745e-14,-82.93535246718172A82.93535246718172,82.93535246718172,0,1,1,-1.5234977090263745e-14,82.93535246718172Z" fill="none" stroke="#ccc"/><text fill="black" text-anchor="middle" font-family="'Arial', sans-serif" font-size="8" dominant-baseline="middle"><textPath href="#p_645.9751587684341" startOffset="50%">digital twin</textPath></text></g><g transform="translate(461.9206702322499,268.35036713509436)" id="cybersecurity"><path id="p_809.8753265417705" d="M-1.4623070690379227e-14,79.60428917442634A79.60428917442634,79.60428917442634,0,1,1,1.4623070690379227e-14,-79.60428917442634A79.60428917442634,79.60428917442634,0,1,1,-1.4623070690379227e-14,79.60428917442634Z" fill="none" stroke="#ccc"/><text fill="black" text-anchor="middle" font-family="'Arial', sans-serif" font-size="8" dominant-baseline="middle"><textPath href="#p_809.8753265417705" startOffset="50%">cybersecurity</textPath></text></g><g transform="translate(381.0473234461497,377.6991938452743)" id="network security"><path id="p_810.4567566551914" d="M-9.49901686799719e-15,51.71023936376745A51.71023936376745,51.71023936376745,0,1,1,9.49901686799719e-15,-51.71023936376745A51.71023936376745,51.71023936376745,0,1,1,-9.49901686799719e-15,51.71023936376745Z" fill="none" stroke="#ccc"/><text fill="black" text-anchor="middle" font-family="'Arial', sans-serif" font-size="8" dominant-baseline="middle"><textPath href="#p_810.4567566551914" startOffset="50%">network security</textPath></text></g><g transform="translate(381.01058118449953,161.33227304503285)" id="cyber physical system"><path id="p_592.2085013091271" d="M-9.160170762515595e-15,49.86564707959478A49.86564707959478,49.86564707959478,0,1,1,9.160170762515595e-15,-49.86564707959478A49.86564707959478,49.86564707959478,0,1,1,-9.160170762515595e-15,49.86564707959478Z" fill="none" stroke="#ccc"/><text fill="black" text-anchor="middle" font-family="'Arial', sans-serif" font-size="8" dominant-baseline="middle"><textPath href="#p_592.2085013091271" startOffset="50%">cyber physical system</textPath></text></g><g transform="translate(283.974553560809,135.22425881109066)" id="cyber attacks"><path id="p_465.12848578262214" d="M-8.43714412924869e-15,45.9296734107225A45.9296734107225,45.9296734107225,0,1,1,8.43714412924869e-15,-45.9296734107225A45.9296734107225,45.9296734107225,0,1,1,-8.43714412924869e-15,45.9296734107225Z" fill="none" stroke="#ccc"/><text fill="black" text-anchor="middle" font-family="'Arial', sans-serif" font-size="8" dominant-baseline="middle"><textPath href="#p_465.12848578262214" startOffset="50%">cyber attacks</textPath></text></g><g transform="translate(282.3098824636544,400.28328308047963)" id="internet of things"><path id="p_727.4786673474007" d="M-8.245332916723987e-15,44.88550180326665A44.88550180326665,44.88550180326665,0,1,1,8.245332916723987e-15,-44.88550180326665A44.88550180326665,44.88550180326665,0,1,1,-8.245332916723987e-15,44.88550180326665Z" fill="none" stroke="#ccc"/><text fill="black" text-anchor="middle" font-family="'Arial', sans-serif" font-size="8" dominant-baseline="middle"><textPath href="#p_727.4786673474007" startOffset="50%">internet of things</textPath></text></g><g transform="translate(476.3724719147494,142.16815914958508)" id="smart grid"><path id="p_661.2518553532888" d="M-7.845924616969896e-15,42.71122428895436A42.71122428895436,42.71122428895436,0,1,1,7.845924616969896e-15,-42.71122428895436A42.71122428895436,42.71122428895436,0,1,1,-7.845924616969896e-15,42.71122428895436Z" fill="none" stroke="#ccc"/><text fill="black" text-anchor="middle" font-family="'Arial', sans-serif" font-size="8" dominant-baseline="middle"><textPath href="#p_661.2518553532888" startOffset="50%">smart grid</textPath></text></g><g transform="translate(477.78835800885247,393.2181358377287)" id="embedded systems"><path id="p_912.5825468930951" d="M-7.637397042689072e-15,41.576053046513906A41.576053046513906,41.576053046513906,0,1,1,7.637397042689072e-15,-41.576053046513906A41.576053046513906,41.576053046513906,0,1,1,-7.637397042689072e-15,41.576053046513906Z" fill="none" stroke="#ccc"/><text fill="black" text-anchor="middle" font-family="'Arial', sans-serif" font-size="8" dominant-baseline="middle"><textPath href="#p_912.5825468930951" startOffset="50%">embedded systems</textPath></text></g><g transform="translate(203.7479836396239,178.22943090933293)" id="industrial control systems"><path id="p_422.38223230891964" d="M-7.42224461098058e-15,40.404817759962775A40.404817759962775,40.404817759962775,0,1,1,7.42224461098058e-15,-40.404817759962775A40.404817759962775,40.404817759962775,0,1,1,-7.42224461098058e-15,40.404817759962775Z" fill="none" stroke="#ccc"/><text fill="black" text-anchor="middle" font-family="'Arial', sans-serif" font-size="8" dominant-baseline="middle"><textPath href="#p_422.38223230891964" startOffset="50%">industrial control systems</textPath></text></g><g transform="translate(204.51520978242266,357.5250303678916)" id="real- time"><path id="p_601.234086016939" d="M-7.1997926830255e-15,39.19384586662471A39.19384586662471,39.19384586662471,0,1,1,7.1997926830255e-15,-39.19384586662471A39.19384586662471,39.19384586662471,0,1,1,-7.1997926830255e-15,39.19384586662471Z" fill="none" stroke="#ccc"/><text fill="black" text-anchor="middle" font-family="'Arial', sans-serif" font-size="8" dominant-baseline="middle"><textPath href="#p_601.234086016939" startOffset="50%">real- time</textPath></text></g><g transform="translate(550.6202115323049,184.24503461000427)" id="industry 4.0"><path id="p_772.8040417810969" d="M-6.969243696382045e-15,37.93879563878774A37.93879563878774,37.93879563878774,0,1,1,6.969243696382045e-15,-37.93879563878774A37.93879563878774,37.93879563878774,0,1,1,-6.969243696382045e-15,37.93879563878774Z" fill="none" stroke="#ccc"/><text fill="black" text-anchor="middle" font-family="'Arial', sans-serif" font-size="8" dominant-baseline="middle"><textPath href="#p_772.8040417810969" startOffset="50%">industry 4.0</textPath></text></g><g transform="translate(547.8490527892294,351.49725821313314)" id="industries"><path id="p_934.6208820337931" d="M-6.479833575740606e-15,35.274571031430554A35.274571031430554,35.274571031430554,0,1,1,6.479833575740606e-15,-35.274571031430554A35.274571031430554,35.274571031430554,0,1,1,-6.479833575740606e-15,35.274571031430554Z" fill="none" stroke="#ccc"/><text fill="black" text-anchor="middle" font-family="'Arial', sans-serif" font-size="8" dominant-baseline="middle"><textPath href="#p_934.6208820337931" startOffset="50%">industries</textPath></text></g><g transform="translate(347.4841424621069,79.52731927658581)" id="anomaly detection"><path id="p_460.86277999298625" d="M-6.21838628205585e-15,33.85131825429358A33.85131825429358,33.85131825429358,0,1,1,6.21838628205585e-15,-33.85131825429358A33.85131825429358,33.85131825429358,0,1,1,-6.21838628205585e-15,33.85131825429358Z" fill="none" stroke="#ccc"/><text fill="black" text-anchor="middle" font-family="'Arial', sans-serif" font-size="8" dominant-baseline="middle"><textPath href="#p_460.86277999298625" startOffset="50%">anomaly detection</textPath></text></g><g transform="translate(421.40423351675537,84.37722916242396)" id="blockchain"><path id="p_538.1363998201857" d="M-5.9435055309520946e-15,32.354937141006396A32.354937141006396,32.354937141006396,0,1,1,5.9435055309520946e-15,-32.354937141006396A32.354937141006396,32.354937141006396,0,1,1,-5.9435055309520946e-15,32.354937141006396Z" fill="none" stroke="#ccc"/><text fill="black" text-anchor="middle" font-family="'Arial', sans-serif" font-size="8" dominant-baseline="middle"><textPath href="#p_538.1363998201857" startOffset="50%">blockchain</textPath></text></g><g transform="translate(341.01921044841134,455.1406149701221)" id="privacy"><path id="p_826.9326691905833" d="M-5.652879693915359e-15,30.77284377204984A30.77284377204984,30.77284377204984,0,1,1,5.652879693915359e-15,-30.77284377204984A30.77284377204984,30.77284377204984,0,1,1,-5.652879693915359e-15,30.77284377204984Z" fill="none" stroke="#ccc"/><text fill="black" text-anchor="middle" font-family="'Arial', sans-serif" font-size="8" dominant-baseline="middle"><textPath href="#p_826.9326691905833" startOffset="50%">privacy</textPath></text></g><g transform="translate(427.76026143818115,447.127708455739)" id="e-learning"><path id="p_902.1665881459595" d="M-5.01100087912838e-15,27.278618252039333A27.278618252039333,27.278618252039333,0,1,1,5.01100087912838e-15,-27.278618252039333A27.278618252039333,27.278618252039333,0,1,1,-5.01100087912838e-15,27.278618252039333Z" fill="none" stroke="#ccc"/><text fill="black" text-anchor="middle" font-family="'Arial', sans-serif" font-size="8" dominant-baseline="middle"><textPath href="#p_902.1665881459595" startOffset="50%">e-learning</textPath></text></g><g transform="translate(181.75082558117924,247.18064079200138)" id="machine learning"><path id="p_456.21008462521996" d="M-5.01100087912838e-15,27.278618252039333A27.278618252039333,27.278618252039333,0,1,1,5.01100087912838e-15,-27.278618252039333A27.278618252039333,27.278618252039333,0,1,1,-5.01100087912838e-15,27.278618252039333Z" fill="none" stroke="#ccc"/><text fill="black" text-anchor="middle" font-family="'Arial', sans-serif" font-size="8" dominant-baseline="middle"><textPath href="#p_456.21008462521996" startOffset="50%">machine learning</textPath></text></g><g transform="translate(163.79931704196383,301.5758415774905)" id="cloud computing"><path id="p_490.68579003705753" d="M-4.6494875624949274e-15,25.310631417603194A25.310631417603194,25.310631417603194,0,1,1,4.6494875624949274e-15,-25.310631417603194A25.310631417603194,25.310631417603194,0,1,1,-4.6494875624949274e-15,25.310631417603194Z" fill="none" stroke="#ccc"/><text fill="black" text-anchor="middle" font-family="'Arial', sans-serif" font-size="8" dominant-baseline="middle"><textPath href="#p_490.68579003705753" startOffset="50%">cloud computing</textPath></text></g><g transform="translate(569.3923092291675,289.87788090971014)" id="computer architecture"><path id="p_884.5808215564808" d="M-4.6494875624949274e-15,25.310631417603194A25.310631417603194,25.310631417603194,0,1,1,4.6494875624949274e-15,-25.310631417603194A25.310631417603194,25.310631417603194,0,1,1,-4.6494875624949274e-15,25.310631417603194Z" fill="none" stroke="#ccc"/><text fill="black" text-anchor="middle" font-family="'Arial', sans-serif" font-size="8" dominant-baseline="middle"><textPath href="#p_884.5808215564808" startOffset="50%">computer architecture</textPath></text></g><g transform="translate(590.9347822782094,238.93248386509356)" id="data models"><path id="p_855.1778975609061" d="M-4.6494875624949274e-15,25.310631417603194A25.310631417603194,25.310631417603194,0,1,1,4.6494875624949274e-15,-25.310631417603194A25.310631417603194,25.310631417603194,0,1,1,-4.6494875624949274e-15,25.310631417603194Z" fill="none" stroke="#ccc"/><text fill="black" text-anchor="middle" font-family="'Arial', sans-serif" font-size="8" dominant-baseline="middle"><textPath href="#p_855.1778975609061" startOffset="50%">data models</textPath></text></g><g transform="translate(389.06042793341044,31.06406575867095)" id="integrated circuits"><path id="p_445.4351251096846" d="M-4.6494875624949274e-15,25.310631417603194A25.310631417603194,25.310631417603194,0,1,1,4.6494875624949274e-15,-25.310631417603194A25.310631417603194,25.310631417603194,0,1,1,-4.6494875624949274e-15,25.310631417603194Z" fill="none" stroke="#ccc"/><text fill="black" text-anchor="middle" font-family="'Arial', sans-serif" font-size="8" dominant-baseline="middle"><textPath href="#p_445.4351251096846" startOffset="50%">integrated circuits</textPath></text></g><g transform="translate(390.40924569905025,490.55576563750117)" id="safety"><path id="p_906.2756427541547" d="M-4.6494875624949274e-15,25.310631417603194A25.310631417603194,25.310631417603194,0,1,1,4.6494875624949274e-15,-25.310631417603194A25.310631417603194,25.310631417603194,0,1,1,-4.6494875624949274e-15,25.310631417603194Z" fill="none" stroke="#ccc"/><text fill="black" text-anchor="middle" font-family="'Arial', sans-serif" font-size="8" dominant-baseline="middle"><textPath href="#p_906.2756427541547" startOffset="50%">safety</textPath></text></g><g transform="translate(482.2938020532704,464.65447299770767)" id="security frameworks"><path id="p_972.2589064685812" d="M-4.6494875624949274e-15,25.310631417603194A25.310631417603194,25.310631417603194,0,1,1,4.6494875624949274e-15,-25.310631417603194A25.310631417603194,25.310631417603194,0,1,1,-4.6494875624949274e-15,25.310631417603194Z" fill="none" stroke="#ccc"/><text fill="black" text-anchor="middle" font-family="'Arial', sans-serif" font-size="8" dominant-baseline="middle"><textPath href="#p_972.2589064685812" startOffset="50%">security frameworks</textPath></text></g><g transform="translate(543.855669040624,414.47074926844203)" id="analytical models"><path id="p_981.4602395445648" d="M-4.2496140192151174e-15,23.133821235498893A23.133821235498893,23.133821235498893,0,1,1,4.2496140192151174e-15,-23.133821235498893A23.133821235498893,23.133821235498893,0,1,1,-4.2496140192151174e-15,23.133821235498893Z" fill="none" stroke="#ccc"/><text fill="black" text-anchor="middle" font-family="'Arial', sans-serif" font-size="8" dominant-baseline="middle"><textPath href="#p_981.4602395445648" startOffset="50%">analytical models</textPath></text></g><g transform="translate(480.2422998421427,71.73775874086962)" id="automation"><path id="p_575.1138798185112" d="M-4.2496140192151174e-15,23.133821235498893A23.133821235498893,23.133821235498893,0,1,1,4.2496140192151174e-15,-23.133821235498893A23.133821235498893,23.133821235498893,0,1,1,-4.2496140192151174e-15,23.133821235498893Z" fill="none" stroke="#ccc"/><text fill="black" text-anchor="middle" font-family="'Arial', sans-serif" font-size="8" dominant-baseline="middle"><textPath href="#p_575.1138798185112" startOffset="50%">automation</textPath></text></g><g transform="translate(542.9703539621721,118.92726896187506)" id="computational modeling"><path id="p_685.031444159546" d="M-4.2496140192151174e-15,23.133821235498893A23.133821235498893,23.133821235498893,0,1,1,4.2496140192151174e-15,-23.133821235498893A23.133821235498893,23.133821235498893,0,1,1,-4.2496140192151174e-15,23.133821235498893Z" fill="none" stroke="#ccc"/><text fill="black" text-anchor="middle" font-family="'Arial', sans-serif" font-size="8" dominant-baseline="middle"><textPath href="#p_685.031444159546" startOffset="50%">computational modeling</textPath></text></g><g transform="translate(213.5522963345815,423.9321972403611)" id="critical infrastructures"><path id="p_660.6183148104416" d="M-4.2496140192151174e-15,23.133821235498893A23.133821235498893,23.133821235498893,0,1,1,4.2496140192151174e-15,-23.133821235498893A23.133821235498893,23.133821235498893,0,1,1,-4.2496140192151174e-15,23.133821235498893Z" fill="none" stroke="#ccc"/><text fill="black" text-anchor="middle" font-family="'Arial', sans-serif" font-size="8" dominant-baseline="middle"><textPath href="#p_660.6183148104416" startOffset="50%">critical infrastructures</textPath></text></g><g transform="translate(288.46844397866147,61.60620820399342)" id="life cycle"><path id="p_373.20847341815374" d="M-4.2496140192151174e-15,23.133821235498893A23.133821235498893,23.133821235498893,0,1,1,4.2496140192151174e-15,-23.133821235498893A23.133821235498893,23.133821235498893,0,1,1,-4.2496140192151174e-15,23.133821235498893Z" fill="none" stroke="#ccc"/><text fill="black" text-anchor="middle" font-family="'Arial', sans-serif" font-size="8" dominant-baseline="middle"><textPath href="#p_373.20847341815374" startOffset="50%">life cycle</textPath></text></g><g transform="translate(214.37005656299436,110.83109534347088)" id="monitoring"><path id="p_348.33497314196416" d="M-4.2496140192151174e-15,23.133821235498893A23.133821235498893,23.133821235498893,0,1,1,4.2496140192151174e-15,-23.133821235498893A23.133821235498893,23.133821235498893,0,1,1,-4.2496140192151174e-15,23.133821235498893Z" fill="none" stroke="#ccc"/><text fill="black" text-anchor="middle" font-family="'Arial', sans-serif" font-size="8" dominant-baseline="middle"><textPath href="#p_348.33497314196416" startOffset="50%">monitoring</textPath></text></g><g transform="translate(286.99650130182437,470.3668783708307)" id="access control"><path id="p_778.0264103479595" d="M-3.795737156579261e-15,20.663030675304377A20.663030675304377,20.663030675304377,0,1,1,3.795737156579261e-15,-20.663030675304377A20.663030675304377,20.663030675304377,0,1,1,-3.795737156579261e-15,20.663030675304377Z" fill="none" stroke="#ccc"/><text fill="black" text-anchor="middle" font-family="'Arial', sans-serif" font-size="8" dominant-baseline="middle"><textPath href="#p_778.0264103479595" startOffset="50%">access control</textPath></text></g><g transform="translate(603.4706263132277,327.36969356312534)" id="automotive industry"><path id="p_951.5033505516575" d="M-3.795737156579261e-15,20.663030675304377A20.663030675304377,20.663030675304377,0,1,1,3.795737156579261e-15,-20.663030675304377A20.663030675304377,20.663030675304377,0,1,1,-3.795737156579261e-15,20.663030675304377Z" fill="none" stroke="#ccc"/><text fill="black" text-anchor="middle" font-family="'Arial', sans-serif" font-size="8" dominant-baseline="middle"><textPath href="#p_951.5033505516575" startOffset="50%">automotive industry</textPath></text></g><g transform="translate(145.59539582441786,208.93089989739943)" id="availability"><path id="p_375.18932639712165" d="M-3.795737156579261e-15,20.663030675304377A20.663030675304377,20.663030675304377,0,1,1,3.795737156579261e-15,-20.663030675304377A20.663030675304377,20.663030675304377,0,1,1,-3.795737156579261e-15,20.663030675304377Z" fill="none" stroke="#ccc"/><text fill="black" text-anchor="middle" font-family="'Arial', sans-serif" font-size="8" dominant-baseline="middle"><textPath href="#p_375.18932639712165" startOffset="50%">availability</textPath></text></g><g transform="translate(532.8727771875006,461.69897207714166)" id="intelligent control"><path id="p_1015.2347799399466" d="M-3.795737156579261e-15,20.663030675304377A20.663030675304377,20.663030675304377,0,1,1,3.795737156579261e-15,-20.663030675304377A20.663030675304377,20.663030675304377,0,1,1,-3.795737156579261e-15,20.663030675304377Z" fill="none" stroke="#ccc"/><text fill="black" text-anchor="middle" font-family="'Arial', sans-serif" font-size="8" dominant-baseline="middle"><textPath href="#p_1015.2347799399466" startOffset="50%">intelligent control</textPath></text></g><g transform="translate(528.7234417253809,72.57908199795216)" id="physical systems"><path id="p_621.9655543986374" d="M-3.795737156579261e-15,20.663030675304377A20.663030675304377,20.663030675304377,0,1,1,3.795737156579261e-15,-20.663030675304377A20.663030675304377,20.663030675304377,0,1,1,-3.795737156579261e-15,20.663030675304377Z" fill="none" stroke="#ccc"/><text fill="black" text-anchor="middle" font-family="'Arial', sans-serif" font-size="8" dominant-baseline="middle"><textPath href="#p_621.9655543986374" startOffset="50%">physical systems</textPath></text></g><g transform="translate(241.48395789375286,463.5674243201886)" id="predictive models"><path id="p_725.7144128892459" d="M-3.795737156579261e-15,20.663030675304377A20.663030675304377,20.663030675304377,0,1,1,3.795737156579261e-15,-20.663030675304377A20.663030675304377,20.663030675304377,0,1,1,-3.795737156579261e-15,20.663030675304377Z" fill="none" stroke="#ccc"/><text fill="black" text-anchor="middle" font-family="'Arial', sans-serif" font-size="8" dominant-baseline="middle"><textPath href="#p_725.7144128892459" startOffset="50%">predictive models</textPath></text></g><g transform="translate(240.73648309529662,70.13784657856772)" id="prototypes"><path id="p_331.5373603491687" d="M-3.795737156579261e-15,20.663030675304377A20.663030675304377,20.663030675304377,0,1,1,3.795737156579261e-15,-20.663030675304377A20.663030675304377,20.663030675304377,0,1,1,-3.795737156579261e-15,20.663030675304377Z" fill="none" stroke="#ccc"/><text fill="black" text-anchor="middle" font-family="'Arial', sans-serif" font-size="8" dominant-baseline="middle"><textPath href="#p_331.5373603491687" startOffset="50%">prototypes</textPath></text></g><g transform="translate(619.2626774045513,280.93841283984085)" id="resilience"><path id="p_920.8641209196966" d="M-3.795737156579261e-15,20.663030675304377A20.663030675304377,20.663030675304377,0,1,1,3.795737156579261e-15,-20.663030675304377A20.663030675304377,20.663030675304377,0,1,1,-3.795737156579261e-15,20.663030675304377Z" fill="none" stroke="#ccc"/><text fill="black" text-anchor="middle" font-family="'Arial', sans-serif" font-size="8" dominant-baseline="middle"><textPath href="#p_920.8641209196966" startOffset="50%">resilience</textPath></text></g><g transform="translate(440.49494518567724,498.1971279673367)" id="security analysis"><path id="p_959.3551038283184" d="M-3.795737156579261e-15,20.663030675304377A20.663030675304377,20.663030675304377,0,1,1,3.795737156579261e-15,-20.663030675304377A20.663030675304377,20.663030675304377,0,1,1,-3.795737156579261e-15,20.663030675304377Z" fill="none" stroke="#ccc"/><text fill="black" text-anchor="middle" font-family="'Arial', sans-serif" font-size="8" dominant-baseline="middle"><textPath href="#p_959.3551038283184" startOffset="50%">security analysis</textPath></text></g><g transform="translate(483.21175214396965,515.311408149289)" id="synchronization"><path id="p_1019.1861909685631" d="M-3.795737156579261e-15,20.663030675304377A20.663030675304377,20.663030675304377,0,1,1,3.795737156579261e-15,-20.663030675304377A20.663030675304377,20.663030675304377,0,1,1,-3.795737156579261e-15,20.663030675304377Z" fill="none" stroke="#ccc"/><text fill="black" text-anchor="middle" font-family="'Arial', sans-serif" font-size="8" dominant-baseline="middle"><textPath href="#p_1019.1861909685631" startOffset="50%">synchronization</textPath></text></g><g transform="translate(294.68943916615797,268.35036713509436)" id="72"><path id="p_641.2835693439503" d="M-1.4373146094522583e-14,78.24376304269785A78.24376304269785,78.24376304269785,0,1,1,1.4373146094522583e-14,-78.24376304269785A78.24376304269785,78.24376304269785,0,1,1,-1.4373146094522583e-14,78.24376304269785Z" fill="#94d749" stroke="none"/></g><g transform="translate(461.9206702322499,268.35036713509436)" id="66"><path id="p_805.1837371172867" d="M-1.3761239694638065e-14,74.91269974994248A74.91269974994248,74.91269974994248,0,1,1,1.3761239694638065e-14,-74.91269974994248A74.91269974994248,74.91269974994248,0,1,1,-1.3761239694638065e-14,74.91269974994248Z" fill="#4a90e2" stroke="none"/></g><g transform="translate(381.0473234461497,377.6991938452743)" id="26"><path id="p_805.7651672307076" d="M-8.637185872256026e-15,47.01864993928356A47.01864993928356,47.01864993928356,0,1,1,8.637185872256026e-15,-47.01864993928356A47.01864993928356,47.01864993928356,0,1,1,-8.637185872256026e-15,47.01864993928356Z" fill="#be98df" stroke="none"/></g><g transform="translate(381.01058118449953,161.33227304503285)" id="24"><path id="p_587.5169118846433" d="M-8.29833976677443e-15,45.17405765511089A45.17405765511089,45.17405765511089,0,1,1,8.29833976677443e-15,-45.17405765511089A45.17405765511089,45.17405765511089,0,1,1,-8.29833976677443e-15,45.17405765511089Z" fill="#17becf" stroke="none"/></g><g transform="translate(283.974553560809,135.22425881109066)" id="20"><path id="p_460.43689635813826" d="M-7.575313133507527e-15,41.23808398623862A41.23808398623862,41.23808398623862,0,1,1,7.575313133507527e-15,-41.23808398623862A41.23808398623862,41.23808398623862,0,1,1,-7.575313133507527e-15,41.23808398623862Z" fill="#bcbd22" stroke="none"/></g><g transform="translate(282.3098824636544,400.28328308047963)" id="19"><path id="p_722.7870779229169" d="M-7.383501920982824e-15,40.19391237878277A40.19391237878277,40.19391237878277,0,1,1,7.383501920982824e-15,-40.19391237878277A40.19391237878277,40.19391237878277,0,1,1,-7.383501920982824e-15,40.19391237878277Z" fill="#7f7f7f" stroke="none"/></g><g transform="translate(476.3724719147494,142.16815914958508)" id="17"><path id="p_656.5602659288049" d="M-6.984093621228733e-15,38.01963486447048A38.01963486447048,38.01963486447048,0,1,1,6.984093621228733e-15,-38.01963486447048A38.01963486447048,38.01963486447048,0,1,1,-6.984093621228733e-15,38.01963486447048Z" fill="#e377c2" stroke="none"/></g><g transform="translate(477.78835800885247,393.2181358377287)" id="16"><path id="p_907.8909574686112" d="M-6.775566046947907e-15,36.88446362203002A36.88446362203002,36.88446362203002,0,1,1,6.775566046947907e-15,-36.88446362203002A36.88446362203002,36.88446362203002,0,1,1,-6.775566046947907e-15,36.88446362203002Z" fill="#8c564b" stroke="none"/></g><g transform="translate(203.7479836396239,178.22943090933293)" id="15"><path id="p_417.69064288443576" d="M-6.5604136152394175e-15,35.713228335478895A35.713228335478895,35.713228335478895,0,1,1,6.5604136152394175e-15,-35.713228335478895A35.713228335478895,35.713228335478895,0,1,1,-6.5604136152394175e-15,35.713228335478895Z" fill="#9467bd" stroke="none"/></g><g transform="translate(204.51520978242266,357.5250303678916)" id="14"><path id="p_596.5424965924551" d="M-6.3379616872843375e-15,34.50225644214083A34.50225644214083,34.50225644214083,0,1,1,6.3379616872843375e-15,-34.50225644214083A34.50225644214083,34.50225644214083,0,1,1,-6.3379616872843375e-15,34.50225644214083Z" fill="#d62728" stroke="none"/></g><g transform="translate(550.6202115323049,184.24503461000427)" id="13"><path id="p_768.1124523566131" d="M-6.1074127006408815e-15,33.24720621430386A33.24720621430386,33.24720621430386,0,1,1,6.1074127006408815e-15,-33.24720621430386A33.24720621430386,33.24720621430386,0,1,1,-6.1074127006408815e-15,33.24720621430386Z" fill="#2ca02c" stroke="none"/></g><g transform="translate(547.8490527892294,351.49725821313314)" id="11"><path id="p_929.9292926093092" d="M-5.618002579999442e-15,30.58298160694667A30.58298160694667,30.58298160694667,0,1,1,5.618002579999442e-15,-30.58298160694667A30.58298160694667,30.58298160694667,0,1,1,-5.618002579999442e-15,30.58298160694667Z" fill="#ff7f0e" stroke="none"/></g><g transform="translate(347.4841424621069,79.52731927658581)" id="10"><path id="p_456.17119056850237" d="M-5.356555286314687e-15,29.1597288298097A29.1597288298097,29.1597288298097,0,1,1,5.356555286314687e-15,-29.1597288298097A29.1597288298097,29.1597288298097,0,1,1,-5.356555286314687e-15,29.1597288298097Z" fill="#1f77b4" stroke="none"/></g><g transform="translate(421.40423351675537,84.37722916242396)" id="9"><path id="p_533.4448103957018" d="M-5.081674535210931e-15,27.663347716522516A27.663347716522516,27.663347716522516,0,1,1,5.081674535210931e-15,-27.663347716522516A27.663347716522516,27.663347716522516,0,1,1,-5.081674535210931e-15,27.663347716522516Z" fill="#cccccc" stroke="none"/></g><g transform="translate(341.01921044841134,455.1406149701221)" id="8"><path id="p_822.2410797660995" d="M-4.7910486981741955e-15,26.081254347565956A26.081254347565956,26.081254347565956,0,1,1,4.7910486981741955e-15,-26.081254347565956A26.081254347565956,26.081254347565956,0,1,1,-4.7910486981741955e-15,26.081254347565956Z" fill="#cccccc" stroke="none"/></g><g transform="translate(427.76026143818115,447.127708455739)" id="6"><path id="p_897.4749987214756" d="M-4.149169883387215e-15,22.587028827555446A22.587028827555446,22.587028827555446,0,1,1,4.149169883387215e-15,-22.587028827555446A22.587028827555446,22.587028827555446,0,1,1,-4.149169883387215e-15,22.587028827555446Z" fill="#cccccc" stroke="none"/></g><g transform="translate(181.75082558117924,247.18064079200138)" id="6"><path id="p_451.5184952007361" d="M-4.149169883387215e-15,22.587028827555446A22.587028827555446,22.587028827555446,0,1,1,4.149169883387215e-15,-22.587028827555446A22.587028827555446,22.587028827555446,0,1,1,-4.149169883387215e-15,22.587028827555446Z" fill="#cccccc" stroke="none"/></g><g transform="translate(163.79931704196383,301.5758415774905)" id="5"><path id="p_485.99420061257365" d="M-3.7876565667537635e-15,20.61904199311931A20.61904199311931,20.61904199311931,0,1,1,3.7876565667537635e-15,-20.61904199311931A20.61904199311931,20.61904199311931,0,1,1,-3.7876565667537635e-15,20.61904199311931Z" fill="#cccccc" stroke="none"/></g><g transform="translate(569.3923092291675,289.87788090971014)" id="5"><path id="p_879.889232131997" d="M-3.7876565667537635e-15,20.61904199311931A20.61904199311931,20.61904199311931,0,1,1,3.7876565667537635e-15,-20.61904199311931A20.61904199311931,20.61904199311931,0,1,1,-3.7876565667537635e-15,20.61904199311931Z" fill="#cccccc" stroke="none"/></g><g transform="translate(590.9347822782094,238.93248386509356)" id="5"><path id="p_850.4863081364222" d="M-3.7876565667537635e-15,20.61904199311931A20.61904199311931,20.61904199311931,0,1,1,3.7876565667537635e-15,-20.61904199311931A20.61904199311931,20.61904199311931,0,1,1,-3.7876565667537635e-15,20.61904199311931Z" fill="#cccccc" stroke="none"/></g><g transform="translate(389.06042793341044,31.06406575867095)" id="5"><path id="p_440.7435356852007" d="M-3.7876565667537635e-15,20.61904199311931A20.61904199311931,20.61904199311931,0,1,1,3.7876565667537635e-15,-20.61904199311931A20.61904199311931,20.61904199311931,0,1,1,-3.7876565667537635e-15,20.61904199311931Z" fill="#cccccc" stroke="none"/></g><g transform="translate(390.40924569905025,490.55576563750117)" id="5"><path id="p_901.5840533296707" d="M-3.7876565667537635e-15,20.61904199311931A20.61904199311931,20.61904199311931,0,1,1,3.7876565667537635e-15,-20.61904199311931A20.61904199311931,20.61904199311931,0,1,1,-3.7876565667537635e-15,20.61904199311931Z" fill="#cccccc" stroke="none"/></g><g transform="translate(482.2938020532704,464.65447299770767)" id="5"><path id="p_967.5673170440973" d="M-3.7876565667537635e-15,20.61904199311931A20.61904199311931,20.61904199311931,0,1,1,3.7876565667537635e-15,-20.61904199311931A20.61904199311931,20.61904199311931,0,1,1,-3.7876565667537635e-15,20.61904199311931Z" fill="#cccccc" stroke="none"/></g><g transform="translate(543.855669040624,414.47074926844203)" id="4"><path id="p_976.768650120081" d="M-3.3877830234739536e-15,18.44223181101501A18.44223181101501,18.44223181101501,0,1,1,3.3877830234739536e-15,-18.44223181101501A18.44223181101501,18.44223181101501,0,1,1,-3.3877830234739536e-15,18.44223181101501Z" fill="#cccccc" stroke="none"/></g><g transform="translate(480.2422998421427,71.73775874086962)" id="4"><path id="p_570.4222903940274" d="M-3.3877830234739536e-15,18.44223181101501A18.44223181101501,18.44223181101501,0,1,1,3.3877830234739536e-15,-18.44223181101501A18.44223181101501,18.44223181101501,0,1,1,-3.3877830234739536e-15,18.44223181101501Z" fill="#cccccc" stroke="none"/></g><g transform="translate(542.9703539621721,118.92726896187506)" id="4"><path id="p_680.3398547350622" d="M-3.3877830234739536e-15,18.44223181101501A18.44223181101501,18.44223181101501,0,1,1,3.3877830234739536e-15,-18.44223181101501A18.44223181101501,18.44223181101501,0,1,1,-3.3877830234739536e-15,18.44223181101501Z" fill="#cccccc" stroke="none"/></g><g transform="translate(213.5522963345815,423.9321972403611)" id="4"><path id="p_655.9267253859578" d="M-3.3877830234739536e-15,18.44223181101501A18.44223181101501,18.44223181101501,0,1,1,3.3877830234739536e-15,-18.44223181101501A18.44223181101501,18.44223181101501,0,1,1,-3.3877830234739536e-15,18.44223181101501Z" fill="#cccccc" stroke="none"/></g><g transform="translate(288.46844397866147,61.60620820399342)" id="4"><path id="p_368.51688399366986" d="M-3.3877830234739536e-15,18.44223181101501A18.44223181101501,18.44223181101501,0,1,1,3.3877830234739536e-15,-18.44223181101501A18.44223181101501,18.44223181101501,0,1,1,-3.3877830234739536e-15,18.44223181101501Z" fill="#cccccc" stroke="none"/></g><g transform="translate(214.37005656299436,110.83109534347088)" id="4"><path id="p_343.6433837174803" d="M-3.3877830234739536e-15,18.44223181101501A18.44223181101501,18.44223181101501,0,1,1,3.3877830234739536e-15,-18.44223181101501A18.44223181101501,18.44223181101501,0,1,1,-3.3877830234739536e-15,18.44223181101501Z" fill="#cccccc" stroke="none"/></g><g transform="translate(286.99650130182437,470.3668783708307)" id="3"><path id="p_773.3348209234756" d="M-2.933906160838097e-15,15.971441250820492A15.971441250820492,15.971441250820492,0,1,1,2.933906160838097e-15,-15.971441250820492A15.971441250820492,15.971441250820492,0,1,1,-2.933906160838097e-15,15.971441250820492Z" fill="#cccccc" stroke="none"/></g><g transform="translate(603.4706263132277,327.36969356312534)" id="3"><path id="p_946.8117611271736" d="M-2.933906160838097e-15,15.971441250820492A15.971441250820492,15.971441250820492,0,1,1,2.933906160838097e-15,-15.971441250820492A15.971441250820492,15.971441250820492,0,1,1,-2.933906160838097e-15,15.971441250820492Z" fill="#cccccc" stroke="none"/></g><g transform="translate(145.59539582441786,208.93089989739943)" id="3"><path id="p_370.49773697263777" d="M-2.933906160838097e-15,15.971441250820492A15.971441250820492,15.971441250820492,0,1,1,2.933906160838097e-15,-15.971441250820492A15.971441250820492,15.971441250820492,0,1,1,-2.933906160838097e-15,15.971441250820492Z" fill="#cccccc" stroke="none"/></g><g transform="translate(532.8727771875006,461.69897207714166)" id="3"><path id="p_1010.5431905154627" d="M-2.933906160838097e-15,15.971441250820492A15.971441250820492,15.971441250820492,0,1,1,2.933906160838097e-15,-15.971441250820492A15.971441250820492,15.971441250820492,0,1,1,-2.933906160838097e-15,15.971441250820492Z" fill="#cccccc" stroke="none"/></g><g transform="translate(528.7234417253809,72.57908199795216)" id="3"><path id="p_617.2739649741535" d="M-2.933906160838097e-15,15.971441250820492A15.971441250820492,15.971441250820492,0,1,1,2.933906160838097e-15,-15.971441250820492A15.971441250820492,15.971441250820492,0,1,1,-2.933906160838097e-15,15.971441250820492Z" fill="#cccccc" stroke="none"/></g><g transform="translate(241.48395789375286,463.5674243201886)" id="3"><path id="p_721.0228234647619" d="M-2.933906160838097e-15,15.971441250820492A15.971441250820492,15.971441250820492,0,1,1,2.933906160838097e-15,-15.971441250820492A15.971441250820492,15.971441250820492,0,1,1,-2.933906160838097e-15,15.971441250820492Z" fill="#cccccc" stroke="none"/></g><g transform="translate(240.73648309529662,70.13784657856772)" id="3"><path id="p_326.8457709246848" d="M-2.933906160838097e-15,15.971441250820492A15.971441250820492,15.971441250820492,0,1,1,2.933906160838097e-15,-15.971441250820492A15.971441250820492,15.971441250820492,0,1,1,-2.933906160838097e-15,15.971441250820492Z" fill="#cccccc" stroke="none"/></g><g transform="translate(619.2626774045513,280.93841283984085)" id="3"><path id="p_916.1725314952126" d="M-2.933906160838097e-15,15.971441250820492A15.971441250820492,15.971441250820492,0,1,1,2.933906160838097e-15,-15.971441250820492A15.971441250820492,15.971441250820492,0,1,1,-2.933906160838097e-15,15.971441250820492Z" fill="#cccccc" stroke="none"/></g><g transform="translate(440.49494518567724,498.1971279673367)" id="3"><path id="p_954.6635144038345" d="M-2.933906160838097e-15,15.971441250820492A15.971441250820492,15.971441250820492,0,1,1,2.933906160838097e-15,-15.971441250820492A15.971441250820492,15.971441250820492,0,1,1,-2.933906160838097e-15,15.971441250820492Z" fill="#cccccc" stroke="none"/></g><g transform="translate(483.21175214396965,515.311408149289)" id="3"><path id="p_1014.4946015440792" d="M-2.933906160838097e-15,15.971441250820492A15.971441250820492,15.971441250820492,0,1,1,2.933906160838097e-15,-15.971441250820492A15.971441250820492,15.971441250820492,0,1,1,-2.933906160838097e-15,15.971441250820492Z" fill="#cccccc" stroke="none"/></g></g><g id="labels"><g transform="translate(294.68943916615797,268.35036713509436)"><text text-anchor="middle" dominant-baseline="text-before-edge" transform="translate(0,-5.599999904632568)"><tspan x="0" y="0" dy="0" style="font-family: Arial, sans-serif; font-size: 10px; fill: black; font-weight: bold;">72</tspan></text></g><g transform="translate(461.9206702322499,268.35036713509436)"><text text-anchor="middle" dominant-baseline="text-before-edge" transform="translate(0,-5.599999904632568)"><tspan x="0" y="0" dy="0" style="font-family: Arial, sans-serif; font-size: 10px; fill: black; font-weight: bold;">66</tspan></text></g><g transform="translate(381.0473234461497,377.6991938452743)"><text text-anchor="middle" dominant-baseline="text-before-edge" transform="translate(0,-5.599999904632568)"><tspan x="0" y="0" dy="0" style="font-family: Arial, sans-serif; font-size: 10px; fill: black; font-weight: bold;">26</tspan></text></g><g transform="translate(381.01058118449953,161.33227304503285)"><text text-anchor="middle" dominant-baseline="text-before-edge" transform="translate(0,-5.599999904632568)"><tspan x="0" y="0" dy="0" style="font-family: Arial, sans-serif; font-size: 10px; fill: black; font-weight: bold;">24</tspan></text></g><g transform="translate(283.974553560809,135.22425881109066)"><text text-anchor="middle" dominant-baseline="text-before-edge" transform="translate(0,-5.599999904632568)"><tspan x="0" y="0" dy="0" style="font-family: Arial, sans-serif; font-size: 10px; fill: black; font-weight: bold;">20</tspan></text></g><g transform="translate(282.3098824636544,400.28328308047963)"><text text-anchor="middle" dominant-baseline="text-before-edge" transform="translate(0,-5.599999904632568)"><tspan x="0" y="0" dy="0" style="font-family: Arial, sans-serif; font-size: 10px; fill: black; font-weight: bold;">19</tspan></text></g><g transform="translate(476.3724719147494,142.16815914958508)"><text text-anchor="middle" dominant-baseline="text-before-edge" transform="translate(0,-5.599999904632568)"><tspan x="0" y="0" dy="0" style="font-family: Arial, sans-serif; font-size: 10px; fill: black; font-weight: bold;">17</tspan></text></g><g transform="translate(477.78835800885247,393.2181358377287)"><text text-anchor="middle" dominant-baseline="text-before-edge" transform="translate(0,-5.599999904632568)"><tspan x="0" y="0" dy="0" style="font-family: Arial, sans-serif; font-size: 10px; fill: black; font-weight: bold;">16</tspan></text></g><g transform="translate(203.7479836396239,178.22943090933293)"><text text-anchor="middle" dominant-baseline="text-before-edge" transform="translate(0,-5.599999904632568)"><tspan x="0" y="0" dy="0" style="font-family: Arial, sans-serif; font-size: 10px; fill: black; font-weight: bold;">15</tspan></text></g><g transform="translate(204.51520978242266,357.5250303678916)"><text text-anchor="middle" dominant-baseline="text-before-edge" transform="translate(0,-5.599999904632568)"><tspan x="0" y="0" dy="0" style="font-family: Arial, sans-serif; font-size: 10px; fill: black; font-weight: bold;">14</tspan></text></g><g transform="translate(550.6202115323049,184.24503461000427)"><text text-anchor="middle" dominant-baseline="text-before-edge" transform="translate(0,-5.599999904632568)"><tspan x="0" y="0" dy="0" style="font-family: Arial, sans-serif; font-size: 10px; fill: black; font-weight: bold;">13</tspan></text></g><g transform="translate(547.8490527892294,351.49725821313314)"><text text-anchor="middle" dominant-baseline="text-before-edge" transform="translate(0,-5.599999904632568)"><tspan x="0" y="0" dy="0" style="font-family: Arial, sans-serif; font-size: 10px; fill: black; font-weight: bold;">11</tspan></text></g><g transform="translate(347.4841424621069,79.52731927658581)"><text text-anchor="middle" dominant-baseline="text-before-edge" transform="translate(0,-5.599999904632568)"><tspan x="0" y="0" dy="0" style="font-family: Arial, sans-serif; font-size: 10px; fill: black; font-weight: bold;">10</tspan></text></g><g transform="translate(421.40423351675537,84.37722916242396)"><text text-anchor="middle" dominant-baseline="text-before-edge" transform="translate(0,-5.599999904632568)"><tspan x="0" y="0" dy="0" style="font-family: Arial, sans-serif; font-size: 10px; fill: black; font-weight: bold;">9</tspan></text></g><g transform="translate(341.01921044841134,455.1406149701221)"><text text-anchor="middle" dominant-baseline="text-before-edge" transform="translate(0,-5.599999904632568)"><tspan x="0" y="0" dy="0" style="font-family: Arial, sans-serif; font-size: 10px; fill: black; font-weight: bold;">8</tspan></text></g><g transform="translate(427.76026143818115,447.127708455739)"><text text-anchor="middle" dominant-baseline="text-before-edge" transform="translate(0,-5.599999904632568)"><tspan x="0" y="0" dy="0" style="font-family: Arial, sans-serif; font-size: 10px; fill: black; font-weight: bold;">6</tspan></text></g><g transform="translate(181.75082558117924,247.18064079200138)"><text text-anchor="middle" dominant-baseline="text-before-edge" transform="translate(0,-5.599999904632568)"><tspan x="0" y="0" dy="0" style="font-family: Arial, sans-serif; font-size: 10px; fill: black; font-weight: bold;">6</tspan></text></g><g transform="translate(163.79931704196383,301.5758415774905)"><text text-anchor="middle" dominant-baseline="text-before-edge" transform="translate(0,-5.599999904632568)"><tspan x="0" y="0" dy="0" style="font-family: Arial, sans-serif; font-size: 10px; fill: black; font-weight: bold;">5</tspan></text></g><g transform="translate(569.3923092291675,289.87788090971014)"><text text-anchor="middle" dominant-baseline="text-before-edge" transform="translate(0,-5.599999904632568)"><tspan x="0" y="0" dy="0" style="font-family: Arial, sans-serif; font-size: 10px; fill: black; font-weight: bold;">5</tspan></text></g><g transform="translate(590.9347822782094,238.93248386509356)"><text text-anchor="middle" dominant-baseline="text-before-edge" transform="translate(0,-5.599999904632568)"><tspan x="0" y="0" dy="0" style="font-family: Arial, sans-serif; font-size: 10px; fill: black; font-weight: bold;">5</tspan></text></g><g transform="translate(389.06042793341044,31.06406575867095)"><text text-anchor="middle" dominant-baseline="text-before-edge" transform="translate(0,-5.599999904632568)"><tspan x="0" y="0" dy="0" style="font-family: Arial, sans-serif; font-size: 10px; fill: black; font-weight: bold;">5</tspan></text></g><g transform="translate(390.40924569905025,490.55576563750117)"><text text-anchor="middle" dominant-baseline="text-before-edge" transform="translate(0,-5.599999904632568)"><tspan x="0" y="0" dy="0" style="font-family: Arial, sans-serif; font-size: 10px; fill: black; font-weight: bold;">5</tspan></text></g><g transform="translate(482.2938020532704,464.65447299770767)"><text text-anchor="middle" dominant-baseline="text-before-edge" transform="translate(0,-5.599999904632568)"><tspan x="0" y="0" dy="0" style="font-family: Arial, sans-serif; font-size: 10px; fill: black; font-weight: bold;">5</tspan></text></g><g transform="translate(543.855669040624,414.47074926844203)"><text text-anchor="middle" dominant-baseline="text-before-edge" transform="translate(0,-5.599999904632568)"><tspan x="0" y="0" dy="0" style="font-family: Arial, sans-serif; font-size: 10px; fill: black; font-weight: bold;">4</tspan></text></g><g transform="translate(480.2422998421427,71.73775874086962)"><text text-anchor="middle" dominant-baseline="text-before-edge" transform="translate(0,-5.599999904632568)"><tspan x="0" y="0" dy="0" style="font-family: Arial, sans-serif; font-size: 10px; fill: black; font-weight: bold;">4</tspan></text></g><g transform="translate(542.9703539621721,118.92726896187506)"><text text-anchor="middle" dominant-baseline="text-before-edge" transform="translate(0,-5.599999904632568)"><tspan x="0" y="0" dy="0" style="font-family: Arial, sans-serif; font-size: 10px; fill: black; font-weight: bold;">4</tspan></text></g><g transform="translate(213.5522963345815,423.9321972403611)"><text text-anchor="middle" dominant-baseline="text-before-edge" transform="translate(0,-5.599999904632568)"><tspan x="0" y="0" dy="0" style="font-family: Arial, sans-serif; font-size: 10px; fill: black; font-weight: bold;">4</tspan></text></g><g transform="translate(288.46844397866147,61.60620820399342)"><text text-anchor="middle" dominant-baseline="text-before-edge" transform="translate(0,-5.599999904632568)"><tspan x="0" y="0" dy="0" style="font-family: Arial, sans-serif; font-size: 10px; fill: black; font-weight: bold;">4</tspan></text></g><g transform="translate(214.37005656299436,110.83109534347088)"><text text-anchor="middle" dominant-baseline="text-before-edge" transform="translate(0,-5.599999904632568)"><tspan x="0" y="0" dy="0" style="font-family: Arial, sans-serif; font-size: 10px; fill: black; font-weight: bold;">4</tspan></text></g><g transform="translate(286.99650130182437,470.3668783708307)"><text text-anchor="middle" dominant-baseline="text-before-edge" transform="translate(0,-5.599999904632568)"><tspan x="0" y="0" dy="0" style="font-family: Arial, sans-serif; font-size: 10px; fill: black; font-weight: bold;">3</tspan></text></g><g transform="translate(603.4706263132277,327.36969356312534)"><text text-anchor="middle" dominant-baseline="text-before-edge" transform="translate(0,-5.599999904632568)"><tspan x="0" y="0" dy="0" style="font-family: Arial, sans-serif; font-size: 10px; fill: black; font-weight: bold;">3</tspan></text></g><g transform="translate(145.59539582441786,208.93089989739943)"><text text-anchor="middle" dominant-baseline="text-before-edge" transform="translate(0,-5.599999904632568)"><tspan x="0" y="0" dy="0" style="font-family: Arial, sans-serif; font-size: 10px; fill: black; font-weight: bold;">3</tspan></text></g><g transform="translate(532.8727771875006,461.69897207714166)"><text text-anchor="middle" dominant-baseline="text-before-edge" transform="translate(0,-5.599999904632568)"><tspan x="0" y="0" dy="0" style="font-family: Arial, sans-serif; font-size: 10px; fill: black; font-weight: bold;">3</tspan></text></g><g transform="translate(528.7234417253809,72.57908199795216)"><text text-anchor="middle" dominant-baseline="text-before-edge" transform="translate(0,-5.599999904632568)"><tspan x="0" y="0" dy="0" style="font-family: Arial, sans-serif; font-size: 10px; fill: black; font-weight: bold;">3</tspan></text></g><g transform="translate(241.48395789375286,463.5674243201886)"><text text-anchor="middle" dominant-baseline="text-before-edge" transform="translate(0,-5.599999904632568)"><tspan x="0" y="0" dy="0" style="font-family: Arial, sans-serif; font-size: 10px; fill: black; font-weight: bold;">3</tspan></text></g><g transform="translate(240.73648309529662,70.13784657856772)"><text text-anchor="middle" dominant-baseline="text-before-edge" transform="translate(0,-5.599999904632568)"><tspan x="0" y="0" dy="0" style="font-family: Arial, sans-serif; font-size: 10px; fill: black; font-weight: bold;">3</tspan></text></g><g transform="translate(619.2626774045513,280.93841283984085)"><text text-anchor="middle" dominant-baseline="text-before-edge" transform="translate(0,-5.599999904632568)"><tspan x="0" y="0" dy="0" style="font-family: Arial, sans-serif; font-size: 10px; fill: black; font-weight: bold;">3</tspan></text></g><g transform="translate(440.49494518567724,498.1971279673367)"><text text-anchor="middle" dominant-baseline="text-before-edge" transform="translate(0,-5.599999904632568)"><tspan x="0" y="0" dy="0" style="font-family: Arial, sans-serif; font-size: 10px; fill: black; font-weight: bold;">3</tspan></text></g><g transform="translate(483.21175214396965,515.311408149289)"><text text-anchor="middle" dominant-baseline="text-before-edge" transform="translate(0,-5.599999904632568)"><tspan x="0" y="0" dy="0" style="font-family: Arial, sans-serif; font-size: 10px; fill: black; font-weight: bold;">3</tspan></text></g></g></g></svg>