<svg xmlns="http://www.w3.org/2000/svg" width="805" height="599"><rect width="805" height="599" x="0" y="0" fill="#FFFFFF" id="backgorund"/><g transform="translate(25,15)" id="visualization"><g><rect x="0" y="1.1368683772161603e-13" height="2.6422018348623624" width="5" fill="black"><title>access control: 3</title></rect><rect x="0" y="7.642201834862476" height="2.642201834862419" width="5" fill="black"><title>automotive industry: 3</title></rect><rect x="0" y="15.284403669724895" height="2.6422018348623624" width="5" fill="black"><title>availability: 3</title></rect><rect x="0" y="22.926605504587258" height="2.6422018348623624" width="5" fill="black"><title>intelligent control: 3</title></rect><rect x="0" y="30.56880733944962" height="2.6422018348623624" width="5" fill="black"><title>physical systems: 3</title></rect><rect x="0" y="38.21100917431198" height="2.6422018348623624" width="5" fill="black"><title>predictive models: 3</title></rect><rect x="0" y="45.853211009174345" height="2.6422018348623624" width="5" fill="black"><title>prototypes: 3</title></rect><rect x="0" y="53.49541284403671" height="2.6422018348623624" width="5" fill="black"><title>resilience: 3</title></rect><rect x="0" y="61.13761467889907" height="2.6422018348623624" width="5" fill="black"><title>security analysis: 3</title></rect><rect x="0" y="68.77981651376143" height="2.6422018348623624" width="5" fill="black"><title>synchronization: 3</title></rect><rect x="0" y="76.4220183486238" height="3.522935779816521" width="5" fill="black"><title>analytical models: 4</title></rect><rect x="0" y="84.94495412844032" height="3.522935779816521" width="5" fill="black"><title>automation: 4</title></rect><rect x="0" y="93.46788990825684" height="3.522935779816521" width="5" fill="black"><title>computational modeling: 4</title></rect><rect x="0" y="101.99082568807336" height="3.522935779816521" width="5" fill="black"><title>critical infrastructures: 4</title></rect><rect x="0" y="110.51376146788988" height="3.522935779816521" width="5" fill="black"><title>life cycle: 4</title></rect><rect x="0" y="119.0366972477064" height="3.522935779816521" width="5" fill="black"><title>monitoring: 4</title></rect><rect x="0" y="127.55963302752292" height="4.403669724770623" width="5" fill="black"><title>cloud computing: 5</title></rect><rect x="0" y="136.96330275229354" height="4.403669724770623" width="5" fill="black"><title>computer architecture: 5</title></rect><rect x="0" y="146.36697247706417" height="4.403669724770623" width="5" fill="black"><title>data models: 5</title></rect><rect x="0" y="155.7706422018348" height="4.403669724770623" width="5" fill="black"><title>integrated circuits: 5</title></rect><rect x="0" y="165.1743119266054" height="4.403669724770623" width="5" fill="black"><title>safety: 5</title></rect><rect x="0" y="174.57798165137604" height="4.403669724770623" width="5" fill="black"><title>security frameworks: 5</title></rect><rect x="0" y="183.98165137614666" height="5.284403669724782" width="5" fill="black"><title>e-learning: 6</title></rect><rect x="0" y="194.26605504587144" height="5.284403669724782" width="5" fill="black"><title>machine learning: 6</title></rect><rect x="0" y="204.55045871559622" height="7.045871559633042" width="5" fill="black"><title>privacy: 8</title></rect><rect x="740" y="50" height="7.045871559633042" width="5" fill="black"><title>8: 8</title></rect><rect x="0" y="216.59633027522926" height="7.926605504587144" width="5" fill="black"><title>blockchain: 9</title></rect><rect x="740" y="62.04587155963304" height="7.926605504587144" width="5" fill="black"><title>9: 9</title></rect><rect x="0" y="229.5229357798164" height="8.807339449541303" width="5" fill="black"><title>anomaly detection: 10</title></rect><rect x="740" y="74.97247706422019" height="8.807339449541246" width="5" fill="black"><title>10: 10</title></rect><rect x="0" y="243.3302752293577" height="9.688073394495405" width="5" fill="black"><title>industries: 11</title></rect><rect x="740" y="88.77981651376143" height="9.688073394495405" width="5" fill="black"><title>11: 11</title></rect><rect x="740" y="103.46788990825684" height="10.568807339449563" width="5" fill="black"><title>6: 12</title></rect><rect x="0" y="258.0183486238531" height="11.449541284403665" width="5" fill="black"><title>industry 4.0: 13</title></rect><rect x="740" y="119.0366972477064" height="11.449541284403722" width="5" fill="black"><title>13: 13</title></rect><rect x="0" y="274.4678899082568" height="12.330275229357824" width="5" fill="black"><title>real- time: 14</title></rect><rect x="740" y="135.48623853211012" height="12.330275229357767" width="5" fill="black"><title>14: 14</title></rect><rect x="0" y="291.7981651376146" height="13.211009174311926" width="5" fill="black"><title>industrial control systems: 15</title></rect><rect x="740" y="152.8165137614679" height="13.211009174311926" width="5" fill="black"><title>15: 15</title></rect><rect x="0" y="310.00917431192653" height="14.091743119266027" width="5" fill="black"><title>embedded systems: 16</title></rect><rect x="740" y="171.0275229357798" height="14.091743119266084" width="5" fill="black"><title>16: 16</title></rect><rect x="0" y="329.10091743119256" height="14.972477064220186" width="5" fill="black"><title>smart grid: 17</title></rect><rect x="740" y="190.1192660550459" height="14.972477064220186" width="5" fill="black"><title>17: 17</title></rect><rect x="0" y="349.07339449541274" height="16.733944954128447" width="5" fill="black"><title>internet of things: 19</title></rect><rect x="740" y="210.09174311926608" height="16.733944954128447" width="5" fill="black"><title>19: 19</title></rect><rect x="0" y="370.8073394495412" height="17.61467889908255" width="5" fill="black"><title>cyber attacks: 20</title></rect><rect x="740" y="231.82568807339453" height="17.61467889908255" width="5" fill="black"><title>20: 20</title></rect><rect x="0" y="393.42201834862374" height="21.13761467889907" width="5" fill="black"><title>cyber physical system: 24</title></rect><rect x="740" y="254.44036697247708" height="21.13761467889907" width="5" fill="black"><title>24: 24</title></rect><rect x="740" y="280.57798165137615" height="21.13761467889907" width="5" fill="black"><title>4: 24</title></rect><rect x="0" y="419.5596330275228" height="22.89908256880733" width="5" fill="black"><title>network security: 26</title></rect><rect x="740" y="306.7155963302752" height="22.89908256880733" width="5" fill="black"><title>26: 26</title></rect><rect x="740" y="334.61467889908255" height="26.42201834862385" width="5" fill="black"><title>5: 30</title></rect><rect x="740" y="366.0366972477064" height="26.42201834862385" width="5" fill="black"><title>3: 30</title></rect><rect x="0" y="447.45871559633014" height="58.128440366972484" width="5" fill="black"><title>cybersecurity: 66</title></rect><rect x="740" y="397.45871559633025" height="58.128440366972484" width="5" fill="black"><title>66: 66</title></rect><rect x="0" y="510.5871559633026" height="63.412844036697265" width="5" fill="black"><title>digital twin: 72</title></rect><rect x="740" y="460.58715596330273" height="63.412844036697265" width="5" fill="black"><title>72: 72</title></rect></g><g fill="none" stroke-opacity="1"><g style="mix-blend-mode: multiply;"><path d="M5,542.2935779816512C372.5,542.2935779816512,372.5,492.29357798165137,740,492.29357798165137" stroke="#a9c3e0" stroke-width="63.41284403669725"/><title>digital twin → 72: 72</title></g><g style="mix-blend-mode: multiply;"><path d="M5,476.5229357798164C372.5,476.5229357798164,372.5,426.5229357798165,740,426.5229357798165" stroke="#cccccc" stroke-width="58.128440366972484"/><title>cybersecurity → 66: 66</title></g><g style="mix-blend-mode: multiply;"><path d="M5,431.0091743119265C372.5,431.0091743119265,372.5,318.1651376146789,740,318.1651376146789" stroke="#cccccc" stroke-width="22.89908256880734"/><title>network security → 26: 26</title></g><g style="mix-blend-mode: multiply;"><path d="M5,403.9908256880733C372.5,403.9908256880733,372.5,265.00917431192664,740,265.00917431192664" stroke="#c39c7a" stroke-width="21.137614678899084"/><title>cyber physical system → 24: 24</title></g><g style="mix-blend-mode: multiply;"><path d="M5,379.6146788990825C372.5,379.6146788990825,372.5,240.6330275229358,740,240.6330275229358" stroke="#f67c8c" stroke-width="17.61467889908257"/><title>cyber attacks → 20: 20</title></g><g style="mix-blend-mode: multiply;"><path d="M5,357.44036697247697C372.5,357.44036697247697,372.5,218.4587155963303,740,218.4587155963303" stroke="#b581bf" stroke-width="16.73394495412844"/><title>internet of things → 19: 19</title></g><g style="mix-blend-mode: multiply;"><path d="M5,336.5871559633026C372.5,336.5871559633026,372.5,197.605504587156,740,197.605504587156" stroke="#cccccc" stroke-width="14.972477064220184"/><title>smart grid → 17: 17</title></g><g style="mix-blend-mode: multiply;"><path d="M5,317.05504587155957C372.5,317.05504587155957,372.5,178.07339449541286,740,178.07339449541286" stroke="#cccccc" stroke-width="14.091743119266056"/><title>embedded systems → 16: 16</title></g><g style="mix-blend-mode: multiply;"><path d="M5,298.40366972477057C372.5,298.40366972477057,372.5,159.42201834862385,740,159.42201834862385" stroke="#cccccc" stroke-width="13.211009174311927"/><title>industrial control systems → 15: 15</title></g><g style="mix-blend-mode: multiply;"><path d="M5,280.63302752293566C372.5,280.63302752293566,372.5,141.65137614678903,740,141.65137614678903" stroke="#cccccc" stroke-width="12.330275229357799"/><title>real- time → 14: 14</title></g><g style="mix-blend-mode: multiply;"><path d="M5,263.743119266055C372.5,263.743119266055,372.5,124.76146788990823,740,124.76146788990823" stroke="#a2da9f" stroke-width="11.44954128440367"/><title>industry 4.0 → 13: 13</title></g><g style="mix-blend-mode: multiply;"><path d="M5,248.1743119266054C372.5,248.1743119266054,372.5,93.62385321100913,740,93.62385321100913" stroke="#cccccc" stroke-width="9.688073394495413"/><title>industries → 11: 11</title></g><g style="mix-blend-mode: multiply;"><path d="M5,233.92660550458706C372.5,233.92660550458706,372.5,79.37614678899082,740,79.37614678899082" stroke="#2ca02c" stroke-width="8.807339449541285"/><title>anomaly detection → 10: 10</title></g><g style="mix-blend-mode: multiply;"><path d="M5,220.55963302752284C372.5,220.55963302752284,372.5,66.00917431192661,740,66.00917431192661" stroke="#e377c2" stroke-width="7.926605504587156"/><title>blockchain → 9: 9</title></g><g style="mix-blend-mode: multiply;"><path d="M5,208.07339449541274C372.5,208.07339449541274,372.5,53.522935779816514,740,53.522935779816514" stroke="#cccccc" stroke-width="7.045871559633028"/><title>privacy → 8: 8</title></g><g style="mix-blend-mode: multiply;"><path d="M5,186.62385321100905C372.5,186.62385321100905,372.5,106.11009174311923,740,106.11009174311923" stroke="#cccccc" stroke-width="5.284403669724771"/><title>e-learning → 6: 6</title></g><g style="mix-blend-mode: multiply;"><path d="M5,196.90825688073383C372.5,196.90825688073383,372.5,111.394495412844,740,111.394495412844" stroke="#9de6d6" stroke-width="5.284403669724771"/><title>machine learning → 6: 6</title></g><g style="mix-blend-mode: multiply;"><path d="M5,129.76146788990823C372.5,129.76146788990823,372.5,336.8165137614679,740,336.8165137614679" stroke="#7f7f7f" stroke-width="4.4036697247706424"/><title>cloud computing → 5: 5</title></g><g style="mix-blend-mode: multiply;"><path d="M5,139.16513761467886C372.5,139.16513761467886,372.5,341.2201834862385,740,341.2201834862385" stroke="#17becf" stroke-width="4.4036697247706424"/><title>computer architecture → 5: 5</title></g><g style="mix-blend-mode: multiply;"><path d="M5,148.56880733944948C372.5,148.56880733944948,372.5,345.62385321100913,740,345.62385321100913" stroke="#cccccc" stroke-width="4.4036697247706424"/><title>data models → 5: 5</title></g><g style="mix-blend-mode: multiply;"><path d="M5,157.9724770642201C372.5,157.9724770642201,372.5,350.02752293577976,740,350.02752293577976" stroke="#cccccc" stroke-width="4.4036697247706424"/><title>integrated circuits → 5: 5</title></g><g style="mix-blend-mode: multiply;"><path d="M5,167.37614678899072C372.5,167.37614678899072,372.5,354.4311926605504,740,354.4311926605504" stroke="#cccccc" stroke-width="4.4036697247706424"/><title>safety → 5: 5</title></g><g style="mix-blend-mode: multiply;"><path d="M5,176.77981651376135C372.5,176.77981651376135,372.5,358.834862385321,740,358.834862385321" stroke="#cccccc" stroke-width="4.4036697247706424"/><title>security frameworks → 5: 5</title></g><g style="mix-blend-mode: multiply;"><path d="M5,78.18348623853205C372.5,78.18348623853205,372.5,282.3394495412844,740,282.3394495412844" stroke="#ff7f0e" stroke-width="3.522935779816514"/><title>analytical models → 4: 4</title></g><g style="mix-blend-mode: multiply;"><path d="M5,86.70642201834858C372.5,86.70642201834858,372.5,285.86238532110093,740,285.86238532110093" stroke="#d62728" stroke-width="3.522935779816514"/><title>automation → 4: 4</title></g><g style="mix-blend-mode: multiply;"><path d="M5,95.2293577981651C372.5,95.2293577981651,372.5,289.38532110091745,740,289.38532110091745" stroke="#bcbd22" stroke-width="3.522935779816514"/><title>computational modeling → 4: 4</title></g><g style="mix-blend-mode: multiply;"><path d="M5,103.75229357798162C372.5,103.75229357798162,372.5,292.908256880734,740,292.908256880734" stroke="#cccccc" stroke-width="3.522935779816514"/><title>critical infrastructures → 4: 4</title></g><g style="mix-blend-mode: multiply;"><path d="M5,112.27522935779814C372.5,112.27522935779814,372.5,296.4311926605505,740,296.4311926605505" stroke="#cccccc" stroke-width="3.522935779816514"/><title>life cycle → 4: 4</title></g><g style="mix-blend-mode: multiply;"><path d="M5,120.79816513761466C372.5,120.79816513761466,372.5,299.954128440367,740,299.954128440367" stroke="#cccccc" stroke-width="3.522935779816514"/><title>monitoring → 4: 4</title></g><g style="mix-blend-mode: multiply;"><path d="M5,1.3211009174313064C372.5,1.3211009174313064,372.5,367.3577981651376,740,367.3577981651376" stroke="#1f77b4" stroke-width="2.6422018348623855"/><title>access control → 3: 3</title></g><g style="mix-blend-mode: multiply;"><path d="M5,8.963302752293668C372.5,8.963302752293668,372.5,369.99999999999994,740,369.99999999999994" stroke="#9467bd" stroke-width="2.6422018348623855"/><title>automotive industry → 3: 3</title></g><g style="mix-blend-mode: multiply;"><path d="M5,16.605504587156087C372.5,16.605504587156087,372.5,372.6422018348623,740,372.6422018348623" stroke="#8c564b" stroke-width="2.6422018348623855"/><title>availability → 3: 3</title></g><g style="mix-blend-mode: multiply;"><path d="M5,24.24770642201845C372.5,24.24770642201845,372.5,375.28440366972467,740,375.28440366972467" stroke="#cccccc" stroke-width="2.6422018348623855"/><title>intelligent control → 3: 3</title></g><g style="mix-blend-mode: multiply;"><path d="M5,31.889908256880812C372.5,31.889908256880812,372.5,377.92660550458703,740,377.92660550458703" stroke="#cccccc" stroke-width="2.6422018348623855"/><title>physical systems → 3: 3</title></g><g style="mix-blend-mode: multiply;"><path d="M5,39.53211009174318C372.5,39.53211009174318,372.5,380.5688073394494,740,380.5688073394494" stroke="#cccccc" stroke-width="2.6422018348623855"/><title>predictive models → 3: 3</title></g><g style="mix-blend-mode: multiply;"><path d="M5,47.17431192660554C372.5,47.17431192660554,372.5,383.21100917431176,740,383.21100917431176" stroke="#cccccc" stroke-width="2.6422018348623855"/><title>prototypes → 3: 3</title></g><g style="mix-blend-mode: multiply;"><path d="M5,54.8165137614679C372.5,54.8165137614679,372.5,385.8532110091741,740,385.8532110091741" stroke="#cccccc" stroke-width="2.6422018348623855"/><title>resilience → 3: 3</title></g><g style="mix-blend-mode: multiply;"><path d="M5,62.458715596330265C372.5,62.458715596330265,372.5,388.4954128440365,740,388.4954128440365" stroke="#cccccc" stroke-width="2.6422018348623855"/><title>security analysis → 3: 3</title></g><g style="mix-blend-mode: multiply;"><path d="M5,70.10091743119263C372.5,70.10091743119263,372.5,391.13761467889884,740,391.13761467889884" stroke="#cccccc" stroke-width="2.6422018348623855"/><title>synchronization → 3: 3</title></g></g><g><text x="9" y="1.3211009174312949" text-anchor="start"><tspan alignment-baseline="middle" x="9" style="font-family: Arial, sans-serif; font-size: 10px; fill: black; font-weight: bold;">access control</tspan></text><text x="9" y="8.963302752293686" text-anchor="start"><tspan alignment-baseline="middle" x="9" style="font-family: Arial, sans-serif; font-size: 10px; fill: black; font-weight: bold;">automotive industry</tspan></text><text x="9" y="16.605504587156076" text-anchor="start"><tspan alignment-baseline="middle" x="9" style="font-family: Arial, sans-serif; font-size: 10px; fill: black; font-weight: bold;">availability</tspan></text><text x="9" y="24.24770642201844" text-anchor="start"><tspan alignment-baseline="middle" x="9" style="font-family: Arial, sans-serif; font-size: 10px; fill: black; font-weight: bold;">intelligent control</tspan></text><text x="9" y="31.8899082568808" text-anchor="start"><tspan alignment-baseline="middle" x="9" style="font-family: Arial, sans-serif; font-size: 10px; fill: black; font-weight: bold;">physical systems</tspan></text><text x="9" y="39.532110091743164" text-anchor="start"><tspan alignment-baseline="middle" x="9" style="font-family: Arial, sans-serif; font-size: 10px; fill: black; font-weight: bold;">predictive models</tspan></text><text x="9" y="47.174311926605526" text-anchor="start"><tspan alignment-baseline="middle" x="9" style="font-family: Arial, sans-serif; font-size: 10px; fill: black; font-weight: bold;">prototypes</tspan></text><text x="9" y="54.81651376146789" text-anchor="start"><tspan alignment-baseline="middle" x="9" style="font-family: Arial, sans-serif; font-size: 10px; fill: black; font-weight: bold;">resilience</tspan></text><text x="9" y="62.45871559633025" text-anchor="start"><tspan alignment-baseline="middle" x="9" style="font-family: Arial, sans-serif; font-size: 10px; fill: black; font-weight: bold;">security analysis</tspan></text><text x="9" y="70.10091743119261" text-anchor="start"><tspan alignment-baseline="middle" x="9" style="font-family: Arial, sans-serif; font-size: 10px; fill: black; font-weight: bold;">synchronization</tspan></text><text x="9" y="78.18348623853205" text-anchor="start"><tspan alignment-baseline="middle" x="9" style="font-family: Arial, sans-serif; font-size: 10px; fill: black; font-weight: bold;">analytical models</tspan></text><text x="9" y="86.70642201834858" text-anchor="start"><tspan alignment-baseline="middle" x="9" style="font-family: Arial, sans-serif; font-size: 10px; fill: black; font-weight: bold;">automation</tspan></text><text x="9" y="95.2293577981651" text-anchor="start"><tspan alignment-baseline="middle" x="9" style="font-family: Arial, sans-serif; font-size: 10px; fill: black; font-weight: bold;">computational modeling</tspan></text><text x="9" y="103.75229357798162" text-anchor="start"><tspan alignment-baseline="middle" x="9" style="font-family: Arial, sans-serif; font-size: 10px; fill: black; font-weight: bold;">critical infrastructures</tspan></text><text x="9" y="112.27522935779814" text-anchor="start"><tspan alignment-baseline="middle" x="9" style="font-family: Arial, sans-serif; font-size: 10px; fill: black; font-weight: bold;">life cycle</tspan></text><text x="9" y="120.79816513761466" text-anchor="start"><tspan alignment-baseline="middle" x="9" style="font-family: Arial, sans-serif; font-size: 10px; fill: black; font-weight: bold;">monitoring</tspan></text><text x="9" y="129.76146788990823" text-anchor="start"><tspan alignment-baseline="middle" x="9" style="font-family: Arial, sans-serif; font-size: 10px; fill: black; font-weight: bold;">cloud computing</tspan></text><text x="9" y="139.16513761467886" text-anchor="start"><tspan alignment-baseline="middle" x="9" style="font-family: Arial, sans-serif; font-size: 10px; fill: black; font-weight: bold;">computer architecture</tspan></text><text x="9" y="148.56880733944948" text-anchor="start"><tspan alignment-baseline="middle" x="9" style="font-family: Arial, sans-serif; font-size: 10px; fill: black; font-weight: bold;">data models</tspan></text><text x="9" y="157.9724770642201" text-anchor="start"><tspan alignment-baseline="middle" x="9" style="font-family: Arial, sans-serif; font-size: 10px; fill: black; font-weight: bold;">integrated circuits</tspan></text><text x="9" y="167.37614678899072" text-anchor="start"><tspan alignment-baseline="middle" x="9" style="font-family: Arial, sans-serif; font-size: 10px; fill: black; font-weight: bold;">safety</tspan></text><text x="9" y="176.77981651376135" text-anchor="start"><tspan alignment-baseline="middle" x="9" style="font-family: Arial, sans-serif; font-size: 10px; fill: black; font-weight: bold;">security frameworks</tspan></text><text x="9" y="186.62385321100905" text-anchor="start"><tspan alignment-baseline="middle" x="9" style="font-family: Arial, sans-serif; font-size: 10px; fill: black; font-weight: bold;">e-learning</tspan></text><text x="9" y="196.90825688073383" text-anchor="start"><tspan alignment-baseline="middle" x="9" style="font-family: Arial, sans-serif; font-size: 10px; fill: black; font-weight: bold;">machine learning</tspan></text><text x="9" y="208.07339449541274" text-anchor="start"><tspan alignment-baseline="middle" x="9" style="font-family: Arial, sans-serif; font-size: 10px; fill: black; font-weight: bold;">privacy</tspan></text><text x="736" y="53.52293577981652" text-anchor="end"><tspan alignment-baseline="middle" x="736" style="font-family: Arial, sans-serif; font-size: 10px; fill: black; font-weight: bold;">8</tspan></text><text x="9" y="220.55963302752284" text-anchor="start"><tspan alignment-baseline="middle" x="9" style="font-family: Arial, sans-serif; font-size: 10px; fill: black; font-weight: bold;">blockchain</tspan></text><text x="736" y="66.00917431192661" text-anchor="end"><tspan alignment-baseline="middle" x="736" style="font-family: Arial, sans-serif; font-size: 10px; fill: black; font-weight: bold;">9</tspan></text><text x="9" y="233.92660550458706" text-anchor="start"><tspan alignment-baseline="middle" x="9" style="font-family: Arial, sans-serif; font-size: 10px; fill: black; font-weight: bold;">anomaly detection</tspan></text><text x="736" y="79.37614678899081" text-anchor="end"><tspan alignment-baseline="middle" x="736" style="font-family: Arial, sans-serif; font-size: 10px; fill: black; font-weight: bold;">10</tspan></text><text x="9" y="248.1743119266054" text-anchor="start"><tspan alignment-baseline="middle" x="9" style="font-family: Arial, sans-serif; font-size: 10px; fill: black; font-weight: bold;">industries</tspan></text><text x="736" y="93.62385321100913" text-anchor="end"><tspan alignment-baseline="middle" x="736" style="font-family: Arial, sans-serif; font-size: 10px; fill: black; font-weight: bold;">11</tspan></text><text x="736" y="108.75229357798162" text-anchor="end"><tspan alignment-baseline="middle" x="736" style="font-family: Arial, sans-serif; font-size: 10px; fill: black; font-weight: bold;">6</tspan></text><text x="9" y="263.7431192660549" text-anchor="start"><tspan alignment-baseline="middle" x="9" style="font-family: Arial, sans-serif; font-size: 10px; fill: black; font-weight: bold;">industry 4.0</tspan></text><text x="736" y="124.76146788990826" text-anchor="end"><tspan alignment-baseline="middle" x="736" style="font-family: Arial, sans-serif; font-size: 10px; fill: black; font-weight: bold;">13</tspan></text><text x="9" y="280.63302752293566" text-anchor="start"><tspan alignment-baseline="middle" x="9" style="font-family: Arial, sans-serif; font-size: 10px; fill: black; font-weight: bold;">real- time</tspan></text><text x="736" y="141.651376146789" text-anchor="end"><tspan alignment-baseline="middle" x="736" style="font-family: Arial, sans-serif; font-size: 10px; fill: black; font-weight: bold;">14</tspan></text><text x="9" y="298.40366972477057" text-anchor="start"><tspan alignment-baseline="middle" x="9" style="font-family: Arial, sans-serif; font-size: 10px; fill: black; font-weight: bold;">industrial control systems</tspan></text><text x="736" y="159.42201834862385" text-anchor="end"><tspan alignment-baseline="middle" x="736" style="font-family: Arial, sans-serif; font-size: 10px; fill: black; font-weight: bold;">15</tspan></text><text x="9" y="317.0550458715595" text-anchor="start"><tspan alignment-baseline="middle" x="9" style="font-family: Arial, sans-serif; font-size: 10px; fill: black; font-weight: bold;">embedded systems</tspan></text><text x="736" y="178.07339449541286" text-anchor="end"><tspan alignment-baseline="middle" x="736" style="font-family: Arial, sans-serif; font-size: 10px; fill: black; font-weight: bold;">16</tspan></text><text x="9" y="336.5871559633026" text-anchor="start"><tspan alignment-baseline="middle" x="9" style="font-family: Arial, sans-serif; font-size: 10px; fill: black; font-weight: bold;">smart grid</tspan></text><text x="736" y="197.605504587156" text-anchor="end"><tspan alignment-baseline="middle" x="736" style="font-family: Arial, sans-serif; font-size: 10px; fill: black; font-weight: bold;">17</tspan></text><text x="9" y="357.44036697247697" text-anchor="start"><tspan alignment-baseline="middle" x="9" style="font-family: Arial, sans-serif; font-size: 10px; fill: black; font-weight: bold;">internet of things</tspan></text><text x="736" y="218.4587155963303" text-anchor="end"><tspan alignment-baseline="middle" x="736" style="font-family: Arial, sans-serif; font-size: 10px; fill: black; font-weight: bold;">19</tspan></text><text x="9" y="379.6146788990825" text-anchor="start"><tspan alignment-baseline="middle" x="9" style="font-family: Arial, sans-serif; font-size: 10px; fill: black; font-weight: bold;">cyber attacks</tspan></text><text x="736" y="240.6330275229358" text-anchor="end"><tspan alignment-baseline="middle" x="736" style="font-family: Arial, sans-serif; font-size: 10px; fill: black; font-weight: bold;">20</tspan></text><text x="9" y="403.9908256880733" text-anchor="start"><tspan alignment-baseline="middle" x="9" style="font-family: Arial, sans-serif; font-size: 10px; fill: black; font-weight: bold;">cyber physical system</tspan></text><text x="736" y="265.0091743119266" text-anchor="end"><tspan alignment-baseline="middle" x="736" style="font-family: Arial, sans-serif; font-size: 10px; fill: black; font-weight: bold;">24</tspan></text><text x="736" y="291.1467889908257" text-anchor="end"><tspan alignment-baseline="middle" x="736" style="font-family: Arial, sans-serif; font-size: 10px; fill: black; font-weight: bold;">4</tspan></text><text x="9" y="431.0091743119265" text-anchor="start"><tspan alignment-baseline="middle" x="9" style="font-family: Arial, sans-serif; font-size: 10px; fill: black; font-weight: bold;">network security</tspan></text><text x="736" y="318.1651376146789" text-anchor="end"><tspan alignment-baseline="middle" x="736" style="font-family: Arial, sans-serif; font-size: 10px; fill: black; font-weight: bold;">26</tspan></text><text x="736" y="347.8256880733945" text-anchor="end"><tspan alignment-baseline="middle" x="736" style="font-family: Arial, sans-serif; font-size: 10px; fill: black; font-weight: bold;">5</tspan></text><text x="736" y="379.2477064220183" text-anchor="end"><tspan alignment-baseline="middle" x="736" style="font-family: Arial, sans-serif; font-size: 10px; fill: black; font-weight: bold;">3</tspan></text><text x="9" y="476.5229357798164" text-anchor="start"><tspan alignment-baseline="middle" x="9" style="font-family: Arial, sans-serif; font-size: 10px; fill: black; font-weight: bold;">cybersecurity</tspan></text><text x="736" y="426.5229357798165" text-anchor="end"><tspan alignment-baseline="middle" x="736" style="font-family: Arial, sans-serif; font-size: 10px; fill: black; font-weight: bold;">66</tspan></text><text x="9" y="542.2935779816512" text-anchor="start"><tspan alignment-baseline="middle" x="9" style="font-family: Arial, sans-serif; font-size: 10px; fill: black; font-weight: bold;">digital twin</tspan></text><text x="736" y="492.29357798165137" text-anchor="end"><tspan alignment-baseline="middle" x="736" style="font-family: Arial, sans-serif; font-size: 10px; fill: black; font-weight: bold;">72</tspan></text></g><g><text x="2.5" y="-3.9999999999998863" text-anchor="middle" style="font-family: Arial, sans-serif; font-size: 12px; fill: rgb(123, 123, 123); font-weight: bold;">Keyword</text><text x="742.5" y="46" text-anchor="middle" style="font-family: Arial, sans-serif; font-size: 12px; fill: rgb(123, 123, 123); font-weight: bold;">Occurrence</text></g></g></svg>