<svg width="1653" height="993" xmlns="http://www.w3.org/2000/svg" xmlns:xlink="http://www.w3.org/1999/xlink" xml:space="preserve" overflow="hidden"><defs><clipPath id="clip0"><rect x="1443" y="186" width="1653" height="993"/></clipPath><clipPath id="clip1"><rect x="1443" y="187" width="1650" height="990"/></clipPath><clipPath id="clip2"><rect x="1694" y="352" width="1329" height="633"/></clipPath><clipPath id="clip3"><rect x="1443" y="187" width="1650" height="990"/></clipPath><clipPath id="clip4"><rect x="1443" y="187" width="1650" height="990"/></clipPath><clipPath id="clip5"><rect x="1443" y="187" width="1650" height="990"/></clipPath><clipPath id="clip6"><rect x="1443" y="187" width="1650" height="990"/></clipPath><clipPath id="clip7"><rect x="1443" y="187" width="1650" height="990"/></clipPath><clipPath id="clip8"><rect x="1443" y="187" width="1650" height="990"/></clipPath><clipPath id="clip9"><rect x="1443" y="187" width="1650" height="990"/></clipPath><clipPath id="clip10"><rect x="1443" y="187" width="1650" height="990"/></clipPath><clipPath id="clip11"><rect x="1443" y="187" width="1650" height="990"/></clipPath><clipPath id="clip12"><rect x="1443" y="187" width="1650" height="990"/></clipPath><clipPath id="clip13"><rect x="1443" y="187" width="1650" height="990"/></clipPath><clipPath id="clip14"><rect x="1443" y="187" width="1650" height="990"/></clipPath><clipPath id="clip15"><rect x="1443" y="187" width="1650" height="990"/></clipPath><clipPath id="clip16"><rect x="1443" y="187" width="1650" height="990"/></clipPath><clipPath id="clip17"><rect x="1443" y="187" width="1650" height="990"/></clipPath><clipPath id="clip18"><rect x="1443" y="187" width="1650" height="990"/></clipPath><clipPath id="clip19"><rect x="1443" y="187" width="1650" height="990"/></clipPath><clipPath id="clip20"><rect x="1443" y="187" width="1650" height="990"/></clipPath><clipPath id="clip21"><rect x="1443" y="187" width="1650" height="990"/></clipPath><clipPath id="clip22"><rect x="1443" y="187" width="1650" height="990"/></clipPath><clipPath id="clip23"><rect x="1443" y="187" width="1650" height="990"/></clipPath><clipPath id="clip24"><rect x="1443" y="187" width="1650" height="990"/></clipPath><clipPath id="clip25"><rect x="1443" y="187" width="1650" height="990"/></clipPath><clipPath id="clip26"><rect x="1443" y="187" width="1650" height="990"/></clipPath><clipPath id="clip27"><rect x="1443" y="187" width="1650" height="990"/></clipPath></defs><g clip-path="url(#clip0)" transform="translate(-1443 -186)"><rect x="1444" y="187" width="1650" height="990" fill="#FFFFFF"/><g clip-path="url(#clip1)"><path d="M1860.56 352.5 1860.56 982.5M2026.57 352.5 2026.57 982.5M2191.57 352.5 2191.57 982.5M2357.58 352.5 2357.58 982.5M2523.58 352.5 2523.58 982.5M2688.59 352.5 2688.59 982.5M2854.59 352.5 2854.59 982.5M3020.5 352.5 3020.5 982.5" stroke="#D9D9D9" stroke-width="3.4375" stroke-linejoin="round" stroke-miterlimit="10" fill="none"/></g><g clip-path="url(#clip2)"><path d="M1728.06 386.013 1695 386.013 1695 424.014 1728.06 424.014ZM1860.06 491.016 1695 491.016 1695 529.017 1860.06 529.017ZM2059.07 596.02 1695 596.02 1695 633.021 2059.07 633.021ZM2357.08 701.023 1695 701.023 1695 738.024 2357.08 738.024ZM2855.09 806.026 1695 806.026 1695 843.028 2855.09 843.028ZM1728.06 911.03 1695 911.03 1695 948.031 1728.06 948.031Z" fill="#4285F4"/></g><g clip-path="url(#clip3)"><path d="M1694.5 352.5 1694.5 982.5" stroke="#D9D9D9" stroke-width="3.4375" stroke-linejoin="round" stroke-miterlimit="10" fill="none" fill-rule="evenodd"/></g><g clip-path="url(#clip4)"><text fill="#404040" font-family="Arial,Arial_MSFontService,sans-serif" font-weight="400" font-size="41" transform="matrix(1 0 0 1 1755.38 420)">1</text></g><g clip-path="url(#clip5)"><text fill="#404040" font-family="Arial,Arial_MSFontService,sans-serif" font-weight="400" font-size="41" transform="matrix(1 0 0 1 1887.94 525)">5</text></g><g clip-path="url(#clip6)"><text fill="#404040" font-family="Arial,Arial_MSFontService,sans-serif" font-weight="400" font-size="41" transform="matrix(1 0 0 1 2086.79 630)">11</text></g><g clip-path="url(#clip7)"><text fill="#404040" font-family="Arial,Arial_MSFontService,sans-serif" font-weight="400" font-size="41" transform="matrix(1 0 0 1 2385.06 735)">20</text></g><g clip-path="url(#clip8)"><text fill="#404040" font-family="Arial,Arial_MSFontService,sans-serif" font-weight="400" font-size="41" transform="matrix(1 0 0 1 2882.19 840)">35</text></g><g clip-path="url(#clip9)"><text fill="#404040" font-family="Arial,Arial_MSFontService,sans-serif" font-weight="400" font-size="41" transform="matrix(1 0 0 1 1755.38 945)">1</text></g><g clip-path="url(#clip10)"><text fill="#595959" font-family="Arial,Arial_MSFontService,sans-serif" font-weight="400" font-size="41" transform="matrix(1 0 0 1 1683.26 1044)">0</text></g><g clip-path="url(#clip11)"><text fill="#595959" font-family="Arial,Arial_MSFontService,sans-serif" font-weight="400" font-size="41" transform="matrix(1 0 0 1 1848.97 1044)">5</text></g><g clip-path="url(#clip12)"><text fill="#595959" font-family="Arial,Arial_MSFontService,sans-serif" font-weight="400" font-size="41" transform="matrix(1 0 0 1 2003.21 1044)">10</text></g><g clip-path="url(#clip13)"><text fill="#595959" font-family="Arial,Arial_MSFontService,sans-serif" font-weight="400" font-size="41" transform="matrix(1 0 0 1 2168.92 1044)">15</text></g><g clip-path="url(#clip14)"><text fill="#595959" font-family="Arial,Arial_MSFontService,sans-serif" font-weight="400" font-size="41" transform="matrix(1 0 0 1 2334.62 1044)">20</text></g><g clip-path="url(#clip15)"><text fill="#595959" font-family="Arial,Arial_MSFontService,sans-serif" font-weight="400" font-size="41" transform="matrix(1 0 0 1 2500.33 1044)">25</text></g><g clip-path="url(#clip16)"><text fill="#595959" font-family="Arial,Arial_MSFontService,sans-serif" font-weight="400" font-size="41" transform="matrix(1 0 0 1 2666.04 1044)">30</text></g><g clip-path="url(#clip17)"><text fill="#595959" font-family="Arial,Arial_MSFontService,sans-serif" font-weight="400" font-size="41" transform="matrix(1 0 0 1 2831.75 1044)">35</text></g><g clip-path="url(#clip18)"><text fill="#595959" font-family="Arial,Arial_MSFontService,sans-serif" font-weight="400" font-size="41" transform="matrix(1 0 0 1 2997.45 1044)">40</text></g><g clip-path="url(#clip19)"><text fill="#595959" font-family="Arial,Arial_MSFontService,sans-serif" font-weight="400" font-size="41" transform="matrix(1 0 0 1 1567.5 418)">2018</text></g><g clip-path="url(#clip20)"><text fill="#595959" font-family="Arial,Arial_MSFontService,sans-serif" font-weight="400" font-size="41" transform="matrix(1 0 0 1 1567.5 523)">2019</text></g><g clip-path="url(#clip21)"><text fill="#595959" font-family="Arial,Arial_MSFontService,sans-serif" font-weight="400" font-size="41" transform="matrix(1 0 0 1 1567.5 628)">2020</text></g><g clip-path="url(#clip22)"><text fill="#595959" font-family="Arial,Arial_MSFontService,sans-serif" font-weight="400" font-size="41" transform="matrix(1 0 0 1 1567.5 733)">2021</text></g><g clip-path="url(#clip23)"><text fill="#595959" font-family="Arial,Arial_MSFontService,sans-serif" font-weight="400" font-size="41" transform="matrix(1 0 0 1 1567.5 838)">2022</text></g><g clip-path="url(#clip24)"><text fill="#595959" font-family="Arial,Arial_MSFontService,sans-serif" font-weight="400" font-size="41" transform="matrix(1 0 0 1 1567.5 943)">2023</text></g><g clip-path="url(#clip25)"><text fill="#595959" font-family="Arial,Arial_MSFontService,sans-serif" font-weight="400" font-size="46" transform="matrix(1 0 0 1 2190.71 1110)">Publication Year</text></g><g clip-path="url(#clip26)"><text fill="#595959" font-family="Arial,Arial_MSFontService,sans-serif" font-weight="400" font-size="46" transform="matrix(6.12323e-17 -1 1 6.12323e-17 1544.03 834)">Publication Year</text></g><g clip-path="url(#clip27)"><text fill="#595959" font-family="Arial,Arial_MSFontService,sans-serif" font-weight="400" font-size="64" transform="matrix(1 0 0 1 1821.35 281)">Distribution of 'Publication Year'</text></g><rect x="1444.5" y="187.5" width="1650" height="990" stroke="#D9D9D9" stroke-width="3.4375" stroke-linejoin="round" stroke-miterlimit="10" fill="none"/></g></svg>