<svg width="1653" height="993" xmlns="http://www.w3.org/2000/svg" xmlns:xlink="http://www.w3.org/1999/xlink" xml:space="preserve" overflow="hidden"><defs><filter id="fx0" x="-10%" y="-10%" width="120%" height="120%" filterUnits="userSpaceOnUse" primitiveUnits="userSpaceOnUse"><feComponentTransfer color-interpolation-filters="sRGB"><feFuncR type="discrete" tableValues="0 0"/><feFuncG type="discrete" tableValues="0 0"/><feFuncB type="discrete" tableValues="0 0"/><feFuncA type="linear" slope="0.631373" intercept="0"/></feComponentTransfer><feGaussianBlur stdDeviation="6.875 6.875"/></filter><filter id="fx1" x="-10%" y="-10%" width="120%" height="120%" filterUnits="userSpaceOnUse" primitiveUnits="userSpaceOnUse"><feComponentTransfer color-interpolation-filters="sRGB"><feFuncR type="discrete" tableValues="0 0"/><feFuncG type="discrete" tableValues="0 0"/><feFuncB type="discrete" tableValues="0 0"/><feFuncA type="linear" slope="0.631373" intercept="0"/></feComponentTransfer><feGaussianBlur stdDeviation="6.875 6.875"/></filter><filter id="fx2" x="-10%" y="-10%" width="120%" height="120%" filterUnits="userSpaceOnUse" primitiveUnits="userSpaceOnUse"><feComponentTransfer color-interpolation-filters="sRGB"><feFuncR type="discrete" tableValues="0 0"/><feFuncG type="discrete" tableValues="0 0"/><feFuncB type="discrete" tableValues="0 0"/><feFuncA type="linear" slope="0.631373" intercept="0"/></feComponentTransfer><feGaussianBlur stdDeviation="6.875 6.875"/></filter><filter id="fx3" x="-10%" y="-10%" width="120%" height="120%" filterUnits="userSpaceOnUse" primitiveUnits="userSpaceOnUse"><feComponentTransfer color-interpolation-filters="sRGB"><feFuncR type="discrete" tableValues="0 0"/><feFuncG type="discrete" tableValues="0 0"/><feFuncB type="discrete" tableValues="0 0"/><feFuncA type="linear" slope="0.631373" intercept="0"/></feComponentTransfer><feGaussianBlur stdDeviation="6.875 6.875"/></filter><filter id="fx4" x="-10%" y="-10%" width="120%" height="120%" filterUnits="userSpaceOnUse" primitiveUnits="userSpaceOnUse"><feComponentTransfer color-interpolation-filters="sRGB"><feFuncR type="discrete" tableValues="0 0"/><feFuncG type="discrete" tableValues="0 0"/><feFuncB type="discrete" tableValues="0 0"/><feFuncA type="linear" slope="0.631373" intercept="0"/></feComponentTransfer><feGaussianBlur stdDeviation="6.875 6.875"/></filter><filter id="fx5" x="-10%" y="-10%" width="120%" height="120%" filterUnits="userSpaceOnUse" primitiveUnits="userSpaceOnUse"><feComponentTransfer color-interpolation-filters="sRGB"><feFuncR type="discrete" tableValues="0 0"/><feFuncG type="discrete" tableValues="0 0"/><feFuncB type="discrete" tableValues="0 0"/><feFuncA type="linear" slope="0.631373" intercept="0"/></feComponentTransfer><feGaussianBlur stdDeviation="6.875 6.875"/></filter><clipPath id="clip6"><rect x="1443" y="186" width="1653" height="993"/></clipPath><clipPath id="clip7"><rect x="1443" y="187" width="1650" height="990"/></clipPath><clipPath id="clip8"><rect x="1689" y="363" width="1334" height="628"/></clipPath><clipPath id="clip9"><rect x="-3" y="-3" width="81" height="96"/></clipPath><clipPath id="clip10"><rect x="0" y="0" width="77" height="92"/></clipPath><clipPath id="clip11"><rect x="1689" y="363" width="1334" height="628"/></clipPath><clipPath id="clip12"><rect x="-3" y="-3" width="214" height="96"/></clipPath><clipPath id="clip13"><rect x="0" y="0" width="210" height="92"/></clipPath><clipPath id="clip14"><rect x="1689" y="363" width="1334" height="628"/></clipPath><clipPath id="clip15"><rect x="-3" y="-3" width="413" height="96"/></clipPath><clipPath id="clip16"><rect x="0" y="0" width="409" height="92"/></clipPath><clipPath id="clip17"><rect x="1689" y="363" width="1334" height="628"/></clipPath><clipPath id="clip18"><rect x="-3" y="-3" width="715" height="100"/></clipPath><clipPath id="clip19"><rect x="0" y="0" width="709" height="93"/></clipPath><clipPath id="clip20"><rect x="1689" y="363" width="1334" height="628"/></clipPath><clipPath id="clip21"><rect x="-3" y="-3" width="1216" height="100"/></clipPath><clipPath id="clip22"><rect x="0" y="0" width="1208" height="93"/></clipPath><clipPath id="clip23"><rect x="1689" y="363" width="1334" height="628"/></clipPath><clipPath id="clip24"><rect x="-3" y="-3" width="81" height="100"/></clipPath><clipPath id="clip25"><rect x="0" y="0" width="77" height="93"/></clipPath><clipPath id="clip26"><rect x="1689" y="363" width="1334" height="628"/></clipPath><linearGradient x1="1706" y1="391" x2="1706" y2="439" gradientUnits="userSpaceOnUse" spreadMethod="reflect" id="fill27"><stop offset="0" stop-color="#6093F7"/><stop offset="0.5" stop-color="#3983FD"/><stop offset="1" stop-color="#2771E5"/></linearGradient><clipPath id="clip28"><rect x="1689" y="363" width="1334" height="628"/></clipPath><linearGradient x1="1772.5" y1="495" x2="1772.5" y2="543" gradientUnits="userSpaceOnUse" spreadMethod="reflect" id="fill29"><stop offset="0" stop-color="#6093F7"/><stop offset="0.5" stop-color="#3983FD"/><stop offset="1" stop-color="#2771E5"/></linearGradient><clipPath id="clip30"><rect x="1689" y="363" width="1334" height="628"/></clipPath><linearGradient x1="1872" y1="599" x2="1872" y2="647" gradientUnits="userSpaceOnUse" spreadMethod="reflect" id="fill31"><stop offset="0" stop-color="#6093F7"/><stop offset="0.5" stop-color="#3983FD"/><stop offset="1" stop-color="#2771E5"/></linearGradient><clipPath id="clip32"><rect x="1689" y="363" width="1334" height="628"/></clipPath><linearGradient x1="2022" y1="703" x2="2022" y2="752" gradientUnits="userSpaceOnUse" spreadMethod="reflect" id="fill33"><stop offset="0" stop-color="#6093F7"/><stop offset="0.5" stop-color="#3983FD"/><stop offset="1" stop-color="#2771E5"/></linearGradient><clipPath id="clip34"><rect x="1689" y="363" width="1334" height="628"/></clipPath><linearGradient x1="2271.5" y1="807" x2="2271.5" y2="856" gradientUnits="userSpaceOnUse" spreadMethod="reflect" id="fill35"><stop offset="0" stop-color="#6093F7"/><stop offset="0.5" stop-color="#3983FD"/><stop offset="1" stop-color="#2771E5"/></linearGradient><clipPath id="clip36"><rect x="1689" y="363" width="1334" height="628"/></clipPath><linearGradient x1="1706" y1="911" x2="1706" y2="960" gradientUnits="userSpaceOnUse" spreadMethod="reflect" id="fill37"><stop offset="0" stop-color="#6093F7"/><stop offset="0.5" stop-color="#3983FD"/><stop offset="1" stop-color="#2771E5"/></linearGradient><clipPath id="clip38"><rect x="1443" y="187" width="1650" height="990"/></clipPath><clipPath id="clip39"><rect x="1443" y="187" width="1650" height="990"/></clipPath><clipPath id="clip40"><rect x="1443" y="187" width="1650" height="990"/></clipPath><clipPath id="clip41"><rect x="1443" y="187" width="1650" height="990"/></clipPath><clipPath id="clip42"><rect x="1443" y="187" width="1650" height="990"/></clipPath><clipPath id="clip43"><rect x="1443" y="187" width="1650" height="990"/></clipPath><clipPath id="clip44"><rect x="1443" y="187" width="1650" height="990"/></clipPath><clipPath id="clip45"><rect x="1443" y="187" width="1650" height="990"/></clipPath><clipPath id="clip46"><rect x="1443" y="187" width="1650" height="990"/></clipPath><clipPath id="clip47"><rect x="1443" y="187" width="1650" height="990"/></clipPath><clipPath id="clip48"><rect x="1443" y="187" width="1650" height="990"/></clipPath><clipPath id="clip49"><rect x="1443" y="187" width="1650" height="990"/></clipPath><clipPath id="clip50"><rect x="1443" y="187" width="1650" height="990"/></clipPath><clipPath id="clip51"><rect x="1443" y="187" width="1650" height="990"/></clipPath><clipPath id="clip52"><rect x="1443" y="187" width="1650" height="990"/></clipPath><clipPath id="clip53"><rect x="1443" y="187" width="1650" height="990"/></clipPath><clipPath id="clip54"><rect x="1443" y="187" width="1650" height="990"/></clipPath><clipPath id="clip55"><rect x="1443" y="187" width="1650" height="990"/></clipPath><clipPath id="clip56"><rect x="1443" y="187" width="1650" height="990"/></clipPath><clipPath id="clip57"><rect x="1443" y="187" width="1650" height="990"/></clipPath><clipPath id="clip58"><rect x="1443" y="187" width="1650" height="990"/></clipPath><clipPath id="clip59"><rect x="1443" y="187" width="1650" height="990"/></clipPath><clipPath id="clip60"><rect x="1443" y="187" width="1650" height="990"/></clipPath><clipPath id="clip61"><rect x="1443" y="187" width="1650" height="990"/></clipPath><clipPath id="clip62"><rect x="1443" y="187" width="1650" height="990"/></clipPath><clipPath id="clip63"><rect x="2197" y="16" width="144" height="496"/></clipPath></defs><g clip-path="url(#clip6)" transform="translate(-1443 -186)"><rect x="1444" y="187" width="1650" height="990" fill="#FFFFFF"/><g clip-path="url(#clip7)"><path d="M1855.56 363.5 1855.56 987.5M2022.57 363.5 2022.57 987.5M2188.57 363.5 2188.57 987.5M2354.58 363.5 2354.58 987.5M2521.58 363.5 2521.58 987.5M2687.59 363.5 2687.59 987.5M2853.59 363.5 2853.59 987.5M3020.5 363.5 3020.5 987.5" stroke="#D9D9D9" stroke-width="3.4375" stroke-linejoin="round" stroke-miterlimit="10" fill="none"/></g><g clip-path="url(#clip8)"><g clip-path="url(#clip9)" filter="url(#fx0)" transform="translate(1668 376)"><g clip-path="url(#clip10)"><rect x="20.9999" y="21.8748" width="34" height="48.0001" fill="#FF0000"/></g></g></g><g clip-path="url(#clip11)"><g clip-path="url(#clip12)" filter="url(#fx1)" transform="translate(1668 480)"><g clip-path="url(#clip13)"><rect x="20.9999" y="21.875" width="167" height="48.0001" fill="#FF0000"/></g></g></g><g clip-path="url(#clip14)"><g clip-path="url(#clip15)" filter="url(#fx2)" transform="translate(1668 584)"><g clip-path="url(#clip16)"><rect x="20.9999" y="21.8752" width="366" height="47.9998" fill="#FF0000"/></g></g></g><g clip-path="url(#clip17)"><g clip-path="url(#clip18)" filter="url(#fx3)" transform="translate(1668 688)"><g clip-path="url(#clip19)"><rect x="20.9999" y="21.8749" width="666" height="49.0002" fill="#FF0000"/></g></g></g><g clip-path="url(#clip20)"><g clip-path="url(#clip21)" filter="url(#fx4)" transform="translate(1668 792)"><g clip-path="url(#clip22)"><rect x="20.9999" y="21.8751" width="1165" height="48.9998" fill="#FF0000"/></g></g></g><g clip-path="url(#clip23)"><g clip-path="url(#clip24)" filter="url(#fx5)" transform="translate(1668 896)"><g clip-path="url(#clip25)"><rect x="20.9999" y="21.8749" width="34" height="49.0002" fill="#FF0000"/></g></g></g><g clip-path="url(#clip26)"><rect x="1689" y="391" width="34" height="48.0001" fill="url(#fill27)"/></g><g clip-path="url(#clip28)"><rect x="1689" y="495" width="167" height="48.0001" fill="url(#fill29)"/></g><g clip-path="url(#clip30)"><rect x="1689" y="599" width="366" height="47.9998" fill="url(#fill31)"/></g><g clip-path="url(#clip32)"><rect x="1689" y="703" width="666" height="49.0002" fill="url(#fill33)"/></g><g clip-path="url(#clip34)"><rect x="1689" y="807" width="1165" height="48.9998" fill="url(#fill35)"/></g><g clip-path="url(#clip36)"><rect x="1689" y="911" width="34" height="49.0002" fill="url(#fill37)"/></g><g clip-path="url(#clip38)"><path d="M1689.5 363.5 1689.5 987.5" stroke="#D9D9D9" stroke-width="4.58333" stroke-linejoin="round" stroke-miterlimit="10" fill="none" fill-rule="evenodd"/></g><g clip-path="url(#clip39)"><text fill="#404040" font-family="Arial,Arial_MSFontService,sans-serif" font-weight="400" font-size="41" transform="matrix(1 0 0 1 1716.94 430)">1</text></g><g clip-path="url(#clip40)"><text fill="#404040" font-family="Arial,Arial_MSFontService,sans-serif" font-weight="400" font-size="41" transform="matrix(1 0 0 1 1805.37 534)">5</text></g><g clip-path="url(#clip41)"><text fill="#404040" font-family="Arial,Arial_MSFontService,sans-serif" font-weight="400" font-size="41" transform="matrix(1 0 0 1 1982.07 639)">11</text></g><g clip-path="url(#clip42)"><text fill="#404040" font-family="Arial,Arial_MSFontService,sans-serif" font-weight="400" font-size="41" transform="matrix(1 0 0 1 2281.54 743)">20</text></g><g clip-path="url(#clip43)"><text fill="#404040" font-family="Arial,Arial_MSFontService,sans-serif" font-weight="400" font-size="41" transform="matrix(1 0 0 1 2780.65 847)">35</text></g><g clip-path="url(#clip44)"><text fill="#404040" font-family="Arial,Arial_MSFontService,sans-serif" font-weight="400" font-size="41" transform="matrix(1 0 0 1 1716.94 951)">1</text></g><g clip-path="url(#clip45)"><text fill="#595959" font-family="Arial,Arial_MSFontService,sans-serif" font-weight="400" font-size="41" transform="matrix(1 0 0 1 1677.97 1049)">0</text></g><g clip-path="url(#clip46)"><text fill="#595959" font-family="Arial,Arial_MSFontService,sans-serif" font-weight="400" font-size="41" transform="matrix(1 0 0 1 1844.34 1049)">5</text></g><g clip-path="url(#clip47)"><text fill="#595959" font-family="Arial,Arial_MSFontService,sans-serif" font-weight="400" font-size="41" transform="matrix(1 0 0 1 1999.24 1049)">10</text></g><g clip-path="url(#clip48)"><text fill="#595959" font-family="Arial,Arial_MSFontService,sans-serif" font-weight="400" font-size="41" transform="matrix(1 0 0 1 2165.61 1049)">15</text></g><g clip-path="url(#clip49)"><text fill="#595959" font-family="Arial,Arial_MSFontService,sans-serif" font-weight="400" font-size="41" transform="matrix(1 0 0 1 2331.98 1049)">20</text></g><g clip-path="url(#clip50)"><text fill="#595959" font-family="Arial,Arial_MSFontService,sans-serif" font-weight="400" font-size="41" transform="matrix(1 0 0 1 2498.35 1049)">25</text></g><g clip-path="url(#clip51)"><text fill="#595959" font-family="Arial,Arial_MSFontService,sans-serif" font-weight="400" font-size="41" transform="matrix(1 0 0 1 2664.72 1049)">30</text></g><g clip-path="url(#clip52)"><text fill="#595959" font-family="Arial,Arial_MSFontService,sans-serif" font-weight="400" font-size="41" transform="matrix(1 0 0 1 2831.08 1049)">35</text></g><g clip-path="url(#clip53)"><text fill="#595959" font-family="Arial,Arial_MSFontService,sans-serif" font-weight="400" font-size="41" transform="matrix(1 0 0 1 2997.45 1049)">40</text></g><g clip-path="url(#clip54)"><text fill="#595959" font-family="Arial,Arial_MSFontService,sans-serif" font-weight="400" font-size="41" transform="matrix(1 0 0 1 1562.21 428)">2018</text></g><g clip-path="url(#clip55)"><text fill="#595959" font-family="Arial,Arial_MSFontService,sans-serif" font-weight="400" font-size="41" transform="matrix(1 0 0 1 1562.21 532)">2019</text></g><g clip-path="url(#clip56)"><text fill="#595959" font-family="Arial,Arial_MSFontService,sans-serif" font-weight="400" font-size="41" transform="matrix(1 0 0 1 1562.21 636)">2020</text></g><g clip-path="url(#clip57)"><text fill="#595959" font-family="Arial,Arial_MSFontService,sans-serif" font-weight="400" font-size="41" transform="matrix(1 0 0 1 1562.21 740)">2021</text></g><g clip-path="url(#clip58)"><text fill="#595959" font-family="Arial,Arial_MSFontService,sans-serif" font-weight="400" font-size="41" transform="matrix(1 0 0 1 1562.21 844)">2022</text></g><g clip-path="url(#clip59)"><text fill="#595959" font-family="Arial,Arial_MSFontService,sans-serif" font-weight="400" font-size="41" transform="matrix(1 0 0 1 1562.21 948)">2023</text></g><g clip-path="url(#clip60)"><text fill="#595959" font-family="Arial,Arial_MSFontService,sans-serif" font-weight="400" font-size="41" transform="matrix(1 0 0 1 2204.72 1111)">Publication Year</text></g><g clip-path="url(#clip61)"><text fill="#595959" font-family="Arial,Arial_MSFontService,sans-serif" font-weight="400" font-size="41" transform="matrix(6.12323e-17 -1 1 6.12323e-17 1540.05 825)">Publication Year</text></g><g clip-path="url(#clip62)"><g clip-path="url(#clip63)"><text fill="#595959" font-family="Arial,Arial_MSFontService,sans-serif" font-weight="700" font-size="73" transform="matrix(1 0 0 1 2258.56 290)">. </text></g></g><rect x="1444.5" y="187.5" width="1650" height="990" stroke="#D9D9D9" stroke-width="3.4375" stroke-linejoin="round" stroke-miterlimit="10" fill="none"/></g></svg>