<svg xmlns="http://www.w3.org/2000/svg" width="1005" height="600"><rect width="1005" height="600" x="0" y="0" fill="#FFFFFF" id="backgorund"/><g id="viz"><g transform="translate(0,0)"><g transform="translate(51,20)"><g class="bars"><rect id="undefined - 2021" x="390.9795918367347" y="240.00000000000003" height="320" width="79.71428571428571" fill="#4a90e2"/><rect id="undefined - 2022" x="508.65306122448976" y="0" height="560" width="79.71428571428571" fill="#4a90e2"/><rect id="undefined - 2019" x="155.6326530612245" y="480.00000000000006" height="79.99999999999994" width="79.71428571428571" fill="#4a90e2"/><rect id="undefined - 2023" x="626.3265306122448" y="544" height="16" width="79.71428571428571" fill="#4a90e2"/><rect id="undefined - 2020" x="273.3061224489796" y="384" height="176" width="79.71428571428571" fill="#4a90e2"/><rect id="undefined - 2018" x="37.9591836734694" y="544" height="16" width="79.71428571428571" fill="#4a90e2"/></g><g id="xAxis" transform="translate(0,560)" fill="none" font-size="10" font-family="sans-serif" text-anchor="middle"><path class="domain" stroke="currentColor" d="M0,0H744"/><g class="tick" opacity="1" transform="translate(77.81632653061226,0)"><line stroke="currentColor" y2="6"/><text fill="currentColor" y="9" dy="0.71em">2018</text></g><g class="tick" opacity="1" transform="translate(195.48979591836735,0)"><line stroke="currentColor" y2="6"/><text fill="currentColor" y="9" dy="0.71em">2019</text></g><g class="tick" opacity="1" transform="translate(313.1632653061224,0)"><line stroke="currentColor" y2="6"/><text fill="currentColor" y="9" dy="0.71em">2020</text></g><g class="tick" opacity="1" transform="translate(430.83673469387753,0)"><line stroke="currentColor" y2="6"/><text fill="currentColor" y="9" dy="0.71em">2021</text></g><g class="tick" opacity="1" transform="translate(548.5102040816327,0)"><line stroke="currentColor" y2="6"/><text fill="currentColor" y="9" dy="0.71em">2022</text></g><g class="tick" opacity="1" transform="translate(666.1836734693877,0)"><line stroke="currentColor" y2="6"/><text fill="currentColor" y="9" dy="0.71em">2023</text></g><text x="744" y="-4" text-anchor="end" style="font-family: Arial, sans-serif; font-size: 12px; fill: rgb(123, 123, 123); font-weight: bold;">Publication Year</text></g><g id="yAxis" fill="none" font-size="10" font-family="sans-serif" text-anchor="end"><path class="domain" stroke="currentColor" d="M-6,560H0V0H-6"/><g class="tick" opacity="1" transform="translate(0,560)"><line stroke="currentColor" x2="-6"/><text fill="currentColor" x="-9" dy="0.32em">0</text></g><g class="tick" opacity="1" transform="translate(0,480.00000000000006)"><line stroke="currentColor" x2="-6"/><text fill="currentColor" x="-9" dy="0.32em">5</text></g><g class="tick" opacity="1" transform="translate(0,400)"><line stroke="currentColor" x2="-6"/><text fill="currentColor" x="-9" dy="0.32em">10</text></g><g class="tick" opacity="1" transform="translate(0,320)"><line stroke="currentColor" x2="-6"/><text fill="currentColor" x="-9" dy="0.32em">15</text></g><g class="tick" opacity="1" transform="translate(0,240.00000000000003)"><line stroke="currentColor" x2="-6"/><text fill="currentColor" x="-9" dy="0.32em">20</text></g><g class="tick" opacity="1" transform="translate(0,160)"><line stroke="currentColor" x2="-6"/><text fill="currentColor" x="-9" dy="0.32em">25</text></g><g class="tick" opacity="1" transform="translate(0,80.00000000000003)"><line stroke="currentColor" x2="-6"/><text fill="currentColor" x="-9" dy="0.32em">30</text></g><g class="tick" opacity="1" transform="translate(0,0)"><line stroke="currentColor" x2="-6"/><text fill="currentColor" x="-9" dy="0.32em">35</text></g><text x="4" text-anchor="start" dominant-baseline="hanging" style="font-family: Arial, sans-serif; font-size: 12px; fill: rgb(123, 123, 123); font-weight: bold;">Publication Year [count]</text></g></g><text y="4" x="4" style="font-family: Arial, sans-serif; font-size: 12px; fill: black; font-weight: bold; dominant-baseline: hanging;"/></g></g><g id="legend" transform="translate(805,20)"><g transform="translate(5,0)"/></g></svg>