<svg xmlns="http://www.w3.org/2000/svg" width="1005" height="600"><rect width="1005" height="600" x="0" y="0" fill="#FFFFFF" id="backgorund"/><g id="viz"><g transform="translate(0,0)"><g transform="translate(51,20)"><g class="bars"><rect id="undefined - 2021" x="0" y="287.30434782608694" height="76.28985507246378" width="425.1428571428571" fill="#4a90e2"/><rect id="undefined - 2022" x="0" y="378.2028985507246" height="76.28985507246378" width="744" fill="#4a90e2"/><rect id="undefined - 2019" x="0" y="105.50724637681157" height="76.28985507246378" width="106.28571428571428" fill="#4a90e2"/><rect id="undefined - 2023" x="0" y="469.1014492753623" height="76.28985507246378" width="21.257142857142856" fill="#4a90e2"/><rect id="undefined - 2020" x="0" y="196.40579710144925" height="76.28985507246378" width="233.82857142857142" fill="#4a90e2"/><rect id="undefined - 2018" x="0" y="14.608695652173878" height="76.28985507246378" width="21.257142857142856" fill="#4a90e2"/></g><g id="xAxis" transform="translate(0,560)" fill="none" font-size="10" font-family="sans-serif" text-anchor="middle"><path class="domain" stroke="currentColor" d="M0,6V0H744V6"/><g class="tick" opacity="1" transform="translate(0,0)"><line stroke="currentColor" y2="6"/><text fill="currentColor" y="9" dy="0.71em">0</text></g><g class="tick" opacity="1" transform="translate(106.28571428571428,0)"><line stroke="currentColor" y2="6"/><text fill="currentColor" y="9" dy="0.71em">5</text></g><g class="tick" opacity="1" transform="translate(212.57142857142856,0)"><line stroke="currentColor" y2="6"/><text fill="currentColor" y="9" dy="0.71em">10</text></g><g class="tick" opacity="1" transform="translate(318.85714285714283,0)"><line stroke="currentColor" y2="6"/><text fill="currentColor" y="9" dy="0.71em">15</text></g><g class="tick" opacity="1" transform="translate(425.1428571428571,0)"><line stroke="currentColor" y2="6"/><text fill="currentColor" y="9" dy="0.71em">20</text></g><g class="tick" opacity="1" transform="translate(531.4285714285714,0)"><line stroke="currentColor" y2="6"/><text fill="currentColor" y="9" dy="0.71em">25</text></g><g class="tick" opacity="1" transform="translate(637.7142857142857,0)"><line stroke="currentColor" y2="6"/><text fill="currentColor" y="9" dy="0.71em">30</text></g><g class="tick" opacity="1" transform="translate(744,0)"><line stroke="currentColor" y2="6"/><text fill="currentColor" y="9" dy="0.71em">35</text></g><text font-family="Arial, sans-serif" font-size="10" x="744" dy="-5" fill="black" font-weight="bold" text-anchor="end">Publication Year [count]</text></g><g id="yAxis" transform="translate(0,0)" fill="none" font-size="10" font-family="sans-serif" text-anchor="end"><path class="domain" stroke="currentColor" d="M0,0V560"/><g class="tick" opacity="1" transform="translate(0,52.75362318840577)"><line stroke="currentColor" x2="-6"/><text fill="currentColor" x="-9" dy="0.32em">2018</text></g><g class="tick" opacity="1" transform="translate(0,143.65217391304344)"><line stroke="currentColor" x2="-6"/><text fill="currentColor" x="-9" dy="0.32em">2019</text></g><g class="tick" opacity="1" transform="translate(0,234.55072463768113)"><line stroke="currentColor" x2="-6"/><text fill="currentColor" x="-9" dy="0.32em">2020</text></g><g class="tick" opacity="1" transform="translate(0,325.4492753623188)"><line stroke="currentColor" x2="-6"/><text fill="currentColor" x="-9" dy="0.32em">2021</text></g><g class="tick" opacity="1" transform="translate(0,416.3478260869565)"><line stroke="currentColor" x2="-6"/><text fill="currentColor" x="-9" dy="0.32em">2022</text></g><g class="tick" opacity="1" transform="translate(0,507.2463768115942)"><line stroke="currentColor" x2="-6"/><text fill="currentColor" x="-9" dy="0.32em">2023</text></g><text font-family="Arial, sans-serif" font-size="10" x="4" fill="black" font-weight="bold" text-anchor="start" dominant-baseline="hanging">Publication Year</text></g></g><text y="4" x="4" style="font-family: Arial, sans-serif; font-size: 12px; fill: black; font-weight: bold; dominant-baseline: hanging;"/></g></g><g id="legend" transform="translate(805,20)"><g transform="translate(5,0)"/></g></svg>